<?xml version="1.0" standalone="no"?>
<!DOCTYPE svg PUBLIC "-//W3C//DTD SVG 20010904//EN"
 "http://www.w3.org/TR/2001/REC-SVG-20010904/DTD/svg10.dtd">
<svg version="1.0" xmlns="http://www.w3.org/2000/svg"
 width="768.000000pt" height="768.000000pt" viewBox="0 0 768.000000 768.000000"
 preserveAspectRatio="xMidYMid meet">
<metadata>
Created by potrace 1.14, written by Peter Selinger 2001-2017
</metadata>
<g transform="translate(0.000000,768.000000) scale(0.100000,-0.100000)"
fill="#000000" stroke="none">
<path d="M3548 7675 c-2 -2 -37 -6 -78 -9 -41 -3 -86 -8 -100 -10 -14 -3 -45
-7 -70 -10 -25 -3 -58 -8 -75 -11 -16 -3 -52 -10 -80 -15 -27 -5 -61 -12 -75
-14 -177 -37 -435 -121 -620 -202 -129 -56 -398 -201 -437 -234 -7 -5 -16 -10
-21 -10 -5 0 -17 -9 -27 -20 -10 -11 -24 -20 -32 -20 -7 0 -13 -4 -13 -10 0
-5 -6 -10 -14 -10 -8 0 -16 -3 -18 -7 -2 -5 -23 -21 -48 -38 -25 -16 -49 -35
-55 -41 -5 -6 -30 -26 -55 -45 -59 -45 -73 -56 -128 -104 -70 -61 -261 -254
-312 -315 -25 -30 -52 -62 -61 -71 -9 -9 -46 -57 -83 -105 -36 -49 -69 -93
-73 -99 -5 -5 -32 -48 -62 -95 -30 -47 -63 -98 -73 -113 -24 -34 -170 -320
-186 -362 -6 -16 -23 -57 -36 -90 -14 -33 -26 -64 -26 -70 0 -5 -6 -21 -13
-35 -8 -14 -16 -34 -19 -45 -4 -11 -18 -58 -33 -105 -14 -47 -28 -92 -30 -100
-2 -8 -14 -62 -28 -120 -34 -140 -56 -274 -74 -445 -10 -93 -10 -489 0 -590
17 -171 23 -214 48 -340 12 -55 22 -109 24 -120 15 -80 94 -333 145 -460 52
-131 160 -358 173 -363 4 -2 7 -8 7 -12 0 -24 227 -372 284 -435 11 -14 50
-61 86 -105 59 -73 303 -319 375 -380 146 -120 429 -320 454 -320 5 0 11 -4
13 -9 3 -9 335 -183 341 -179 1 1 18 -6 37 -14 115 -50 336 -127 443 -154 9
-2 27 -7 40 -10 40 -10 101 -24 132 -30 17 -3 41 -8 55 -10 198 -41 382 -57
635 -56 144 1 310 7 310 12 0 1 17 3 39 5 41 3 105 12 152 21 16 3 38 7 49 9
11 1 25 4 30 5 19 5 32 0 32 -12 1 -7 4 -33 8 -58 3 -25 8 -61 11 -80 2 -19 9
-69 15 -110 6 -41 13 -88 15 -105 2 -16 6 -52 9 -80 3 -27 7 -57 9 -65 3 -8 7
-37 11 -65 3 -27 8 -61 10 -75 2 -14 6 -47 10 -75 3 -27 8 -61 10 -75 2 -14 6
-47 10 -75 3 -27 8 -57 10 -65 2 -8 6 -40 10 -70 3 -30 7 -64 10 -75 2 -11 4
-33 4 -49 1 -16 3 -27 6 -24 7 7 12 30 20 99 3 30 8 65 10 79 7 37 13 79 20
130 5 44 13 99 20 150 2 14 6 43 9 65 10 77 17 130 21 155 7 51 15 106 20 145
2 22 10 74 15 115 6 41 13 93 16 115 7 57 13 97 18 120 2 11 7 51 11 90 4 38
8 72 10 75 2 3 6 30 10 60 7 64 11 92 18 140 3 19 9 62 13 95 3 33 8 69 10 80
2 11 7 40 10 65 3 25 7 56 10 70 3 23 12 86 19 150 2 14 5 39 8 55 3 17 8 53
12 80 3 28 8 61 10 75 2 14 7 45 9 70 3 25 7 56 10 70 3 14 7 48 10 75 3 28 8
59 10 71 2 11 7 47 10 79 4 32 8 61 10 64 3 5 10 58 21 161 1 14 5 39 8 55 6
27 15 97 22 165 2 14 5 43 8 65 4 22 9 58 12 80 3 23 7 50 9 60 2 11 7 45 10
76 4 31 9 67 11 80 3 13 7 44 10 69 3 25 8 61 11 80 3 19 7 53 10 75 2 22 7
47 9 55 2 8 5 34 7 58 1 23 4 42 7 42 4 0 6 17 7 38 0 20 4 55 7 77 3 22 11
74 16 115 6 41 12 84 15 95 2 11 7 52 11 92 l7 72 -39 -1 c-34 -1 -126 3 -368
17 -38 2 -122 7 -185 10 -63 4 -142 8 -175 10 -214 12 -314 17 -345 18 l-35 0
-3 696 c-3 662 -8 1246 -11 1264 0 5 -13 -6 -28 -25 -16 -18 -37 -42 -48 -54
-11 -11 -49 -54 -85 -94 -55 -63 -148 -166 -185 -206 -5 -6 -32 -37 -60 -69
-27 -32 -59 -67 -70 -79 -11 -12 -47 -53 -80 -90 -33 -37 -69 -78 -80 -90 -95
-105 -127 -140 -170 -190 -27 -31 -63 -72 -80 -90 -16 -18 -57 -63 -90 -101
-33 -37 -71 -80 -85 -95 -14 -15 -54 -61 -90 -101 -36 -40 -75 -84 -87 -97
-13 -12 -23 -24 -23 -26 0 -2 -17 -21 -37 -43 -21 -21 -67 -72 -103 -113 -36
-41 -72 -81 -80 -90 -8 -9 -46 -52 -85 -96 -38 -43 -86 -97 -106 -119 -73 -81
-153 -170 -164 -181 -5 -6 -35 -39 -65 -74 -30 -35 -78 -88 -106 -119 -49 -53
-209 -232 -264 -295 -44 -51 -114 -128 -143 -158 -15 -16 -27 -31 -27 -33 0
-6 -63 -66 -66 -63 -11 13 -110 336 -120 395 -2 15 -11 66 -20 113 -23 133
-27 190 -28 405 -1 201 7 306 29 425 3 14 8 39 10 55 3 17 12 57 20 90 9 33
18 71 21 84 3 13 9 32 15 43 5 10 8 18 5 18 -7 0 65 202 99 275 8 17 20 45 27
63 7 17 16 32 20 32 5 0 7 3 6 8 -2 4 19 47 45 95 159 290 382 554 642 757 39
30 75 59 80 63 26 22 186 123 235 149 30 16 79 42 108 58 170 91 490 196 692
226 19 3 46 7 60 10 105 19 475 26 615 11 53 -5 274 -43 300 -51 6 -1 27 -6
48 -11 20 -4 40 -11 43 -16 3 -5 9 -7 13 -4 11 6 186 -53 298 -101 222 -95
457 -239 633 -389 103 -88 325 -322 370 -391 8 -12 36 -52 62 -88 101 -142
223 -371 281 -531 68 -187 84 -245 122 -435 3 -17 13 -78 20 -130 22 -154 22
-491 0 -621 -3 -15 -7 -47 -10 -70 -3 -24 -8 -51 -10 -59 -2 -8 -7 -31 -10
-50 -3 -19 -8 -43 -11 -52 -3 -9 -6 -25 -8 -35 -17 -88 -94 -316 -142 -421
-50 -108 -117 -239 -137 -266 -4 -6 -37 -56 -73 -111 -67 -102 -136 -191 -218
-280 -25 -27 -46 -54 -47 -60 0 -5 -2 -17 -4 -25 -2 -8 -6 -33 -10 -55 -4 -22
-11 -59 -16 -83 -5 -23 -12 -59 -15 -78 -3 -20 -8 -46 -10 -58 -2 -11 -7 -37
-10 -56 -3 -19 -12 -68 -20 -109 -7 -40 -11 -78 -8 -82 3 -5 1 -9 -4 -9 -5 0
-9 -6 -9 -12 -1 -21 -11 -91 -18 -118 -3 -14 -8 -40 -10 -57 -3 -18 -10 -54
-15 -79 -6 -26 -13 -68 -16 -93 -3 -25 -7 -48 -9 -51 -2 -3 -6 -25 -10 -49 -3
-24 -10 -53 -14 -65 -5 -11 -6 -26 -4 -33 2 -7 -1 -21 -7 -32 -14 -27 -3 -26
56 5 121 64 325 206 466 324 104 87 285 262 375 363 56 64 207 261 243 317 19
30 37 57 40 60 6 5 66 103 102 165 87 152 222 452 252 560 2 6 6 17 9 25 13
32 59 186 63 210 2 14 15 72 28 129 14 58 27 123 31 145 3 23 7 52 10 66 2 14
6 46 9 73 4 26 8 67 11 91 22 180 17 534 -10 736 -9 63 -33 207 -39 235 -1 6
-8 37 -15 70 -7 33 -22 92 -33 130 -10 39 -21 77 -23 85 -2 8 -8 26 -13 40 -5
14 -10 27 -10 30 -1 7 -6 21 -36 105 -93 265 -239 547 -400 775 -66 94 -195
257 -241 306 -126 133 -201 208 -264 264 -41 36 -79 70 -85 75 -10 9 -88 70
-111 87 -5 4 -26 21 -46 38 -20 16 -41 30 -47 30 -6 0 -12 3 -14 8 -1 4 -30
25 -63 47 -33 22 -61 43 -63 48 -2 4 -9 7 -15 7 -7 0 -34 15 -62 32 -87 56
-233 132 -355 186 -25 11 -67 29 -95 42 -27 12 -57 23 -65 26 -26 7 -145 49
-155 55 -5 4 -35 12 -65 19 -30 7 -61 17 -68 23 -7 5 -15 7 -18 4 -3 -3 -18
-1 -33 4 -31 12 -228 55 -289 63 -24 3 -46 8 -50 10 -4 2 -43 7 -87 11 -44 4
-89 9 -100 12 -23 6 -521 13 -527 8z m-263 -4369 c50 -3 140 -9 200 -11 61 -3
148 -8 195 -10 47 -3 137 -7 200 -11 63 -3 135 -7 160 -9 25 -2 51 -4 58 -4 7
-1 12 -7 11 -13 -2 -7 1 -38 5 -68 4 -30 9 -68 11 -85 2 -16 9 -66 16 -110 6
-44 13 -91 14 -105 3 -26 33 -245 40 -290 7 -43 15 -103 20 -155 3 -27 8 -57
10 -65 2 -8 7 -39 10 -69 4 -30 8 -63 11 -74 2 -11 6 -43 9 -71 6 -58 14 -119
20 -157 5 -25 2 -26 -63 -37 -37 -6 -87 -14 -112 -17 -25 -4 -58 -9 -75 -11
-16 -3 -86 -7 -155 -9 -69 -2 -127 -5 -130 -6 -3 -1 -9 0 -15 1 -5 1 -49 4
-98 5 -48 2 -102 6 -120 9 -17 2 -59 8 -92 12 -33 4 -62 9 -65 9 -3 1 -23 5
-45 9 -278 54 -560 160 -787 296 -44 25 -45 29 -19 61 10 13 20 29 22 35 2 6
40 70 84 142 44 72 85 140 90 149 6 10 42 70 80 133 39 63 72 119 75 125 3 5
32 54 65 108 33 54 66 110 74 124 8 15 22 36 33 47 10 11 18 24 18 30 0 5 13
30 30 55 33 52 19 50 215 37z"/>
</g>
</svg>
