<svg version="1.0" xmlns="http://www.w3.org/2000/svg" width="1024" height="1024" viewBox="0 0 768 768"><path d="M354.8.5c-.2.2-3.7.6-7.8.9-4.1.3-8.6.8-10 1-1.4.3-4.5.7-7 1-2.5.3-5.8.8-7.5 1.1-1.6.3-5.2 1-8 1.5-2.7.5-6.1 1.2-7.5 1.4-17.7 3.7-43.5 12.1-62 20.2-12.9 5.6-39.8 20.1-43.7 23.4-.7.5-1.6 1-2.1 1s-1.7.9-2.7 2c-1 1.1-2.4 2-3.2 2-.7 0-1.3.4-1.3 1 0 .5-.6 1-1.4 1-.8 0-1.6.3-1.8.7-.2.5-2.3 2.1-4.8 3.8-2.5 1.6-4.9 3.5-5.5 4.1-.5.6-3 2.6-5.5 4.5-5.9 4.5-7.3 5.6-12.8 10.4-7 6.1-26.1 25.4-31.2 31.5-2.5 3-5.2 6.2-6.1 7.1-.9.9-4.6 5.7-8.3 10.5-3.6 4.9-6.9 9.3-7.3 9.9-.5.5-3.2 4.8-6.2 9.5s-6.3 9.8-7.3 11.3c-2.4 3.4-17 32-18.6 36.2-.6 1.6-2.3 5.7-3.6 9-1.4 3.3-2.6 6.4-2.6 7 0 .5-.6 2.1-1.3 3.5-.8 1.4-1.6 3.4-1.9 4.5-.4 1.1-1.8 5.8-3.3 10.5-1.4 4.7-2.8 9.2-3 10-.2.8-1.4 6.2-2.8 12-3.4 14-5.6 27.4-7.4 44.5-1 9.3-1 48.9 0 59 1.7 17.1 2.3 21.4 4.8 34 1.2 5.5 2.2 10.9 2.4 12 1.5 8 9.4 33.3 14.5 46 5.2 13.1 16 35.8 17.3 36.3.4.2.7.8.7 1.2 0 2.4 22.7 37.2 28.4 43.5 1.1 1.4 5 6.1 8.6 10.5 5.9 7.3 30.3 31.9 37.5 38 14.6 12 42.9 32 45.4 32 .5 0 1.1.4 1.3.9.3.9 33.5 18.3 34.1 17.9.1-.1 1.8.6 3.7 1.4 11.5 5 33.6 12.7 44.3 15.4.9.2 2.7.7 4 1 4 1 10.1 2.4 13.2 3 1.7.3 4.1.8 5.5 1 19.8 4.1 38.2 5.7 63.5 5.6 14.4-.1 31-.7 31-1.2 0-.1 1.7-.3 3.9-.5 4.1-.3 10.5-1.2 15.2-2.1 1.6-.3 3.8-.7 4.9-.9 1.1-.1 2.5-.4 3-.5 1.9-.5 3.2 0 3.2 1.2.1.7.4 3.3.8 5.8.3 2.5.8 6.1 1.1 8 .2 1.9.9 6.9 1.5 11s1.3 8.8 1.5 10.5c.2 1.6.6 5.2.9 8 .3 2.7.7 5.7.9 6.5.3.8.7 3.7 1.1 6.5.3 2.7.8 6.1 1 7.5.2 1.4.6 4.7 1 7.5.3 2.7.8 6.1 1 7.5.2 1.4.6 4.7 1 7.5.3 2.7.8 5.7 1 6.5.2.8.6 4 1 7 .3 3 .7 6.4 1 7.5.2 1.1.4 3.3.4 4.9.1 1.6.3 2.7.6 2.4.7-.7 1.2-3 2-9.9.3-3 .8-6.5 1-7.9.7-3.7 1.3-7.9 2-13 .5-4.4 1.3-9.9 2-15 .2-1.4.6-4.3.9-6.5 1-7.7 1.7-13 2.1-15.5.7-5.1 1.5-10.6 2-14.5.2-2.2 1-7.4 1.5-11.5.6-4.1 1.3-9.3 1.6-11.5.7-5.7 1.3-9.7 1.8-12 .2-1.1.7-5.1 1.1-9 .4-3.8.8-7.2 1-7.5.2-.3.6-3 1-6 .7-6.4 1.1-9.2 1.8-14 .3-1.9.9-6.2 1.3-9.5.3-3.3.8-6.9 1-8 .2-1.1.7-4 1-6.5.3-2.5.7-5.6 1-7 .3-2.3 1.2-8.6 1.9-15 .2-1.4.5-3.9.8-5.5.3-1.7.8-5.3 1.2-8 .3-2.8.8-6.1 1-7.5.2-1.4.7-4.5.9-7 .3-2.5.7-5.6 1-7 .3-1.4.7-4.8 1-7.5.3-2.8.8-5.9 1-7.1.2-1.1.7-4.7 1-7.9.4-3.2.8-6.1 1-6.4.3-.5 1-5.8 2.1-16.1.1-1.4.5-3.9.8-5.5.6-2.7 1.5-9.7 2.2-16.5.2-1.4.5-4.3.8-6.5.4-2.2.9-5.8 1.2-8 .3-2.3.7-5 .9-6 .2-1.1.7-4.5 1-7.6.4-3.1.9-6.7 1.1-8 .3-1.3.7-4.4 1-6.9.3-2.5.8-6.1 1.1-8 .3-1.9.7-5.3 1-7.5.2-2.2.7-4.7.9-5.5.2-.8.5-3.4.7-5.8.1-2.3.4-4.2.7-4.2.4 0 .6-1.7.7-3.8 0-2 .4-5.5.7-7.7.3-2.2 1.1-7.4 1.6-11.5.6-4.1 1.2-8.4 1.5-9.5.2-1.1.7-5.2 1.1-9.2l.7-7.2-3.9.1c-3.4.1-12.6-.3-36.8-1.7-3.8-.2-12.2-.7-18.5-1-6.3-.4-14.2-.8-17.5-1-21.4-1.2-31.4-1.7-34.5-1.8h-3.5l-.3-69.6c-.3-66.2-.8-124.6-1.1-126.4 0-.5-1.3.6-2.8 2.5-1.6 1.8-3.7 4.2-4.8 5.4-1.1 1.1-4.9 5.4-8.5 9.4-5.5 6.3-14.8 16.6-18.5 20.6-.5.6-3.2 3.7-6 6.9-2.7 3.2-5.9 6.7-7 7.9-1.1 1.2-4.7 5.3-8 9s-6.9 7.8-8 9c-9.5 10.5-12.7 14-17 19-2.7 3.1-6.3 7.2-8 9-1.6 1.8-5.7 6.3-9 10.1-3.3 3.7-7.1 8-8.5 9.5-1.4 1.5-5.4 6.1-9 10.1-3.6 4-7.5 8.4-8.7 9.7-1.3 1.2-2.3 2.4-2.3 2.6 0 .2-1.7 2.1-3.7 4.3-2.1 2.1-6.7 7.2-10.3 11.3-3.6 4.1-7.2 8.1-8 9-.8.9-4.6 5.2-8.5 9.6-3.8 4.3-8.6 9.7-10.6 11.9-7.3 8.1-15.3 17-16.4 18.1-.5.6-3.5 3.9-6.5 7.4-3 3.5-7.8 8.8-10.6 11.9-4.9 5.3-20.9 23.2-26.4 29.5-4.4 5.1-11.4 12.8-14.3 15.8-1.5 1.6-2.7 3.1-2.7 3.3 0 .6-6.3 6.6-6.6 6.3-1.1-1.3-11-33.6-12-39.5-.2-1.5-1.1-6.6-2-11.3-2.3-13.3-2.7-19-2.8-40.5-.1-20.1.7-30.6 2.9-42.5.3-1.4.8-3.9 1-5.5.3-1.7 1.2-5.7 2-9 .9-3.3 1.8-7.1 2.1-8.4.3-1.3.9-3.2 1.5-4.3.5-1 .8-1.8.5-1.8-.7 0 6.5-20.2 9.9-27.5.8-1.7 2-4.5 2.7-6.3.7-1.7 1.6-3.2 2-3.2.5 0 .7-.3.6-.8-.2-.4 1.9-4.7 4.5-9.5 15.9-29 38.2-55.4 64.2-75.7 3.9-3 7.5-5.9 8-6.3 2.6-2.2 18.6-12.3 23.5-14.9 3-1.6 7.9-4.2 10.8-5.8 17-9.1 49-19.6 69.2-22.6 1.9-.3 4.6-.7 6-1 10.5-1.9 47.5-2.6 61.5-1.1 5.3.5 27.4 4.3 30 5.1.6.1 2.7.6 4.8 1.1 2 .4 4 1.1 4.3 1.6.3.5.9.7 1.3.4 1.1-.6 18.6 5.3 29.8 10.1 22.2 9.5 45.7 23.9 63.3 38.9 10.3 8.8 32.5 32.2 37 39.1.8 1.2 3.6 5.2 6.2 8.8 10.1 14.2 22.3 37.1 28.1 53.1 6.8 18.7 8.4 24.5 12.2 43.5.3 1.7 1.3 7.8 2 13 2.2 15.4 2.2 49.1 0 62.1-.3 1.5-.7 4.7-1 7-.3 2.4-.8 5.1-1 5.9-.2.8-.7 3.1-1 5-.3 1.9-.8 4.3-1.1 5.2-.3.9-.6 2.5-.8 3.5-1.7 8.8-9.4 31.6-14.2 42.1-5 10.8-11.7 23.9-13.7 26.6-.4.6-3.7 5.6-7.3 11.1-6.7 10.2-13.6 19.1-21.8 28-2.5 2.7-4.6 5.4-4.7 6 0 .5-.2 1.7-.4 2.5s-.6 3.3-1 5.5-1.1 5.9-1.6 8.3c-.5 2.3-1.2 5.9-1.5 7.8-.3 2-.8 4.6-1 5.8-.2 1.1-.7 3.7-1 5.6-.3 1.9-1.2 6.8-2 10.9-.7 4-1.1 7.8-.8 8.2.3.5.1.9-.4.9s-.9.6-.9 1.2c-.1 2.1-1.1 9.1-1.8 11.8-.3 1.4-.8 4-1 5.7-.3 1.8-1 5.4-1.5 7.9-.6 2.6-1.3 6.8-1.6 9.3-.3 2.5-.7 4.8-.9 5.1-.2.3-.6 2.5-1 4.9-.3 2.4-1 5.3-1.4 6.5-.5 1.1-.6 2.6-.4 3.3.2.7-.1 2.1-.7 3.2-1.4 2.7-.3 2.6 5.6-.5 12.1-6.4 32.5-20.6 46.6-32.4 10.4-8.7 28.5-26.2 37.5-36.3 5.6-6.4 20.7-26.1 24.3-31.7 1.9-3 3.7-5.7 4-6 .6-.5 6.6-10.3 10.2-16.5 8.7-15.2 22.2-45.2 25.2-56 .2-.6.6-1.7.9-2.5 1.3-3.2 5.9-18.6 6.3-21 .2-1.4 1.5-7.2 2.8-12.9 1.4-5.8 2.7-12.3 3.1-14.5.3-2.3.7-5.2 1-6.6.2-1.4.6-4.6.9-7.3.4-2.6.8-6.7 1.1-9.1 2.2-18 1.7-53.4-1-73.6-.9-6.3-3.3-20.7-3.9-23.5-.1-.6-.8-3.7-1.5-7s-2.2-9.2-3.3-13c-1-3.9-2.1-7.7-2.3-8.5-.2-.8-.8-2.6-1.3-4s-1-2.7-1-3c-.1-.7-.6-2.1-3.6-10.5-9.3-26.5-23.9-54.7-40-77.5-6.6-9.4-19.5-25.7-24.1-30.6-12.6-13.3-20.1-20.8-26.4-26.4-4.1-3.6-7.9-7-8.5-7.5-1-.9-8.8-7-11.1-8.7-.5-.4-2.6-2.1-4.6-3.8-2-1.6-4.1-3-4.7-3-.6 0-1.2-.3-1.4-.8-.1-.4-3-2.5-6.3-4.7s-6.1-4.3-6.3-4.8c-.2-.4-.9-.7-1.5-.7-.7 0-3.4-1.5-6.2-3.2-8.7-5.6-23.3-13.2-35.5-18.6-2.5-1.1-6.7-2.9-9.5-4.2-2.7-1.2-5.7-2.3-6.5-2.6-2.6-.7-14.5-4.9-15.5-5.5-.5-.4-3.5-1.2-6.5-1.9s-6.1-1.7-6.8-2.3c-.7-.5-1.5-.7-1.8-.4-.3.3-1.8.1-3.3-.4-3.1-1.2-22.8-5.5-28.9-6.3-2.4-.3-4.6-.8-5-1-.4-.2-4.3-.7-8.7-1.1-4.4-.4-8.9-.9-10-1.2-2.3-.6-52.1-1.3-52.7-.8zm-26.3 436.9c5 .3 14 .9 20 1.1 6.1.3 14.8.8 19.5 1 4.7.3 13.7.7 20 1.1 6.3.3 13.5.7 16 .9 2.5.2 5.1.4 5.8.4.7.1 1.2.7 1.1 1.3-.2.7.1 3.8.5 6.8s.9 6.8 1.1 8.5c.2 1.6.9 6.6 1.6 11 .6 4.4 1.3 9.1 1.4 10.5.3 2.6 3.3 24.5 4 29 .7 4.3 1.5 10.3 2 15.5.3 2.7.8 5.7 1 6.5.2.8.7 3.9 1 6.9.4 3 .8 6.3 1.1 7.4.2 1.1.6 4.3.9 7.1.6 5.8 1.4 11.9 2 15.7.5 2.5.2 2.6-6.3 3.7-3.7.6-8.7 1.4-11.2 1.7-2.5.4-5.8.9-7.5 1.1-1.6.3-8.6.7-15.5.9-6.9.2-12.7.5-13 .6-.3.1-.9 0-1.5-.1-.5-.1-4.9-.4-9.8-.5-4.8-.2-10.2-.6-12-.9-1.7-.2-5.9-.8-9.2-1.2-3.3-.4-6.2-.9-6.5-.9-.3-.1-2.3-.5-4.5-.9-27.8-5.4-56-16-78.7-29.6-4.4-2.5-4.5-2.9-1.9-6.1 1-1.3 2-2.9 2.2-3.5.2-.6 4-7 8.4-14.2 4.4-7.2 8.5-14 9-14.9.6-1 4.2-7 8-13.3 3.9-6.3 7.2-11.9 7.5-12.5.3-.5 3.2-5.4 6.5-10.8s6.6-11 7.4-12.4c.8-1.5 2.2-3.6 3.3-4.7 1-1.1 1.8-2.4 1.8-3 0-.5 1.3-3 3-5.5 3.3-5.2 1.9-5 21.5-3.7z"/></svg>