<svg width="155" height="48" fill="none" xmlns="http://www.w3.org/2000/svg"><path d="M20.558 0C9.214 0 0 9.214 0 20.543c0 11.33 9.214 20.558 20.558 20.558a20.61 20.61 0 003.91-.383L25.464 48h.046l2.606-19.01.614-4.461.429-3.05-3.496-.185-3.694-.2-.016-3.893-.046-8.417-5.81 6.516L6.24 26.338a15.32 15.32 0 01-1.12-5.764c0-8.509 6.93-15.454 15.454-15.454 8.523 0 15.453 6.93 15.453 15.454 0 4.123-1.625 7.88-4.277 10.654l-1.334 7.39c6.377-3.496 10.716-10.272 10.716-18.044C41.102 9.214 31.888 0 20.558 0zm-4.2 27.273l2.177.123 4.108.214 1.104 8.049a15.778 15.778 0 01-3.204.337c-4.83 0-8.064-2.284-8.064-2.284l3.879-6.439z" fill="url(#paint0_radial)"/><path d="M7.19 32.608l5.304 1.104 3.864-6.424 2.836-11.39L8.754 30.43 7.19 32.608z" fill="url(#paint1_linear)"/><path d="M63.468 14.196v13.752h-2.177v-8.494l-3.878 5.09h-.736l-3.894-5.105v8.509h-2.177V14.18h.767l5.687 7.573 5.688-7.573h.72v.015zm10.103 0c3.833-.061 7.205 3.112 7.113 6.99.077 3.88-3.28 7.053-7.113 6.991-3.879.062-7.175-3.112-7.098-6.99-.061-3.879 3.235-7.052 7.098-6.99zm.015 1.978c-2.805 0-4.86 2.13-4.86 4.982 0 2.898 2.055 5.029 4.86 5.029 2.775 0 4.86-2.131 4.86-5.029 0-2.82-2.1-4.982-4.86-4.982zM94.85 14.41v13.768h-.736l-8.248-9.398v9.168H83.69V14.18h.767l8.217 9.351V14.41h2.177zm4.415 9.674c.905 1.319 1.993 2.147 3.542 2.147 1.395 0 2.345-.736 2.345-1.886 0-.966-.567-1.38-1.993-2.024l-1.502-.69c-1.962-.904-3.158-1.947-3.158-3.756 0-2.223 1.932-3.664 4.262-3.664 1.901 0 3.526.966 4.369 2.423l-1.518 1.165c-.72-1.073-1.701-1.64-2.851-1.64s-2.055.567-2.055 1.64c.077 1.073.552 1.257 1.886 1.931l1.518.69c2.192 1.012 3.235 2.07 3.235 3.864 0 2.36-1.932 3.924-4.538 3.924-2.208 0-4.063-1.104-5.105-2.928l1.563-1.196zm17.569-9.888c3.833-.061 7.206 3.112 7.114 6.99.076 3.88-3.281 7.053-7.114 6.991-3.878.062-7.174-3.112-7.098-6.99-.061-3.879 3.25-7.052 7.098-6.99zm.031 1.978c-2.806 0-4.86 2.13-4.86 4.982 0 2.898 2.054 5.029 4.86 5.029 2.775 0 4.86-2.131 4.86-5.029 0-2.82-2.101-4.982-4.86-4.982zm16.373-1.978c3.832-.061 7.205 3.112 7.113 6.99.077 3.88-3.281 7.053-7.113 6.991-3.879.062-7.175-3.112-7.099-6.99-.061-3.879 3.251-7.052 7.099-6.99zm.03 1.978c-2.805 0-4.86 2.13-4.86 4.982 0 2.898 2.055 5.029 4.86 5.029 2.775 0 4.86-2.131 4.86-5.029 0-2.82-2.1-4.982-4.86-4.982zm21.264-1.764v13.768h-.736l-8.248-9.398v9.168h-2.177V14.18h.767l8.217 9.351V14.41h2.177z" fill="#fff"/><defs><radialGradient id="paint0_radial" cx="0" cy="0" r="1" gradientUnits="userSpaceOnUse" gradientTransform="rotate(-32.555 22.499 -50.482) scale(43.0667)"><stop stop-color="#3EF9B6"/><stop offset=".141" stop-color="#28E7C1"/><stop offset=".286" stop-color="#01B4B1"/><stop offset=".448" stop-color="#2BBEEF"/><stop offset=".604" stop-color="#2B8EEF"/><stop offset=".781" stop-color="#2956C8"/><stop offset=".953" stop-color="#842EAF"/></radialGradient><linearGradient id="paint1_linear" x1="7.34" y1="25.547" x2="22.211" y2="24.243" gradientUnits="userSpaceOnUse"><stop offset=".271" stop-color="#1D2671" stop-opacity="0"/><stop offset="1" stop-color="#2B7AEF"/><stop offset="1" stop-color="#314FCD"/></linearGradient></defs></svg>