<svg width="129" height="40" viewBox="0 0 129 40" fill="none" xmlns="http://www.w3.org/2000/svg">
<path d="M17.1319 0C7.67806 0 0 7.67806 0 17.1191C0 26.5602 7.67806 34.251 17.1319 34.251C18.2434 34.251 19.3293 34.1361 20.3897 33.9316L21.2201 40H21.2584L23.4302 24.1584L23.9412 20.4408L24.2989 17.8984L21.3861 17.7451L18.3073 17.579L18.2945 14.3341L18.2561 7.32034L13.4142 12.7499L5.19962 21.9483C4.59917 20.4663 4.26701 18.8438 4.26701 17.1447C4.26701 10.0543 10.0415 4.26701 17.1447 4.26701C24.2478 4.26701 30.0224 10.0415 30.0224 17.1447C30.0224 20.5813 28.6682 23.7113 26.458 26.0236L25.3465 32.1814C30.6611 29.2686 34.2766 23.6218 34.2766 17.1447C34.251 7.67806 26.573 0 17.1319 0ZM13.6314 22.7276L15.4455 22.8298L18.8694 23.0086L19.7892 29.7157C18.9332 29.8946 18.0262 29.9968 17.1191 29.9968C13.0949 29.9968 10.3992 28.0933 10.3992 28.0933L13.6314 22.7276Z" fill="url(#paint0_radial)"/>
<path d="M5.99219 27.1734L10.4125 28.0933L13.6319 22.7403L15.9954 13.2482L7.29529 25.3593L5.99219 27.1734Z" fill="url(#paint1_linear)"/>
<path d="M52.8905 11.8302V23.2898H51.0764V16.2121L47.8442 20.4536H47.231L43.986 16.1994V23.2898H42.1719V11.8174H42.8106L47.5504 18.1285L52.2901 11.8174H52.8905V11.8302Z" fill="white"/>
<path d="M61.3097 11.8302C64.5036 11.7791 67.3142 14.4236 67.2375 17.6558C67.3014 20.888 64.5036 23.5325 61.3097 23.4814C58.0775 23.5325 55.3308 20.888 55.3946 17.6558C55.3435 14.4236 58.0903 11.7791 61.3097 11.8302ZM61.3225 13.4782C58.9846 13.4782 57.2726 15.254 57.2726 17.6303C57.2726 20.0448 58.9846 21.8206 61.3225 21.8206C63.6348 21.8206 65.3723 20.0448 65.3723 17.6303C65.3723 15.2796 63.622 13.4782 61.3225 13.4782Z" fill="white"/>
<path d="M79.0417 12.009V23.4814H78.4285L71.5553 15.65V23.2898H69.7412V11.8174H70.38L77.2276 19.6104V12.009H79.0417Z" fill="white"/>
<path d="M82.7211 20.0703C83.4748 21.169 84.3819 21.8589 85.6722 21.8589C86.8348 21.8589 87.6269 21.2456 87.6269 20.2875C87.6269 19.4826 87.1542 19.1377 85.966 18.6011L84.714 18.0262C83.0788 17.2725 82.0823 16.4037 82.0823 14.8962C82.0823 13.0438 83.692 11.8429 85.6339 11.8429C87.218 11.8429 88.5722 12.6478 89.2749 13.8614L88.0101 14.8324C87.4097 13.9381 86.592 13.4654 85.6339 13.4654C84.6757 13.4654 83.922 13.9381 83.922 14.8324C83.9858 15.7266 84.3819 15.8799 85.4933 16.4421L86.7581 17.017C88.585 17.8601 89.4537 18.7416 89.4537 20.2364C89.4537 22.2038 87.844 23.5069 85.6722 23.5069C83.8325 23.5069 82.2867 22.5871 81.418 21.0668L82.7211 20.0703Z" fill="white"/>
<path d="M97.3624 11.8302C100.556 11.7791 103.367 14.4236 103.29 17.6558C103.354 20.888 100.556 23.5325 97.3624 23.4814C94.1302 23.5325 91.3835 20.888 91.4474 17.6558C91.3963 14.4236 94.1558 11.7791 97.3624 11.8302ZM97.388 13.4782C95.0501 13.4782 93.3381 15.254 93.3381 17.6303C93.3381 20.0448 95.0501 21.8206 97.388 21.8206C99.7003 21.8206 101.438 20.0448 101.438 17.6303C101.438 15.2796 99.6876 13.4782 97.388 13.4782Z" fill="white"/>
<path d="M111.031 11.8302C114.225 11.7791 117.036 14.4236 116.959 17.6558C117.023 20.888 114.225 23.5325 111.031 23.4814C107.799 23.5325 105.052 20.888 105.116 17.6558C105.065 14.4236 107.825 11.7791 111.031 11.8302ZM111.057 13.4782C108.719 13.4782 107.007 15.254 107.007 17.6303C107.007 20.0448 108.719 21.8206 111.057 21.8206C113.369 21.8206 115.107 20.0448 115.107 17.6303C115.107 15.2796 113.356 13.4782 111.057 13.4782Z" fill="white"/>
<path d="M128.777 12.009V23.4814H128.164L121.291 15.65V23.2898H119.477V11.8174H120.115L126.963 19.6104V12.009H128.777Z" fill="white"/>
<defs>
<radialGradient id="paint0_radial" cx="0" cy="0" r="1" gradientUnits="userSpaceOnUse" gradientTransform="translate(25.5836 3.479) rotate(-32.5554) scale(35.8889)">
<stop stop-color="#3EF9B6"/>
<stop offset="0.140625" stop-color="#28E7C1"/>
<stop offset="0.286458" stop-color="#01B4B1"/>
<stop offset="0.447917" stop-color="#2BBEEF"/>
<stop offset="0.604167" stop-color="#2B8EEF"/>
<stop offset="0.78125" stop-color="#2956C8"/>
<stop offset="0.953125" stop-color="#842EAF"/>
</radialGradient>
<linearGradient id="paint1_linear" x1="6.1175" y1="21.2892" x2="18.51" y2="20.2022" gradientUnits="userSpaceOnUse">
<stop offset="0.2709" stop-color="#1D2671" stop-opacity="0"/>
<stop offset="1" stop-color="#2B7AEF"/>
<stop offset="1" stop-color="#314FCD"/>
</linearGradient>
</defs>
</svg>
