<svg width="64" height="61" fill="none" xmlns="http://www.w3.org/2000/svg"><path opacity=".15" fill-rule="evenodd" clip-rule="evenodd" d="M12.277 0a24.572 24.572 0 014.092 12.056 24.448 24.448 0 01-1.298 9.698A24.989 24.989 0 013.68 35.347 25.317 25.317 0 010 37.05a25.628 25.628 0 016.723-.892h.037C20.665 36.16 31.968 47.254 32 61v-.095c.08-12.916 10.163-23.522 23.012-24.647.72-.063 1.448-.096 2.184-.099h.081c2.328 0 4.582.31 6.723.892-9.593-3.54-16.422-12.665-16.422-23.363a24.58 24.58 0 014.1-13.622c-8.4 10.273-23.595 12.38-34.52 4.524A25.277 25.277 0 0112.277 0zm8.629 12.344a13.82 13.82 0 012.302 6.782 13.751 13.751 0 01-1.168 6.56 14.057 14.057 0 01-5.97 6.54c-.659.372-1.35.693-2.07.959a14.417 14.417 0 013.782-.502h.02c7.822 0 14.18 6.241 14.198 13.973v-.053c.045-7.266 5.717-13.231 12.944-13.864a14.62 14.62 0 011.228-.056h.046c1.31 0 2.578.175 3.782.502-5.396-1.991-9.237-7.124-9.237-13.142 0-2.827.848-5.46 2.306-7.662-4.725 5.778-13.272 6.963-19.418 2.545a14.223 14.223 0 01-2.745-2.582z" fill="#fff"/></svg>