<svg width="74" height="64" fill="none" xmlns="http://www.w3.org/2000/svg"><path opacity=".15" fill-rule="evenodd" clip-rule="evenodd" d="M33.106 9.764C27.028 8.655 21.829 5.026 18.632 0c5.386 10.225 1.807 22.927-8.193 28.865A21.711 21.711 0 01.252 31.906c2.952.128 5.751.843 8.285 2.03a21.489 21.489 0 019.673 8.874c3.83 6.693 3.777 14.55.476 20.918 3.878-6.037 10.652-10.035 18.36-10.035a21.707 21.707 0 0111.52 3.287 21.612 21.612 0 015.515 4.906A21.85 21.85 0 0155.578 64a21.66 21.66 0 01-1.508-3.522 21.813 21.813 0 01-1.077-6.785 21.703 21.703 0 015.404-14.37c3.805-4.34 9.303-7.156 15.462-7.418a21.755 21.755 0 01-15.841-7.902 21.72 21.72 0 01-5.025-13.926c0-3.478.815-6.767 2.263-9.684a21.698 21.698 0 01-7.285 6.838 21.751 21.751 0 01-14.865 2.533zm1.5 8.516c-3.71-.684-6.884-2.923-8.836-6.025 3.289 6.31 1.104 14.147-5.001 17.81a13.137 13.137 0 01-6.22 1.876 13.15 13.15 0 015.059 1.254 13.17 13.17 0 015.905 5.475 13.589 13.589 0 01.29 12.907c2.368-3.725 6.503-6.192 11.209-6.192a13.144 13.144 0 017.033 2.028 13.227 13.227 0 013.367 3.027c.329.416.635.851.914 1.305a13.437 13.437 0 01-.92-2.173 13.591 13.591 0 01-.658-4.187c0-1.36.199-2.672.569-3.908a13.431 13.431 0 012.73-4.96c2.323-2.676 5.679-4.414 9.439-4.576-3.893-.174-7.349-2.033-9.67-4.875a13.489 13.489 0 01-3.068-8.593c0-2.146.497-4.175 1.381-5.975a13.305 13.305 0 01-4.448 4.219 13.157 13.157 0 01-9.074 1.563z" fill="#fff"/></svg>