<svg width="239" height="118" fill="none" xmlns="http://www.w3.org/2000/svg"><g opacity=".15" fill-rule="evenodd" clip-rule="evenodd" fill="#fff"><path d="M122 58.516c32.288-.035 58.451-26.22 58.451-58.516 0 32.317 26.198 58.516 58.516 58.516-32.318 0-58.516 26.198-58.516 58.515 0-32.295-26.164-58.48-58.451-58.515zm26 0c17.941-.02 32.48-14.57 32.48-32.516 0 17.958 14.558 32.516 32.515 32.516-17.957 0-32.515 14.557-32.515 32.515 0-17.946-14.539-32.496-32.48-32.515z"/><path d="M55.031 58.516c26.2-.029 47.432-21.277 47.432-47.485 0 26.225 21.259 47.485 47.484 47.485-26.224 0-47.484 21.26-47.484 47.484 0-26.207-21.231-47.456-47.432-47.484zm20.969 0C90.63 58.5 102.486 46.634 102.486 32c0 14.644 11.872 26.516 26.516 26.516-14.644 0-26.516 11.871-26.516 26.515 0-14.634-11.855-26.5-26.486-26.515z"/><path d="M0 58.516c21.787-.024 39.44-17.693 39.44-39.485 0 21.807 17.678 39.485 39.485 39.485-21.806 0-39.484 17.678-39.484 39.484C39.44 76.208 21.785 58.54 0 58.516zm19 0c11.303-.013 20.462-9.18 20.462-20.485 0 11.313 9.17 20.485 20.484 20.485-11.313 0-20.484 9.17-20.484 20.484 0-11.306-9.16-20.472-20.462-20.484z"/></g></svg>