<svg width="155" height="48" viewBox="0 0 155 48" fill="none" xmlns="http://www.w3.org/2000/svg">
<path d="M20.5583 0C9.21367 0 0 9.21367 0 20.543C0 31.8722 9.21367 41.1012 20.5583 41.1012C21.892 41.1012 23.1951 40.9633 24.4676 40.718L25.4641 48H25.5101L28.1163 28.9901L28.7295 24.5289L29.1587 21.4781L25.6634 21.2942L21.9687 21.0949L21.9534 17.2009L21.9074 8.78441L16.0971 15.2999L6.23954 26.3379C5.519 24.5596 5.12041 22.6126 5.12041 20.5736C5.12041 12.0652 12.0498 5.12041 20.5736 5.12041C29.0974 5.12041 36.0268 12.0498 36.0268 20.5736C36.0268 24.6975 34.4018 28.4535 31.7496 31.2284L30.4158 38.6177C36.7934 35.1223 41.1319 28.3462 41.1319 20.5736C41.1012 9.21367 31.8876 0 20.5583 0ZM16.3577 27.2731L18.5347 27.3957L22.6432 27.6103L23.747 35.6589C22.7199 35.8735 21.6314 35.9962 20.543 35.9962C15.7138 35.9962 12.4791 33.7119 12.4791 33.7119L16.3577 27.2731Z" fill="url(#paint0_radial)"/>
<path d="M7.18994 32.6081L12.4943 33.7119L16.3576 27.2884L19.1938 15.8978L8.75366 30.4312L7.18994 32.6081Z" fill="url(#paint1_linear)"/>
<path d="M63.4683 14.1961V27.9476H61.2914V19.4545L57.4127 24.5443H56.6769L52.7829 19.4392V27.9476H50.606V14.1808H51.3725L57.0601 21.7541L62.7478 14.1808H63.4683V14.1961Z" fill="white"/>
<path d="M73.571 14.1961C77.4037 14.1348 80.7764 17.3082 80.6844 21.1868C80.7611 25.0655 77.4037 28.2389 73.571 28.1776C69.6924 28.2389 66.3963 25.0655 66.473 21.1868C66.4117 17.3082 69.7077 14.1348 73.571 14.1961ZM73.5864 16.1737C70.7809 16.1737 68.7266 18.3047 68.7266 21.1562C68.7266 24.0537 70.7809 26.1846 73.5864 26.1846C76.3612 26.1846 78.4462 24.0537 78.4462 21.1562C78.4462 18.3354 76.3459 16.1737 73.5864 16.1737Z" fill="white"/>
<path d="M94.8501 14.4108V28.1776H94.1142L85.8664 18.78V27.9476H83.6895V14.1808H84.456L92.6732 23.5324V14.4108H94.8501Z" fill="white"/>
<path d="M99.2654 24.0843C100.17 25.4028 101.258 26.2306 102.807 26.2306C104.202 26.2306 105.152 25.4948 105.152 24.345C105.152 23.3791 104.585 22.9652 103.159 22.3213L101.657 21.6315C99.6946 20.727 98.4989 19.6845 98.4989 17.8755C98.4989 15.6525 100.431 14.2115 102.761 14.2115C104.662 14.2115 106.287 15.1773 107.13 16.6337L105.612 17.7988C104.892 16.7257 103.911 16.1584 102.761 16.1584C101.611 16.1584 100.706 16.7257 100.706 17.7988C100.783 18.872 101.258 19.0559 102.592 19.7305L104.11 20.4203C106.302 21.4322 107.345 22.49 107.345 24.2836C107.345 26.6445 105.413 28.2083 102.807 28.2083C100.599 28.2083 98.7441 27.1045 97.7017 25.2801L99.2654 24.0843Z" fill="white"/>
<path d="M116.834 14.1961C120.667 14.1348 124.04 17.3082 123.948 21.1868C124.024 25.0655 120.667 28.2389 116.834 28.1776C112.956 28.2389 109.66 25.0655 109.736 21.1868C109.675 17.3082 112.986 14.1348 116.834 14.1961ZM116.865 16.1737C114.059 16.1737 112.005 18.3047 112.005 21.1562C112.005 24.0537 114.059 26.1846 116.865 26.1846C119.64 26.1846 121.725 24.0537 121.725 21.1562C121.725 18.3354 119.624 16.1737 116.865 16.1737Z" fill="white"/>
<path d="M133.238 14.1961C137.07 14.1348 140.443 17.3082 140.351 21.1868C140.428 25.0655 137.07 28.2389 133.238 28.1776C129.359 28.2389 126.063 25.0655 126.139 21.1868C126.078 17.3082 129.39 14.1348 133.238 14.1961ZM133.268 16.1737C130.463 16.1737 128.408 18.3047 128.408 21.1562C128.408 24.0537 130.463 26.1846 133.268 26.1846C136.043 26.1846 138.128 24.0537 138.128 21.1562C138.128 18.3354 136.028 16.1737 133.268 16.1737Z" fill="white"/>
<path d="M154.532 14.4108V28.1776H153.796L145.548 18.78V27.9476H143.371V14.1808H144.138L152.355 23.5324V14.4108H154.532Z" fill="white"/>
<defs>
<radialGradient id="paint0_radial" cx="0" cy="0" r="1" gradientUnits="userSpaceOnUse" gradientTransform="translate(30.7003 4.1748) rotate(-32.5554) scale(43.0667)">
<stop stop-color="#842EB0"/>
<stop offset="0.604167" stop-color="#2B8EEF"/>
<stop offset="0.78125" stop-color="#2956C8"/>
<stop offset="0.953125" stop-color="#3DF8B7"/>
</radialGradient>
<linearGradient id="paint1_linear" x1="7.34032" y1="25.5471" x2="22.2114" y2="24.2426" gradientUnits="userSpaceOnUse">
<stop offset="0.2709" stop-color="#1D2671" stop-opacity="0"/>
<stop offset="1" stop-color="#2B7AEF"/>
<stop offset="1" stop-color="#314FCD"/>
</linearGradient>
</defs>
</svg>
