<svg width="108" height="76" fill="none" xmlns="http://www.w3.org/2000/svg"><path d="M49.506 27.981h-9.273l-.544 6.746h9.636l.181-6.746zm19.091 6.746l-.545-6.746H58.78l.182 6.746h9.636zm-1.508 20.237h8.63l1.606-6.745h-9.273l-.963 6.745zm-17.583-6.745l.322 6.745h8.63l.321-6.745h-9.273zm-.181-6.747h-9.637l.545 6.746h9.273l-.181-6.746zm9.455 6.746h9.272l.545-6.746h-9.636l-.182 6.746zM26.461 75.2h5.033l-6.65-6.745h-6.51l8.127 6.745zM71.758 1h-5.032l3.694 6.745h6.511L71.758 1zm10.067 0h-5.033l6.65 6.745h6.51L81.825 1zm19.786 20.237l-5.063-6.746h-7.71l4.143 6.746h8.63zm5.532 13.49l-2-6.746H95.87l1.637 6.746h9.636zM61.693 1H56.66l.739 6.745h6.51L61.693 1zm43.45 47.218l2-6.746h-9.636l-1.637 6.746h9.273zM26.461 1l-8.127 6.745h6.51L31.495 1H26.46z" stroke="#fff" stroke-opacity=".5" stroke-miterlimit="10"/><path d="M58.962 34.727h-9.637v6.745h9.637v-6.745zM51.627 1h-5.033l-2.217 6.745h6.511L51.627 1zM41.56 1h-5.032l-5.173 6.745h6.512L41.56 1zM11.738 14.491l-5.063 6.746h8.63l4.143-6.746h-7.71zM36.528 75.2h5.033l-3.694-6.745h-6.512l5.173 6.745zM1.143 41.472l2 6.746h9.273l-1.636-6.746H1.143zM96.548 61.71l5.063-6.747h-8.63l-4.143 6.746h7.71zM30.96 48.219l1.607 6.745h8.63l-.963-6.745H30.96zM6.675 54.963l5.063 6.746h7.71l-4.143-6.746h-8.63zM81.825 75.2l8.127-6.745h-6.51l-6.65 6.745h5.033zm-15.099 0h5.032l5.173-6.745H70.42L66.726 75.2zm-20.132 0h5.033l-.739-6.745h-6.51l2.216 6.745zm10.066 0h5.033l2.216-6.745h-6.51l-.74 6.745zm40.847-40.473H87.87v6.745h9.637v-6.745zm-77.091 0H10.78v6.745h9.636v-6.745zm29.872 26.982l.6 6.746h6.51l.6-6.746h-7.71zm15.42 0l-1.799 6.746h6.51l3-6.746h-7.711zm18.642-6.745h8.63l2.89-6.745h-9.273l-2.248 6.745zm-49.482 6.745l2.999 6.746h6.51l-1.798-6.746h-7.71z" stroke="#fff" stroke-opacity=".5" stroke-miterlimit="10"/><path d="M21.687 48.219h-9.272l2.89 6.745h8.63l-2.248-6.745zm-2.239 13.49l5.397 6.746h6.51l-4.196-6.746h-7.71zm67.149-33.727h9.272l-2.89-6.745h-8.63l2.248 6.745zm-8.363 6.745h-9.636v6.745h9.636v-6.745zM31.355 7.745h-6.51l-5.397 6.746h7.71l4.197-6.746zm-7.419 13.492h-8.63l-2.89 6.745h9.271l2.249-6.745zm64.902-6.747l-5.396-6.745h-6.51l4.196 6.746h7.71zM12.416 27.981H3.143l-2 6.746h9.636l1.637-6.746zM73.418 14.49L70.42 7.746h-6.51l1.798 6.746h7.71zm-30.839 0l1.798-6.745h-6.51l-2.999 6.746h7.71zm15.419 0l-.6-6.745h-6.51l-.6 6.746h7.71zm18.933 53.965h6.51l5.397-6.746h-7.71l-4.197 6.746z" stroke="#fff" stroke-opacity=".5" stroke-miterlimit="10"/><path d="M23.936 54.963l3.222 6.746h7.71l-2.302-6.746h-8.63zm7.024-26.982h-9.273l-1.271 6.746h9.636l.908-6.746zm-.908 13.491h-9.636l1.271 6.746h9.273l-.908-6.746zm28.406 13.491l-.46 6.746h7.71l1.38-6.746h-8.63zm-17.26 0l1.381 6.746h7.71l-.46-6.746h-8.631zm36.127-26.981l-1.606-6.745h-8.63l.963 6.745h9.273zm-18.545 0l-.322-6.745h-8.63l-.322 6.745h9.273zm-17.583-6.745h-8.63l-1.606 6.745h9.273l.963-6.745zm-1.507 13.49h-9.637v6.745h9.636v-6.745zm10.138-13.49l.46-6.746H42.58l-1.381 6.746h8.63zm17.261 0l-1.382-6.746h-7.709l.46 6.746h8.63zm-32.221-6.746h-7.71l-3.222 6.746h8.63l2.302-6.746zm43.366 20.236h9.636l-1.272-6.746h-9.273l.909 6.746zm-.909 13.491h9.273l1.272-6.746h-9.636l-.909 6.746zm7.025-26.981l-3.222-6.746h-7.71l2.302 6.746h8.63zM73.418 61.71h7.71l3.222-6.747h-8.63l-2.302 6.746z" stroke="#fff" stroke-opacity=".5" stroke-miterlimit="10"/></svg>