<svg width="150" height="64" viewBox="0 0 150 64" fill="none" xmlns="http://www.w3.org/2000/svg">
<path opacity="0.15" fill-rule="evenodd" clip-rule="evenodd" d="M116.753 9.76435C122.831 8.65538 128.03 5.02647 131.227 0C125.84 10.2246 129.42 22.9267 139.42 28.8654C140.593 29.5648 141.838 30.1573 143.14 30.6291C145.172 31.3652 147.345 31.8079 149.607 31.906C146.655 32.0341 143.856 32.749 141.322 33.9368C137.387 35.7537 133.965 38.7636 131.649 42.8098C127.819 49.5027 127.872 57.3606 131.173 63.7277C127.295 57.6915 120.521 53.6927 112.813 53.6927C108.833 53.6927 105.101 54.7596 101.888 56.6227C101.687 56.7388 101.489 56.8578 101.292 56.9795C99.6255 58.0141 98.1437 59.2491 96.8594 60.6304C96.4817 61.0366 96.121 61.4555 95.7776 61.8857C95.2386 62.5591 94.7383 63.2647 94.2811 64C94.8824 62.8811 95.3876 61.7035 95.7884 60.4782C96.4895 58.3363 96.8655 56.0472 96.8655 53.6927C96.8655 51.4894 96.5397 49.3629 95.9333 47.3591C95.0234 44.3523 93.4818 41.6217 91.4612 39.3219C88.3098 35.7277 83.9961 33.1783 79.1069 32.2604C78.0303 32.4953 76.9977 32.8483 76.0234 33.3051C73.3716 34.5295 71.065 36.5581 69.5044 39.285C66.923 43.7956 66.9589 49.0914 69.1837 53.3824C66.5698 49.3144 62.0046 46.6194 56.8101 46.6194C54.1273 46.6194 51.6124 47.3384 49.4474 48.5941C49.3118 48.6723 49.1779 48.7525 49.0457 48.8345C47.9223 49.5318 46.9236 50.3642 46.0581 51.295C45.8035 51.5688 45.5604 51.8512 45.329 52.141C44.9658 52.5949 44.6286 53.0704 44.3205 53.566C44.7257 52.8119 45.0662 52.0182 45.3363 51.1925C45.8088 49.7489 46.0622 48.2062 46.0622 46.6194C46.0622 45.1345 45.8427 43.7014 45.434 42.351C44.8207 40.3246 43.7818 38.4843 42.42 36.9343C40.0539 34.2357 36.7154 32.411 32.9515 32.007C31.8445 32.1281 30.7919 32.4306 29.8243 32.8843C28.0278 33.7138 26.4651 35.0881 25.4079 36.9354C23.6591 39.9912 23.6834 43.5789 25.1906 46.486C23.4198 43.73 20.3271 41.9043 16.808 41.9043C14.9904 41.9043 13.2867 42.3914 11.82 43.242C11.7281 43.295 11.6375 43.3493 11.5479 43.4049C10.7868 43.8773 10.1102 44.4412 9.52386 45.0718C9.35141 45.2573 9.18671 45.4486 9.02994 45.645C8.78387 45.9524 8.55542 46.2746 8.34668 46.6103C8.62122 46.0994 8.8519 45.5618 9.03488 45.0023C9.35495 44.0244 9.52664 42.9793 9.52664 41.9043C9.52664 40.8983 9.3779 39.9274 9.10104 39.0125C8.68561 37.6397 7.98172 36.393 7.0592 35.3429C5.32233 33.362 2.81213 32.0762 0 31.9567C2.91171 31.8278 5.49609 30.4516 7.23267 28.3488C8.66525 26.6241 9.52673 24.408 9.52673 21.9907C9.52673 20.4025 9.15488 18.9011 8.49347 17.5689C9.31931 18.8177 10.4384 19.8939 11.82 20.6911C13.9565 21.9181 16.3588 22.2668 18.6067 21.8478C21.3819 21.3415 23.7555 19.6846 25.2153 17.3896C22.7558 22.0579 24.3903 27.8573 28.9557 30.5688C29.4915 30.8881 30.0598 31.1586 30.6545 31.3741C31.3235 31.6164 32.0259 31.7891 32.7529 31.8834C36.7422 31.503 40.2634 29.5318 42.6761 26.6103C44.7907 24.0645 46.0623 20.7933 46.0623 17.2252C46.0623 14.8808 45.5135 12.6646 44.5371 10.6981C45.7562 12.5415 47.408 14.1302 49.4474 15.3068C52.6011 17.118 56.1471 17.6327 59.4652 17.0142C63.5616 16.2668 67.0652 13.8211 69.2201 10.4336C65.5896 17.3244 68.0023 25.8849 74.7413 29.8872C75.5322 30.3586 76.3711 30.7579 77.2489 31.0759C77.7986 31.275 78.3636 31.4423 78.9416 31.5754C84.1061 30.6388 88.6338 27.8869 91.8412 24.003C94.9789 20.2255 96.8657 15.3718 96.8657 10.0774C96.8657 6.59878 96.0513 3.31038 94.6026 0.392516C96.4114 3.12776 98.8623 5.485 101.888 7.23094C106.568 9.91836 111.83 10.682 116.753 9.76435ZM115.252 18.2801C118.963 17.5959 122.137 15.3568 124.089 12.2553C120.8 18.5641 122.985 26.4016 129.09 30.0659C129.806 30.4974 130.566 30.863 131.361 31.1541C132.602 31.6083 133.928 31.8815 135.309 31.942C133.507 32.0211 131.798 32.4621 130.251 33.1951C127.849 34.3161 125.76 36.1733 124.346 38.6699C122.008 42.7995 122.04 47.6481 124.056 51.5766C121.688 47.8522 117.552 45.3849 112.847 45.3849C110.417 45.3849 108.139 46.0431 106.177 47.1927C106.055 47.2644 105.933 47.3378 105.814 47.4129C104.796 48.0512 103.891 48.8133 103.107 49.6655C102.877 49.9162 102.657 50.1747 102.447 50.4401C102.118 50.8556 101.812 51.291 101.533 51.7447C101.9 51.0543 102.209 50.3277 102.454 49.5716C102.881 48.25 103.111 46.8376 103.111 45.3849C103.111 44.0254 102.912 42.7133 102.542 41.4769C101.986 39.6217 101.045 37.9368 99.8118 36.5178C97.4894 33.8407 94.133 32.103 90.3729 31.9415C94.2662 31.7673 97.7218 29.9076 100.044 27.0657C101.959 24.7349 103.111 21.74 103.111 18.4733C103.111 16.3269 102.614 14.2979 101.73 12.4975C102.834 14.1852 104.33 15.6397 106.177 16.717C109.034 18.3752 112.246 18.8464 115.252 18.2801ZM58.4537 22.7534C60.9546 22.2922 63.0935 20.7832 64.409 18.693C62.1926 22.9448 63.6655 28.2268 67.7796 30.6963C68.2625 30.9872 68.7746 31.2335 69.3105 31.4297C70.1465 31.7358 71.0404 31.9199 71.971 31.9607C70.7566 32.014 69.6048 32.3113 68.5623 32.8052C66.9434 33.5607 65.5353 34.8124 64.5825 36.4949C63.0066 39.2781 63.0285 42.5457 64.3868 45.1934C62.791 42.6833 60.004 41.0205 56.8328 41.0205C55.195 41.0205 53.6597 41.4641 52.338 42.2389C52.2552 42.2871 52.1735 42.3366 52.0927 42.3872C51.4069 42.8174 50.7973 43.331 50.2689 43.9054C50.1135 44.0743 49.965 44.2485 49.8238 44.4274C49.602 44.7074 49.3962 45.0009 49.2081 45.3066C49.4554 44.8413 49.6633 44.3516 49.8282 43.8421C50.1166 42.9514 50.2714 41.9995 50.2714 41.0205C50.2714 40.1042 50.1373 39.2199 49.8878 38.3867C49.5135 37.1364 48.8792 36.0009 48.0479 35.0445C46.4827 33.2404 44.2207 32.0693 41.6866 31.9604C44.3104 31.843 46.6393 30.5896 48.2042 28.6744C49.4951 27.1036 50.2715 25.0852 50.2715 22.8836C50.2715 21.437 49.9363 20.0696 49.3403 18.8562C50.0845 19.9937 51.0929 20.9739 52.338 21.6999C54.2633 22.8174 56.4281 23.135 58.4537 22.7534ZM21.9559 22.985C21.0647 24.401 19.6157 25.4234 17.9214 25.7358C16.5491 25.9943 15.0826 25.7792 13.7782 25.0221C12.9348 24.5302 12.2516 23.8662 11.7474 23.0956C12.1512 23.9176 12.3782 24.844 12.3782 25.824C12.3782 27.3155 11.8523 28.6829 10.9777 29.747C9.91757 31.0445 8.33984 31.8936 6.56226 31.9732C8.27905 32.0469 9.81149 32.8403 10.8718 34.0626C11.435 34.7105 11.8647 35.4797 12.1183 36.3268C12.2874 36.8913 12.3782 37.4903 12.3782 38.1111C12.3782 38.7743 12.2733 39.4192 12.0779 40.0226C11.9662 40.3678 11.8254 40.6996 11.6578 41.0148C11.7852 40.8076 11.9247 40.6089 12.0749 40.4191C12.1707 40.298 12.2712 40.1799 12.3765 40.0655C12.7344 39.6764 13.1475 39.3284 13.6121 39.037C13.6436 39.0172 13.6754 38.9977 13.7074 38.9784C13.7309 38.9643 13.7545 38.9503 13.7782 38.9365C14.6736 38.4116 15.7137 38.1111 16.8233 38.1111C18.9717 38.1111 20.8598 39.2376 21.9409 40.9381C21.0207 39.1444 21.0058 36.9307 22.0735 35.0452C22.7189 33.9053 23.6729 33.0574 24.7697 32.5455C25.4759 32.2109 26.2562 32.0095 27.0789 31.9734C26.4484 31.9458 25.8429 31.8211 25.2765 31.6137C24.9134 31.4808 24.5665 31.3139 24.2394 31.1168C21.4522 29.4438 20.4544 25.8654 21.9559 22.985Z" fill="white"/>
</svg>
