<svg width="202" height="202" fill="none" xmlns="http://www.w3.org/2000/svg"><path opacity=".5" fill-rule="evenodd" clip-rule="evenodd" d="M87.6.504a.5.5 0 01.563.43l6.6 49.506a.5.5 0 11-.991.132l-6.6-49.506A.5.5 0 0187.6.504zM101 1.978a.5.5 0 01.5.5v47.594a.5.5 0 01-1 0V2.478a.5.5 0 01.5-.5zm21.905 1.454a.5.5 0 01.378.597l-10.629 47.348a.5.5 0 01-.976-.219L122.307 3.81a.5.5 0 01.598-.378zm9.175.232a.5.5 0 01.324.628l-15.415 48.276a.5.5 0 01-.953-.304l15.415-48.276a.5.5 0 01.629-.324zm3.372 3.867a.5.5 0 01.296.642l-16.636 45.132a.5.5 0 01-.939-.346L134.81 7.827a.5.5 0 01.642-.296zm11.516 6.27a.5.5 0 01.209.676L125.26 56.053a.5.5 0 11-.884-.466l21.916-41.577a.5.5 0 01.676-.209zm11.037 6.805a.5.5 0 01.119.697L130.99 59.571a.5.5 0 01-.816-.578l27.134-38.268a.5.5 0 01.697-.119zm-3.45 11.473a.5.5 0 01.089.702l-21.852 28.122a.5.5 0 01-.79-.614l21.852-28.122a.5.5 0 01.701-.088zm10.549 5.62a.5.5 0 01-.005.707l-27.281 26.94a.5.5 0 11-.703-.712l27.282-26.94a.5.5 0 01.707.005zm3.389 2.23a.5.5 0 01-.035.706l-29.099 26.33a.5.5 0 11-.67-.742l29.098-26.33a.5.5 0 01.706.035zM9.44 100.5a.5.5 0 100 1h39.986a.5.5 0 000-1H9.44zm143.134 0a.5.5 0 100 1h39.987a.5.5 0 000-1h-39.987zm-102.598 2.7a.5.5 0 01-.477.521l-48.477 2.09a.501.501 0 01-.044-.999l48.477-2.09a.5.5 0 01.522.478zm-.31 2.736a.5.5 0 00-.086-.997l-44.384 3.836a.5.5 0 00.086.997l44.384-3.836zm.695 1.647a.5.5 0 01-.43.56l-47.783 6.212a.5.5 0 01-.13-.992l47.783-6.212a.5.5 0 01.56.432zm-.07 2.753a.5.5 0 00-.17-.985l-36.403 6.338a.5.5 0 10.172.985l36.402-6.338zm.839 1.58a.5.5 0 01-.382.595l-45.015 9.856a.5.5 0 11-.214-.976l45.016-9.856c.27-.06.536.111.595.381zm.172 2.75a.5.5 0 10-.256-.966L8.07 125.073a.5.5 0 10.256.967l42.976-11.373zm.977 1.502a.5.5 0 01-.328.626l-30.717 9.564a.5.5 0 11-.297-.955l30.716-9.564a.5.5 0 01.626.329zm.415 2.724a.5.5 0 00-.338-.941L16.76 130.746a.5.5 0 10.339.941l35.595-12.794zm1.108 1.412a.5.5 0 01-.273.652L8.108 139.535a.5.5 0 11-.379-.925l45.421-18.579a.5.5 0 01.652.274zm.654 2.677a.5.5 0 10-.419-.908L11.113 141.84a.5.5 0 10.418.908l42.926-19.766zm1.232 1.311a.501.501 0 01-.216.674l-41.336 21.248a.5.5 0 01-.457-.89l41.336-21.248a.5.5 0 01.673.216zm.886 2.609a.5.5 0 00-.495-.869l-38.346 21.865a.5.5 0 10.495.868l38.346-21.864zm1.347 1.199a.5.5 0 01-.157.689L19.23 153.03a.499.499 0 11-.532-.846l38.532-24.24a.5.5 0 01.69.157zm1.112 2.525a.5.5 0 00-.568-.823l-40.139 27.754a.5.5 0 00.569.823l40.138-27.754zm1.447 1.076a.5.5 0 01-.096.7l-29.166 22.1a.5.5 0 11-.604-.797l29.166-22.1a.5.5 0 01.7.097zm1.33 2.419a.5.5 0 10-.638-.77l-24.154 20.016a.5.5 0 00.638.77L61.81 134.12zm1.501 1.656a.5.5 0 00-.67-.742l-29.099 26.33a.5.5 0 10.67.741l29.1-26.329zm1.574 1.589a.5.5 0 10-.703-.711L36.9 163.595a.5.5 0 10.703.711l27.282-26.94zm93.949-98.69a.5.5 0 01.026.706l-22.651 24.41a.5.5 0 01-.733-.68l22.651-24.41a.5.5 0 01.707-.026zm-92.31 100.212a.5.5 0 00-.733-.68l-22.651 24.41a.5.5 0 10.733.68l22.651-24.41zm88.219-101.135a.5.5 0 01.057.705l-20.268 23.854a.5.5 0 01-.762-.647l20.268-23.854a.5.5 0 01.705-.058zM68.23 140.335a.5.5 0 10-.762-.647L47.2 163.542a.5.5 0 00.762.648l20.268-23.855zm1.768 1.376a.5.5 0 00-.79-.614l-21.852 28.122a.5.5 0 00.79.614l21.852-28.122zm1.827 1.296a.5.5 0 10-.815-.578l-27.134 38.268a.5.5 0 10.816.578l27.133-38.268zm80.339-121.313a.5.5 0 01.149.691l-23.18 35.93a.5.5 0 11-.84-.542l23.18-35.93a.5.5 0 01.691-.149zM73.707 144.227a.5.5 0 10-.84-.542l-23.18 35.93a.5.5 0 10.84.542l23.18-35.93zm69.211-114.923a.5.5 0 01.179.684l-15.876 27.154a.5.5 0 01-.864-.504l15.877-27.154a.5.5 0 01.684-.18zM75.643 145.363a.5.5 0 10-.864-.505l-15.876 27.154a.5.5 0 00.863.505l15.877-27.154zm1.981 1.05a.5.5 0 10-.884-.466l-21.917 41.576a.5.5 0 10.885.466l21.916-41.576zM136.193 26.47a.5.5 0 01.239.666l-13.179 27.912a.5.5 0 01-.904-.427l13.179-27.912a.5.5 0 01.665-.239zM79.651 147.38a.5.5 0 00-.904-.427l-13.179 27.912a.5.5 0 00.904.427l13.18-27.912zm54.78-126.08a.5.5 0 01.268.655l-13.497 32.176a.5.5 0 11-.922-.386l13.497-32.177a.5.5 0 01.654-.267zM81.72 148.256a.5.5 0 10-.922-.386L67.3 180.045a.5.5 0 00.922.387l13.497-32.177zm2.106.786a.5.5 0 10-.938-.346l-16.636 45.132a.5.5 0 00.938.346l16.636-45.132zm2.138.695a.5.5 0 00-.953-.305l-15.414 48.276a.5.5 0 00.952.305l15.415-48.276zm37.223-130.504a.5.5 0 01.352.613l-8.705 32.082a.5.5 0 01-.965-.261l8.705-32.082a.5.5 0 01.613-.352zM88.131 150.335a.5.5 0 10-.965-.262l-8.705 32.082a.5.5 0 00.965.262l8.705-32.082zm2.191.506a.5.5 0 00-.975-.219l-10.63 47.348a.5.5 0 00.976.22l10.63-47.349zM117.317 9.618a.5.5 0 01.404.58l-7.271 40.726a.5.5 0 11-.984-.176l7.271-40.726a.5.5 0 01.58-.404zM92.534 151.252a.5.5 0 10-.984-.176l-7.271 40.726a.5.5 0 10.984.176l7.271-40.726zM113.988 3.577a.499.499 0 01.429.561l-6.189 46.428a.5.5 0 01-.991-.132l6.189-46.428a.5.5 0 01.562-.43zM94.763 151.566a.5.5 0 00-.991-.132l-6.19 46.428a.5.5 0 00.992.132l6.189-46.428zm13.495-132.498a.499.499 0 01.454.542l-2.718 30.696a.5.5 0 11-.996-.088l2.718-30.696a.5.5 0 01.542-.454zM97.002 151.782a.5.5 0 00-.996-.088l-2.718 30.696a.5.5 0 10.996.088l2.718-30.696zM104.8 15.025a.5.5 0 01.478.521l-1.529 34.595a.5.5 0 01-.999-.045l1.529-34.594a.5.5 0 01.521-.477zm-5.552 136.879a.5.5 0 00-.998-.044l-1.53 34.594a.5.5 0 101 .044l1.528-34.594zm2.251.024a.5.5 0 00-1 0v47.594a.5.5 0 101 0v-47.594zM96.65 2.605a.5.5 0 01.521.477L99.25 50.1a.5.5 0 11-.999.044L96.172 3.126a.5.5 0 01.478-.521zm7.1 149.251a.5.5 0 10-.999.044l2.078 47.018a.5.5 0 10.999-.044l-2.078-47.018zm45.973-35.687a.5.5 0 01.626-.329l47.608 14.824a.5.5 0 11-.298.955l-47.608-14.824a.5.5 0 01-.328-.626zm51.299-18.981a.501.501 0 00-.044-1l-48.476 2.09a.5.5 0 10.043 1l48.477-2.09zM93.665 18.208a.5.5 0 01.542.454l2.797 31.56a.5.5 0 11-.996.088L93.21 18.75a.5.5 0 01.454-.542zm12.327 133.482a.5.5 0 10-.996.089l2.797 31.56a.5.5 0 10.996-.089l-2.797-31.56zm44.87-39.767a.5.5 0 01.596-.382l46.741 10.222a.5.5 0 01-.214.977l-46.741-10.222a.5.5 0 01-.382-.595zm45.952-18.69a.5.5 0 10-.086-.997l-44.418 3.832a.5.5 0 10.086.996l44.418-3.832zm-88.586 58.195a.5.5 0 00-.991.132l6.6 49.506a.5.5 0 00.992-.132l-6.601-49.506zm92.184-63.353a.5.5 0 01-.431.56l-47.782 6.212a.5.5 0 11-.129-.991l47.782-6.212a.5.5 0 01.56.431zm-48.526 21.279a.5.5 0 10-.172.985l36.424 6.342a.5.5 0 10.172-.985l-36.424-6.342zM85.7 15.32a.5.5 0 01.58.405l6.256 35.03a.5.5 0 01-.984.175L85.295 15.9a.5.5 0 01.405-.58zm24.748 135.75a.499.499 0 10-.984.176l6.256 35.03a.501.501 0 00.985-.176l-6.257-35.03zm78.241-65.338a.5.5 0 01-.407.579l-36.402 6.338a.5.5 0 01-.172-.986l36.402-6.338a.501.501 0 01.579.407zm-36.484 21.42a.501.501 0 00-.129.992l39.449 5.13a.5.5 0 00.129-.992l-39.449-5.13zM81.147 12.577a.5.5 0 01.598.378l8.58 38.208a.5.5 0 11-.977.219L80.77 13.174a.5.5 0 01.378-.597zm31.505 138.042a.5.5 0 10-.976.219l8.58 38.208a.5.5 0 00.975-.219l-8.579-38.208zm84.211-70.606a.5.5 0 01-.382.596l-45.015 9.856a.5.5 0 11-.214-.977l45.015-9.856a.501.501 0 01.596.381zm-44.439 24.929a.5.5 0 00-.086.997l39.124 3.379a.5.5 0 00.086-.996l-39.124-3.38zM77.915 15.927a.5.5 0 01.614.352l9.602 35.388a.5.5 0 01-.965.262L77.564 16.54a.5.5 0 01.352-.614zm36.919 134.144a.5.5 0 00-.965.262l9.602 35.388a.5.5 0 10.965-.262l-9.602-35.388zm79.451-73.754a.5.5 0 01-.355.61L150.954 88.3a.5.5 0 01-.256-.967l42.976-11.372a.5.5 0 01.611.356zm-41.737 26.406a.5.5 0 10-.043.999l38.265 1.65a.5.5 0 10.043-.999l-38.265-1.65zM74.681 18.57a.5.5 0 01.628.324l10.655 33.372a.5.5 0 11-.952.304L74.356 19.198a.5.5 0 01.325-.628zm42.308 130.86a.5.5 0 00-.953.305l10.656 33.372a.5.5 0 10.952-.305l-10.655-33.372zM67.605 10.397a.5.5 0 01.642.296l15.58 42.266a.5.5 0 01-.94.346L67.31 11.039a.5.5 0 01.296-.642zm51.507 138.298a.5.5 0 10-.939.346l15.579 42.266a.501.501 0 00.939-.346l-15.579-42.266zm62.292-72.721a.5.5 0 01-.329.626l-30.739 9.57a.5.5 0 01-.297-.955l30.739-9.57a.5.5 0 01.626.329zm-16.426-27.341a.5.5 0 10-.638-.77L140.177 67.89a.5.5 0 00.639.77l24.162-20.026zm20.565 21.976a.5.5 0 01-.301.64L149.618 84.05a.5.5 0 01-.338-.942l35.624-12.802a.5.5 0 01.639.302zM64.393 12.435a.5.5 0 10-.922.386L80.798 54.13a.5.5 0 00.922-.386L64.393 12.435zm56.155 135.168a.5.5 0 01.654.268l17.327 41.308a.5.5 0 11-.922.386l-17.327-41.308a.5.5 0 01.268-.654zm73.723-84.212a.5.5 0 00-.379-.925l-45.421 18.578a.5.5 0 00.379.925l45.421-18.578zM61.823 18.036a.5.5 0 01.665.239l17.163 36.344a.5.5 0 01-.904.427L61.584 18.702a.5.5 0 01.239-.666zm61.43 128.918a.5.5 0 10-.904.427l17.163 36.344a.5.5 0 10.904-.427l-17.163-36.344zm67.88-87.457a.5.5 0 01-.245.663l-42.926 19.766a.5.5 0 11-.418-.908l42.925-19.766a.5.5 0 01.664.245zM62.393 26.695a.5.5 0 00-.885.466L76.74 56.05a.5.5 0 10.885-.467l-15.23-28.888zm62.192 119.047a.5.5 0 01.675.209l15.231 28.888a.5.5 0 11-.885.466l-15.23-28.888a.5.5 0 01.209-.675zm63.736-89.067a.5.5 0 00-.457-.89l-41.336 21.248a.5.5 0 00.458.89l41.335-21.248zM58.539 28.379a.5.5 0 01.684.179l16.418 28.076a.5.5 0 01-.864.505L58.36 29.061a.5.5 0 01.179-.684zm68.684 116.483a.5.5 0 00-.864.505l16.418 28.076a.5.5 0 00.863-.505l-16.417-28.076zm57.231-91.442a.5.5 0 01-.187.682l-38.346 21.864a.5.5 0 01-.496-.868l38.347-21.864a.5.5 0 01.682.186zM46.634 15.807a.5.5 0 00-.84.542l27.07 41.964a.5.5 0 10.841-.542l-27.07-41.964zm81.81 127.731a.5.5 0 01.691.149l27.071 41.964a.5.5 0 11-.84.542l-27.071-41.964a.5.5 0 01.149-.691zm54.857-93.723a.5.5 0 10-.532-.846l-38.533 24.24a.5.5 0 00.533.846l38.532-24.24zM52.886 33.145a.5.5 0 01.697.12l18.24 25.724a.5.5 0 11-.815.578l-18.24-25.724a.5.5 0 01.118-.697zm78.106 109.288a.5.5 0 00-.816.578l18.241 25.724a.499.499 0 10.815-.578l-18.24-25.724zm52.809-98.686a.5.5 0 01-.127.696l-40.139 27.754a.5.5 0 01-.569-.823l40.139-27.753a.5.5 0 01.696.126zM45.144 28.305a.5.5 0 00-.79.614L69.209 60.9a.5.5 0 00.79-.614L45.144 28.305zm86.946 112.706a.501.501 0 01.702.088l24.853 31.982a.501.501 0 01-.79.614l-24.853-31.982a.5.5 0 01.088-.702zm39.295-92.716a.5.5 0 10-.603-.797l-29.166 22.097a.5.5 0 00.604.797l29.165-22.097zM39.008 28.045a.5.5 0 01.705.057l28.517 33.56a.5.5 0 11-.762.648L38.951 28.75a.5.5 0 01.057-.705zm95.524 111.645a.5.5 0 00-.762.648l28.517 33.56a.5.5 0 00.762-.648l-28.517-33.56zm15.813-25.634a.499.499 0 01.611-.355l46.059 12.188a.5.5 0 01-.256.967L150.7 114.667a.499.499 0 01-.355-.611zm-115.888-85.5a.5.5 0 00-.733.68L65.79 63.792a.5.5 0 00.733-.68L34.457 28.556zM135.502 138.18a.5.5 0 01.707.027l32.067 34.556a.5.5 0 11-.733.68l-32.067-34.556a.5.5 0 01.026-.707zM29.406 29.601a.5.5 0 00-.702.71l35.478 35.035a.5.5 0 10.703-.712L29.406 29.6zm107.705 107.058a.499.499 0 01.707-.004l35.478 35.033a.5.5 0 01-.703.712l-35.478-35.034a.5.5 0 01-.004-.707zM27.752 34.047a.5.5 0 10-.67.741L62.64 66.964a.5.5 0 10.67-.741L27.753 34.047zM138.653 135.07a.5.5 0 01.706-.035l35.56 32.176a.5.5 0 01-.671.742l-35.559-32.176a.501.501 0 01-.036-.707zM32.895 43.92a.5.5 0 10-.638.77l28.918 23.96a.5.5 0 00.638-.77L32.895 43.92zm107.227 89.497a.5.5 0 01.704-.066l28.918 23.96a.5.5 0 01-.638.77l-28.918-23.96a.499.499 0 01-.066-.704zM35.587 50.807a.5.5 0 10-.604.798l24.799 18.792a.5.5 0 00.604-.797L35.587 50.808zM141.518 131.7a.5.5 0 01.7-.097l24.799 18.792a.5.5 0 01-.604.797L141.614 132.4a.5.5 0 01-.096-.7zM18.68 43.473a.5.5 0 10-.569.822L58.47 72.2a.5.5 0 00.568-.822L18.68 43.473zm124.156 86.455a.499.499 0 01.695-.127l40.358 27.904a.5.5 0 11-.569.822l-40.357-27.904a.5.5 0 01-.127-.695zM21.876 50.633a.5.5 0 10-.532.846l35.891 22.578a.5.5 0 10.533-.846L21.876 50.633zM144.075 128.1a.5.5 0 01.69-.157l35.891 22.577a.5.5 0 01-.532.847l-35.892-22.578a.5.5 0 01-.157-.689zM24.782 56.971a.5.5 0 00-.495.87l31.796 18.127a.5.5 0 10.495-.869L24.782 56.971zm120.453 69.248a.5.5 0 01.682-.187l31.796 18.128a.5.5 0 01-.495.869l-31.796-18.128a.5.5 0 01-.187-.682zM16.182 56.838a.5.5 0 10-.457.889l39.294 20.198a.5.5 0 00.457-.89L16.182 56.839zm130.126 67.453a.5.5 0 01.673-.216l39.294 20.198a.501.501 0 01-.457.89l-39.294-20.198a.501.501 0 01-.216-.674zM22.654 64.374a.5.5 0 10-.418.908l31.806 14.644a.5.5 0 00.418-.908L22.654 64.374zm124.641 57.943a.5.5 0 01.664-.245l31.806 14.646a.5.5 0 11-.418.908L147.54 122.98a.5.5 0 01-.245-.663zM11.045 63.665a.5.5 0 10-.379.926l42.486 17.378a.5.5 0 00.379-.926L11.045 63.665zm137.151 56.64a.5.5 0 01.652-.274l42.486 17.379a.499.499 0 11-.379.925l-42.486-17.378a.5.5 0 01-.273-.652zM15.794 69.845a.5.5 0 00-.338.942l36.9 13.261a.5.5 0 00.338-.94l-36.9-13.263zm133.21 48.408a.5.5 0 01.64-.301l36.9 13.262a.5.5 0 01-.339.941l-36.9-13.262a.501.501 0 01-.301-.64zM4.34 70.38a.5.5 0 00-.297.955L51.651 86.16a.5.5 0 00.297-.954L4.34 70.38zm.29 5.12a.5.5 0 01.611-.356l46.06 12.188a.5.5 0 11-.257.967L4.986 76.11a.5.5 0 01-.356-.611zm-.62 3.756a.5.5 0 00-.215.977l46.736 10.23a.5.5 0 00.213-.977L4.01 79.256zm9.273 6.47a.5.5 0 01.579-.406l36.424 6.341a.5.5 0 01-.172.986L13.69 86.305a.5.5 0 01-.407-.579zm-2.808 3a.5.5 0 10-.13.992l39.45 5.13a.5.5 0 10.13-.992l-39.45-5.13zm-.478 4.411a.5.5 0 01.54-.455l39.125 3.38a.5.5 0 01-.086.996l-39.124-3.38a.5.5 0 01-.455-.54zm1.232 3.491a.5.5 0 10-.043 1l38.265 1.65a.5.5 0 10.043-1l-38.265-1.65z" fill="#03001B"/></svg>