<svg width="414" height="2103" viewBox="0 0 414 2103" fill="none" xmlns="http://www.w3.org/2000/svg">
<g filter="url(#filter0_f)">
<ellipse cx="420.471" cy="1333.66" rx="658.333" ry="363.333" transform="rotate(-6.48121 420.471 1333.66)" fill="#8349FF"/>
</g>
<g filter="url(#filter1_f)">
<path d="M883.111 1110C943.088 1025.02 946.516 960.166 976.445 860.555C1034.22 668.274 991.667 541.999 1060.33 353.333C1200.44 -31.6281 1442.73 1180.16 1098.11 1401.67C881.475 1540.92 247.565 1574.3 438.667 1401.67C514.986 1332.72 588.031 1340 674.222 1283.89C763.174 1225.98 821.905 1196.72 883.111 1110Z" fill="url(#paint0_linear)"/>
</g>
<g filter="url(#filter2_f)">
<path d="M-320.355 1168.27C-477.918 1178.64 -580.754 1236.8 -680.779 1372.12C-883.411 1646.25 300.488 1733.33 135.61 1432.17C31.6508 1242.28 -119.097 1155.03 -320.355 1168.27Z" fill="#0013FF"/>
</g>
<g filter="url(#filter3_f)">
<path d="M-313.734 1244.28C-444.743 1252.9 -530.249 1301.26 -613.417 1413.78C-781.901 1641.71 202.483 1714.12 65.3906 1463.71C-21.0487 1305.82 -146.392 1233.27 -313.734 1244.28Z" fill="#00FFFF"/>
</g>
<defs>
<filter id="filter0_f" x="-608" y="565" width="2056.94" height="1537.31" filterUnits="userSpaceOnUse" color-interpolation-filters="sRGB">
<feFlood flood-opacity="0" result="BackgroundImageFix"/>
<feBlend mode="normal" in="SourceGraphic" in2="BackgroundImageFix" result="shape"/>
<feGaussianBlur stdDeviation="166.667" result="effect1_foregroundBlur"/>
</filter>
<filter id="filter1_f" x="125.452" y="0.582581" width="1426.87" height="1796.15" filterUnits="userSpaceOnUse" color-interpolation-filters="sRGB">
<feFlood flood-opacity="0" result="BackgroundImageFix"/>
<feBlend mode="normal" in="SourceGraphic" in2="BackgroundImageFix" result="shape"/>
<feGaussianBlur stdDeviation="138.889" result="effect1_foregroundBlur"/>
</filter>
<filter id="filter2_f" x="-1042.64" y="821.216" width="1536.43" height="1144" filterUnits="userSpaceOnUse" color-interpolation-filters="sRGB">
<feFlood flood-opacity="0" result="BackgroundImageFix"/>
<feBlend mode="normal" in="SourceGraphic" in2="BackgroundImageFix" result="shape"/>
<feGaussianBlur stdDeviation="166.667" result="effect1_foregroundBlur"/>
</filter>
<filter id="filter3_f" x="-859.358" y="1010.65" width="1167.63" height="841.336" filterUnits="userSpaceOnUse" color-interpolation-filters="sRGB">
<feFlood flood-opacity="0" result="BackgroundImageFix"/>
<feBlend mode="normal" in="SourceGraphic" in2="BackgroundImageFix" result="shape"/>
<feGaussianBlur stdDeviation="111.111" result="effect1_foregroundBlur"/>
</filter>
<linearGradient id="paint0_linear" x1="1001.44" y1="706.111" x2="782.556" y2="1340.56" gradientUnits="userSpaceOnUse">
<stop stop-color="#FF0095"/>
<stop offset="1" stop-color="#FFCDFF"/>
</linearGradient>
</defs>
</svg>
