<svg width="63" height="62" fill="none" xmlns="http://www.w3.org/2000/svg"><path opacity=".7" d="M2.397 30.924l-.5.004.5-.004zm-1.269-6.236l.48.144-.48-.145zm5.845-5.537l-.407-.29.407.29zm1.145-5.014l.481.137-.48-.137zm4.78-4.372l-.232-.443.231.443zM19.6 6.148l.29.407-.29-.407zm3.433-2.85l.283.412-.284-.412zM32.725 1l-.001.5V1zm13.886 2.462l-.148.478.148-.478zm8.604 6.303l-.498.046.498-.046zm2.52 4.43l-.34.367.34-.367zm4.181 5.082l.494.082-.494-.082zm-5.141 5.618l-.49.103.49-.103zm5.472 6.03l-.5.008.5-.008zm-.428 6.03l-.492-.087.492.088zm-.88 5.618l-.47-.171.47.171zm-7.348 5.083l-.247-.435.247.435zm-2.637 2.197l-.46-.196.46.196zm-.092 2.232l.497-.05v-.001l-.497.051zm-1.403 3.5l-.303-.398.303.398zm-5.055 2.803l.199.459-.2-.46zM32.502 60.85v.5-.5zm-20.877-8.765l.377-.33-.377.33zM5.94 42.827l.457-.201-.457.202zm-1.8-5.594l-.487.118.486-.118zm32.988-15.286l-.284-.412.284.412zm-2.236 3.613l.449-.221-.449.221zm2.76 2.732l-.315.388.315-.388zm3.65 2.632l-.005.5.004-.5zm.464-2.633l-.422.267.422-.267zm-1.809-3.003l-.496.064.496-.064zm2.934-3.34l.273.418-.273-.419zm3.46-3.365l.5.006-.5-.006zm-1.663-2.98l-.383.32.383-.32zm-3.162-2.633l-.003.5.003-.5zm-1.067 2.634l-.494.077.494-.077zm.356 2.7l.496.063v-.001l-.496-.062zm-20.94 3.643l-.323-.381.324.38zM18.06 25.44l.476-.15-.476.15zm2.148 2.854l.36-.347-.36.347zm3.138 2.63l.006-.5-.006.5zm.98-2.63l-.47.168.47-.168zm-1.098-2.854l-.499.04.499-.04zm2.41-3.494l-.311-.392.311.392zm2.736-3.495l-.497.054.497-.054zm-1.642-2.854l.384-.32-.384.32zm-3.162-2.629l-.001.5.001-.5zM22.5 15.6l.494-.078-.494.077zm.364 2.538l-.499-.025.5.025zm-5.46 25.322l.429-.257-.43.257zm2.736 4.613l-.397.303.397-.303zm10.513 4.298l-.001-.5.001.5zm10.338-4.296l.226.446-.226-.446zm7.494-4.746l.438.24-.438-.24zm1.012-3.555l-.495-.069.495.07zm-33.832-.078l-.475.157.475-.157zM2.897 30.921c-.009-1.148-.536-2.302-.908-3.286-.395-1.043-.643-1.94-.382-2.803l-.957-.289c-.368 1.218.01 2.407.403 3.446.416 1.097.837 2.021.844 2.94l1-.008zm-1.29-6.089c.33-1.095 1.275-1.874 2.46-2.683.57-.388 1.21-.793 1.777-1.218.574-.429 1.123-.91 1.536-1.49l-.814-.58c-.327.457-.782.866-1.32 1.27-.547.407-1.131.776-1.741 1.192-1.174.8-2.412 1.752-2.855 3.22l.957.289zm5.773-5.39c.61-.855.788-1.795.884-2.675.1-.915.113-1.709.335-2.493L7.637 14c-.253.892-.28 1.858-.367 2.657-.091.833-.248 1.562-.704 2.202l.814.581zm1.22-5.168c.285-1.006.91-1.762 1.726-2.4.826-.647 1.813-1.148 2.803-1.666l-.463-.886c-.963.503-2.043 1.05-2.957 1.764-.924.724-1.711 1.644-2.072 2.915l.962.273zm4.529-4.066c2.178-1.137 4.664-2.15 6.763-3.653l-.583-.813c-2.024 1.45-4.346 2.38-6.643 3.58l.463.886zm6.763-3.653c.633-.454 1.206-.976 1.754-1.47.555-.5 1.087-.973 1.67-1.375l-.566-.824c-.645.444-1.223.96-1.774 1.457-.558.503-1.087.984-1.667 1.399l.583.813zm3.425-2.845c2.625-1.806 6.172-2.216 9.408-2.21l.002-1C29.45.494 25.64.898 22.75 2.886l.567.824zm9.408-2.21c4.634.008 9.279 1.06 13.739 2.44l.295-.955C42.257 1.59 37.504.509 32.727.5l-.002 1zm13.739 2.44c1.744.54 3.727 1.052 5.346 1.942 1.595.877 2.737 2.068 2.908 3.929l.996-.092c-.213-2.315-1.665-3.748-3.423-4.714-1.734-.953-3.86-1.503-5.532-2.02l-.295.955zm8.254 5.87c.099 1.071.387 1.918.855 2.678.462.75 1.087 1.395 1.823 2.074l.678-.735c-.72-.664-1.262-1.234-1.65-1.864-.381-.62-.625-1.315-.71-2.244l-.996.092zm2.678 4.752c.307.284.754.636 1.214 1.007.469.38.97.795 1.423 1.23.455.439.842.88 1.096 1.304.255.427.346.788.295 1.092l.987.164c.104-.63-.105-1.236-.423-1.769-.32-.534-.779-1.046-1.262-1.51a23.278 23.278 0 00-1.487-1.288c-.483-.39-.889-.71-1.165-.965l-.678.735zm4.028 4.633c-.068.412-.356.794-.865 1.195-.51.403-1.15.756-1.826 1.156-.648.383-1.334.813-1.816 1.341-.504.552-.813 1.246-.63 2.11l.978-.206c-.1-.471.044-.85.39-1.23.368-.403.929-.765 1.587-1.155.632-.373 1.358-.774 1.936-1.23.58-.458 1.104-1.04 1.233-1.817l-.987-.164zm-5.138 5.803c.17.805.666 1.424 1.243 1.93.57.502 1.273.936 1.905 1.341.652.419 1.234.81 1.659 1.252.414.43.647.878.655 1.412l1-.015c-.013-.862-.405-1.539-.934-2.09-.519-.54-1.198-.989-1.84-1.4-.661-.425-1.285-.811-1.785-1.25-.495-.435-.817-.878-.924-1.387l-.979.207zm5.462 5.935c.03 1.978-.071 3.974-.42 5.935l.984.175c.364-2.042.466-4.105.436-6.125l-1 .015zm-.42 5.935c-.168.945-.23 1.947-.326 2.871-.097.944-.23 1.837-.532 2.663l.94.342c.345-.946.488-1.94.587-2.902.101-.982.156-1.902.315-2.799l-.984-.175zm-.858 5.534c-.432 1.187-1.542 2.052-2.944 2.804-.693.372-1.428.702-2.152 1.027-.715.323-1.424.644-2.03.988l.495.87c.557-.318 1.222-.62 1.946-.946.716-.322 1.485-.667 2.214-1.058 1.442-.773 2.845-1.789 3.41-3.343l-.939-.342zm-7.126 4.819c-.442.252-1.026.56-1.543.935-.52.376-1.031.86-1.305 1.5l.92.394c.17-.4.514-.752.971-1.084.46-.333.97-.602 1.452-.876l-.495-.869zm-2.849 2.436c-.373.875-.2 1.789-.13 2.48l.995-.103c-.085-.822-.191-1.407.055-1.984l-.92-.393zm-.13 2.479c.073.708.028 1.261-.15 1.732-.176.464-.498.892-1.058 1.32l.607.794c.675-.515 1.13-1.086 1.386-1.76.253-.668.291-1.392.21-2.188l-.995.102zm-1.208 3.051c-1.463 1.117-3.225 1.993-4.951 2.742l.398.917c1.749-.758 3.6-1.672 5.16-2.864l-.607-.795zm-4.951 2.742A29.603 29.603 0 0132.5 60.35l.002 1c4.144-.007 8.29-.85 12.1-2.503l-.397-.918zM32.5 60.35c-7.475.012-15.524-2.92-20.5-8.595l-.751.66c5.203 5.934 13.552 8.947 21.253 8.935l-.002-1zM12 51.755c-2.337-2.665-4.167-5.865-5.605-9.13l-.915.404c1.464 3.324 3.344 6.62 5.769 9.386l.752-.66zm-5.605-9.13c-.78-1.768-1.312-3.606-1.772-5.51l-.972.236c.467 1.928 1.015 3.83 1.829 5.678l.915-.403zm-1.772-5.51c-.26-1.078-.71-2.162-1.068-3.17-.366-1.033-.65-2.022-.659-3.024l-1 .008c.01 1.177.343 2.296.717 3.35.382 1.08.794 2.06 1.038 3.072l.972-.235zm32.22-15.58c-.579.399-1.426.922-1.99 1.566-.29.332-.535.726-.632 1.19-.1.473-.035.973.22 1.49l.897-.442c-.166-.338-.187-.611-.139-.843.051-.242.187-.485.407-.736.457-.523 1.15-.951 1.804-1.402l-.568-.823zm-2.401 4.246c.316.642.83 1.188 1.353 1.653.515.458 1.104.893 1.54 1.246l.63-.776c-.492-.4-1.01-.775-1.505-1.217-.488-.434-.89-.878-1.121-1.348l-.898.442zm2.894 2.9c.197.16.441.394.736.678.287.278.613.593.95.887.338.293.702.58 1.072.794.363.212.776.38 1.2.384l.01-1c-.176-.001-.41-.076-.708-.248a6.24 6.24 0 01-.917-.684c-.315-.274-.622-.571-.913-.852a13.714 13.714 0 00-.8-.736l-.63.776zm3.959 2.743c.482.005.89-.146 1.164-.475.258-.313.326-.705.321-1.047-.01-.678-.31-1.428-.593-1.878l-.846.534c.216.342.433.914.44 1.359.003.218-.045.337-.092.394-.033.039-.118.116-.385.113l-.01 1zm.892-3.4a9.56 9.56 0 00-.533-.738c-.191-.244-.377-.474-.551-.714-.353-.484-.597-.921-.652-1.349l-.992.129c.09.69.464 1.299.835 1.81.188.257.392.51.572.74.184.236.346.451.476.656l.845-.534zm-1.736-2.8c-.072-.556.225-1.055.802-1.56.585-.512 1.303-.902 1.91-1.298l-.548-.837c-.513.335-1.366.81-2.02 1.382-.662.58-1.273 1.384-1.136 2.44l.992-.128zm2.712-2.858c.468-.307 1.41-.815 2.152-1.385.74-.568 1.52-1.365 1.534-2.392l-1-.013c-.007.52-.423 1.058-1.143 1.612-.716.55-1.494.95-2.09 1.34l.547.838zm3.686-3.777c.009-.679-.324-1.346-.677-1.888-.361-.553-.804-1.063-1.103-1.42l-.766.643c.316.376.71.832 1.031 1.323.328.503.52.96.515 1.33l1 .012zm-1.78-3.307c-.326-.39-.85-1.09-1.421-1.662a5.245 5.245 0 00-.959-.781c-.344-.21-.738-.366-1.162-.369l-.006 1c.181.001.396.07.649.223.25.153.51.372.77.633.531.532.983 1.144 1.363 1.598l.767-.642zm-3.542-2.812c-.448-.002-.816.158-1.085.44-.256.268-.392.612-.465.936-.147.642-.086 1.376-.014 1.835l.988-.155c-.065-.414-.104-1 0-1.458.052-.227.13-.378.214-.467.07-.074.17-.132.356-.13l.006-1zm-1.564 3.211c.069.437.2.966.275 1.358.082.435.126.829.079 1.202l.992.125c.066-.528 0-1.044-.089-1.513-.096-.512-.199-.882-.269-1.327l-.988.155zm.354 2.56c-.084.662-.562 1.252-1.274 1.818-.348.277-.732.532-1.115.777-.374.239-.765.478-1.086.7l.568.822c.302-.208.656-.424 1.056-.679.39-.25.81-.527 1.2-.838.766-.609 1.508-1.411 1.643-2.475l-.992-.125zM19.55 21.566c-.531.451-1.172.977-1.598 1.605-.449.662-.676 1.459-.37 2.422l.952-.303c-.196-.618-.065-1.1.245-1.557.333-.491.85-.922 1.419-1.405l-.648-.762zm-1.969 4.027c.204.642.592 1.211 1.006 1.707.411.492.884.953 1.259 1.342l.72-.694c-.405-.42-.83-.833-1.211-1.289-.378-.452-.674-.905-.82-1.369l-.954.303zm2.265 3.049c.175.182.38.427.626.717.24.282.51.597.797.89.285.291.6.575.934.79.331.213.717.38 1.135.385l.012-1c-.16-.002-.36-.068-.607-.227a4.585 4.585 0 01-.76-.648 15.96 15.96 0 01-.749-.837c-.233-.275-.465-.553-.668-.764l-.72.694zm3.491 2.782c.45.006.83-.137 1.116-.409.275-.261.423-.604.496-.937.146-.655.038-1.415-.153-1.95l-.942.335c.144.406.214.97.12 1.398-.047.209-.124.348-.21.43-.077.072-.196.136-.414.133l-.013 1zm1.459-3.297c-.178-.499-.46-1.014-.663-1.445-.218-.458-.375-.87-.409-1.281l-.997.08c.05.601.274 1.148.502 1.63.242.51.47.915.625 1.352l.942-.336zm-1.072-2.726c-.052-.648.19-1.167.608-1.655.436-.509 1.017-.932 1.615-1.408l-.622-.783c-.546.434-1.236.938-1.752 1.54-.533.621-.926 1.395-.846 2.387l.997-.08zm2.223-3.063c.467-.371 1.26-.905 1.862-1.506.61-.61 1.17-1.422 1.06-2.434l-.994.109c.06.552-.231 1.076-.773 1.617-.55.55-1.21.981-1.777 1.431l.622.783zm2.922-3.94c-.07-.645-.363-1.238-.696-1.75-.333-.51-.737-.983-1.059-1.37l-.768.64c.336.404.695.825.989 1.276.294.452.494.89.54 1.313l.994-.11zm-1.755-3.12c-.327-.392-.85-1.09-1.424-1.663a5.252 5.252 0 00-.96-.78c-.343-.208-.737-.365-1.16-.366l-.003 1c.178 0 .392.068.645.221.25.152.51.372.771.632.53.53.986 1.145 1.363 1.597l.768-.64zm-3.544-2.809a1.44 1.44 0 00-1.077.438c-.255.265-.393.606-.468.928-.15.64-.095 1.372-.02 1.841l.987-.155c-.066-.42-.1-1.003.006-1.457.053-.225.13-.375.216-.464.071-.074.17-.131.353-.13l.003-1zm-1.566 3.207c.067.425.179.897.25 1.277.078.408.128.787.11 1.16l.998.048c.024-.49-.042-.959-.125-1.394-.087-.461-.18-.828-.245-1.246l-.988.155zm.36 2.436c-.035.703-.392 1.291-.938 1.855-.566.586-1.228 1.048-1.876 1.599l.648.762c.55-.468 1.34-1.038 1.947-1.666.628-.65 1.166-1.456 1.217-2.501l-.999-.049zm-7.176 21.74a19.43 19.43 0 001.784 3.863l.859-.513a18.434 18.434 0 01-1.693-3.663l-.95.313zm1.784 3.863c.446.747.851 1.528 1.299 2.334.44.795.914 1.596 1.47 2.326l.795-.606c-.511-.671-.956-1.421-1.391-2.205-.429-.772-.858-1.598-1.314-2.361l-.859.512zm2.769 4.66c2.47 3.24 7.159 4.505 10.911 4.495l-.002-1c-3.612.01-7.918-1.22-10.114-4.101l-.795.606zm10.911 4.495c2.18-.005 3.965-.67 5.632-1.54.828-.433 1.636-.922 2.443-1.405.81-.486 1.625-.968 2.488-1.405l-.452-.892c-.898.454-1.74.954-2.55 1.44-.815.487-1.595.96-2.393 1.376-1.586.829-3.209 1.421-5.17 1.426l.002 1zm10.563-4.35c.57-.289 1.231-.574 1.945-.887a36.73 36.73 0 002.182-1.018c1.431-.742 2.835-1.69 3.58-3.047l-.878-.48c-.593 1.083-1.766 1.916-3.162 2.64-.69.358-1.415.68-2.123.99-.702.306-1.395.605-1.996.91l.452.892zm7.706-4.952c.653-1.19.897-2.485 1.07-3.726L49 39.705c-.17 1.221-.396 2.361-.956 3.382l.877.48zm-1.482-6.66H17.455v1H47.44v-1zm2.551 2.934c.213-1.533-1.002-2.934-2.551-2.934v1c.94 0 1.69.863 1.56 1.797l.991.137zm-33.85-.302c-.262-.796.363-1.63 1.316-1.63v-1c-1.516 0-2.776 1.392-2.266 2.943l.95-.313z" fill="#03001B"/></svg>