<svg width="112" height="115" fill="none" xmlns="http://www.w3.org/2000/svg"><path opacity=".15" d="M111.5 57.538c0 31.21-24.856 56.495-55.5 56.495-30.643 0-55.5-25.285-55.5-56.495C.5 26.328 25.357 1.042 56 1.042c30.644 0 55.5 25.286 55.5 56.496z" stroke="#fff"/><path opacity=".2" d="M95.5 57.538c0 22.216-17.693 40.21-39.5 40.21s-39.5-17.994-39.5-40.21c0-22.217 17.693-40.211 39.5-40.211s39.5 17.994 39.5 40.21z" stroke="#fff"/><path opacity=".7" d="M56 74a1.778 1.778 0 001.726-2.206 61.597 61.597 0 01-1.561-13.18 61.594 61.594 0 015.238 12.195 1.778 1.778 0 102.99-1.726 61.59 61.59 0 01-7.944-10.634 61.598 61.598 0 0110.635 7.943 1.778 1.778 0 101.726-2.99 61.59 61.59 0 01-12.196-5.237 61.59 61.59 0 0113.18 1.562 1.778 1.778 0 100-3.452 61.587 61.587 0 01-13.18 1.56 61.593 61.593 0 0112.196-5.237 1.778 1.778 0 10-1.726-2.99 61.598 61.598 0 01-10.635 7.944 61.593 61.593 0 017.943-10.635 1.778 1.778 0 10-2.989-1.726 61.59 61.59 0 01-5.238 12.196 61.59 61.59 0 011.561-13.181 1.778 1.778 0 10-3.452 0 61.595 61.595 0 011.562 13.18 61.586 61.586 0 01-5.238-12.195 1.778 1.778 0 10-2.99 1.726 61.595 61.595 0 017.943 10.634 61.595 61.595 0 01-10.634-7.942 1.778 1.778 0 10-1.726 2.989 61.596 61.596 0 0112.196 5.238 61.588 61.588 0 01-13.181-1.562 1.778 1.778 0 100 3.452 61.59 61.59 0 0113.181-1.561 61.594 61.594 0 01-12.195 5.238 1.778 1.778 0 101.726 2.99A61.593 61.593 0 0155.55 58.45a61.595 61.595 0 01-7.942 10.634 1.778 1.778 0 102.989 1.726 61.596 61.596 0 015.238-12.196 61.594 61.594 0 01-1.562 13.18A1.778 1.778 0 0056 74z" fill="#fff"/></svg>