<svg width="118" height="239" fill="none" xmlns="http://www.w3.org/2000/svg"><g opacity=".15" fill-rule="evenodd" clip-rule="evenodd" fill="#fff"><path d="M58.515 122c.035 32.288 26.22 58.451 58.516 58.451-32.317 0-58.516 26.198-58.516 58.516 0-32.318-26.198-58.516-58.515-58.516 32.295 0 58.48-26.164 58.515-58.451zm0 26c.02 17.941 14.57 32.48 32.516 32.48-17.958 0-32.516 14.558-32.516 32.515 0-17.957-14.557-32.515-32.515-32.515 17.946 0 32.496-14.539 32.516-32.48z"/><path d="M58.516 55.031c.028 26.2 21.277 47.432 47.484 47.432-26.225 0-47.485 21.259-47.485 47.484 0-26.224-21.259-47.484-47.484-47.484 26.207 0 47.456-21.231 47.485-47.432zm0 20.969c.016 14.63 11.88 26.486 26.515 26.486-14.644 0-26.516 11.872-26.516 26.516 0-14.644-11.87-26.516-26.515-26.516 14.634 0 26.5-11.855 26.516-26.486z"/><path d="M58.516 0C58.539 21.787 76.208 39.44 98 39.44c-21.807 0-39.485 17.678-39.485 39.485 0-21.806-17.677-39.484-39.484-39.484 21.792 0 39.46-17.655 39.485-39.441zm0 19C58.528 30.303 67.694 39.462 79 39.462c-11.313 0-20.484 9.17-20.484 20.484 0-11.313-9.172-20.484-20.485-20.484 11.306 0 20.472-9.16 20.485-20.462z"/></g></svg>