<svg width="76" height="88" fill="none" xmlns="http://www.w3.org/2000/svg"><path d="M37.69 0C16.892 0 0 16.892 0 37.662s16.892 37.69 37.69 37.69c2.445 0 4.834-.253 7.167-.702L46.684 88h.084l4.779-34.852 1.124-8.178.787-5.593-6.408-.338-6.774-.365-.028-7.139-.084-15.43L29.51 28.05 11.44 48.286a28.088 28.088 0 01-2.052-10.568c0-15.599 12.704-28.33 28.331-28.33 15.627 0 28.331 12.703 28.331 28.33 0 7.56-2.98 14.447-7.841 19.534l-2.446 13.547C67.454 64.391 75.41 51.97 75.41 37.72 75.352 16.891 58.46 0 37.69 0zm-7.7 50l3.99.225 7.533.394 2.023 14.756a28.922 28.922 0 01-5.874.618c-8.853 0-14.784-4.188-14.784-4.188l7.111-11.804z" fill="#fff"/></svg>