<svg width="74" height="64" viewBox="0 0 74 64" fill="none" xmlns="http://www.w3.org/2000/svg">
<path opacity="0.15" fill-rule="evenodd" clip-rule="evenodd" d="M33.106 9.76435C27.0276 8.65538 21.829 5.02647 18.6316 0C24.0185 10.2246 20.4386 22.9267 10.4392 28.8654C9.26561 29.5648 8.02093 30.1573 6.7184 30.6291C4.68643 31.3652 2.51385 31.8079 0.251953 31.906C3.20364 32.0341 6.00306 32.749 8.53679 33.9368C12.4715 35.7537 15.8941 38.7636 18.2098 42.8098C22.0401 49.5027 21.9868 57.3606 18.6856 63.7277C22.5641 57.6915 29.338 53.6927 37.0456 53.6927C41.0264 53.6927 44.758 54.7596 47.9705 56.6227C48.1716 56.7388 48.3702 56.8578 48.5664 56.9795C50.2334 58.0141 51.7152 59.2491 52.9995 60.6304C53.3772 61.0366 53.7379 61.4555 54.0813 61.8857C54.6202 62.5591 55.1206 63.2647 55.5778 64C54.9765 62.8811 54.4712 61.7035 54.0705 60.4782C53.3694 58.3363 52.9934 56.0472 52.9934 53.6927C52.9934 51.4894 53.3191 49.3629 53.9255 47.3591C54.8355 44.3523 56.3771 41.6217 58.3976 39.3219C62.2018 34.9833 67.6997 32.167 73.8589 31.9052C67.4816 31.6228 61.8212 28.6088 58.0177 24.003C54.88 20.2255 52.9932 15.3718 52.9932 10.0774C52.9932 6.59878 53.8076 3.31038 55.2563 0.392516C53.4475 3.12776 50.9966 5.485 47.9705 7.23094C43.2909 9.91836 38.0293 10.682 33.106 9.76435ZM34.6068 18.2801C30.8961 17.5959 27.7223 15.3568 25.7704 12.2553C29.059 18.5641 26.8735 26.4016 20.769 30.0659C20.0526 30.4974 19.2927 30.863 18.4975 31.1541C17.257 31.6083 15.9307 31.8815 14.5498 31.942C16.3518 32.0211 18.0608 32.4621 19.6076 33.1951C22.0097 34.3161 24.0992 36.1733 25.5129 38.6699C27.8512 42.7995 27.8187 47.6481 25.8033 51.5766C28.1711 47.8522 32.3065 45.3849 37.0119 45.3849C39.4421 45.3849 41.7202 46.0431 43.6814 47.1927C43.8042 47.2644 43.9255 47.3378 44.0452 47.4129C45.0629 48.0512 45.9675 48.8133 46.7516 49.6655C46.9821 49.9162 47.2024 50.1747 47.412 50.4401C47.741 50.8556 48.0465 51.291 48.3256 51.7447C47.9585 51.0543 47.65 50.3277 47.4054 49.5716C46.9774 48.25 46.7478 46.8376 46.7478 45.3849C46.7478 44.0254 46.9467 42.7133 47.3169 41.4769C47.8724 39.6217 48.8136 37.9368 50.0471 36.5178C52.3695 33.8407 55.7258 32.103 59.486 31.9415C55.5927 31.7673 52.1371 29.9076 49.8151 27.0657C47.8996 24.7349 46.7477 21.74 46.7477 18.4733C46.7477 16.3269 47.2449 14.2979 48.1293 12.4975C47.0251 14.1852 45.5288 15.6397 43.6814 16.717C40.8246 18.3752 37.6125 18.8464 34.6068 18.2801Z" fill="white"/>
</svg>
