<svg width="108" height="76" viewBox="0 0 108 76" fill="none" xmlns="http://www.w3.org/2000/svg">
<path d="M49.5062 27.981H40.2334L39.6885 34.7268H49.3249L49.5062 27.981Z" stroke="white" stroke-opacity="0.5" stroke-miterlimit="10"/>
<path d="M68.597 34.7268L68.0521 27.981H58.7793L58.9606 34.7268H68.597Z" stroke="white" stroke-opacity="0.5" stroke-miterlimit="10"/>
<path d="M67.0889 54.9635H75.7194L77.3253 48.2188H68.0524L67.0889 54.9635Z" stroke="white" stroke-opacity="0.5" stroke-miterlimit="10"/>
<path d="M49.5063 48.2188L49.8276 54.9635H58.4581L58.7793 48.2188H49.5063Z" stroke="white" stroke-opacity="0.5" stroke-miterlimit="10"/>
<path d="M49.3249 41.4722H39.6885L40.2334 48.218H49.5062L49.3249 41.4722Z" stroke="white" stroke-opacity="0.5" stroke-miterlimit="10"/>
<path d="M58.7793 48.218H68.0521L68.597 41.4722H58.9606L58.7793 48.218Z" stroke="white" stroke-opacity="0.5" stroke-miterlimit="10"/>
<path d="M26.461 75.1998H31.4939L24.8445 68.4551H18.334L26.461 75.1998Z" stroke="white" stroke-opacity="0.5" stroke-miterlimit="10"/>
<path d="M71.7584 1H66.7256L70.4196 7.74476H76.9313L71.7584 1Z" stroke="white" stroke-opacity="0.5" stroke-miterlimit="10"/>
<path d="M81.8249 1H76.792L83.4414 7.74476H89.9519L81.8249 1Z" stroke="white" stroke-opacity="0.5" stroke-miterlimit="10"/>
<path d="M101.611 21.2371L96.5478 14.4912H88.8384L92.9809 21.2371H101.611Z" stroke="white" stroke-opacity="0.5" stroke-miterlimit="10"/>
<path d="M107.143 34.7268L105.143 27.981H95.8701L97.5067 34.7268H107.143Z" stroke="white" stroke-opacity="0.5" stroke-miterlimit="10"/>
<path d="M61.6925 1H56.6597L57.3985 7.74476H63.909L61.6925 1Z" stroke="white" stroke-opacity="0.5" stroke-miterlimit="10"/>
<path d="M105.143 48.218L107.143 41.4722H97.5067L95.8701 48.218H105.143Z" stroke="white" stroke-opacity="0.5" stroke-miterlimit="10"/>
<path d="M26.461 1L18.334 7.74476H24.8445L31.4939 1H26.461Z" stroke="white" stroke-opacity="0.5" stroke-miterlimit="10"/>
<path d="M58.9617 34.7266H49.3252V41.4725H58.9617V34.7266Z" stroke="white" stroke-opacity="0.5" stroke-miterlimit="10"/>
<path d="M51.6267 1H46.5939L44.3774 7.74476H50.888L51.6267 1Z" stroke="white" stroke-opacity="0.5" stroke-miterlimit="10"/>
<path d="M41.5607 1H36.5279L31.355 7.74476H37.8666L41.5607 1Z" stroke="white" stroke-opacity="0.5" stroke-miterlimit="10"/>
<path d="M11.7384 14.4912L6.6748 21.2371H15.3053L19.4478 14.4912H11.7384Z" stroke="white" stroke-opacity="0.5" stroke-miterlimit="10"/>
<path d="M36.5279 75.1998H41.5607L37.8666 68.4551H31.355L36.5279 75.1998Z" stroke="white" stroke-opacity="0.5" stroke-miterlimit="10"/>
<path d="M1.14307 41.4722L3.1433 48.218H12.4161L10.7795 41.4722H1.14307Z" stroke="white" stroke-opacity="0.5" stroke-miterlimit="10"/>
<path d="M96.5478 61.7093L101.611 54.9634H92.9809L88.8384 61.7093H96.5478Z" stroke="white" stroke-opacity="0.5" stroke-miterlimit="10"/>
<path d="M30.9609 48.2188L32.5669 54.9635H41.1974L40.2339 48.2188H30.9609Z" stroke="white" stroke-opacity="0.5" stroke-miterlimit="10"/>
<path d="M6.6748 54.9634L11.7384 61.7093H19.4478L15.3053 54.9634H6.6748Z" stroke="white" stroke-opacity="0.5" stroke-miterlimit="10"/>
<path d="M81.8249 75.1998L89.9519 68.4551H83.4414L76.792 75.1998H81.8249Z" stroke="white" stroke-opacity="0.5" stroke-miterlimit="10"/>
<path d="M66.7256 75.1998H71.7584L76.9313 68.4551H70.4196L66.7256 75.1998Z" stroke="white" stroke-opacity="0.5" stroke-miterlimit="10"/>
<path d="M46.5939 75.1998H51.6267L50.888 68.4551H44.3774L46.5939 75.1998Z" stroke="white" stroke-opacity="0.5" stroke-miterlimit="10"/>
<path d="M56.6597 75.1998H61.6925L63.909 68.4551H57.3985L56.6597 75.1998Z" stroke="white" stroke-opacity="0.5" stroke-miterlimit="10"/>
<path d="M97.5066 34.7266H87.8701V41.4725H97.5066V34.7266Z" stroke="white" stroke-opacity="0.5" stroke-miterlimit="10"/>
<path d="M20.4163 34.7266H10.7798V41.4725H20.4163V34.7266Z" stroke="white" stroke-opacity="0.5" stroke-miterlimit="10"/>
<path d="M50.2876 61.709L50.8876 68.4548H57.3981L57.9981 61.709H50.2876Z" stroke="white" stroke-opacity="0.5" stroke-miterlimit="10"/>
<path d="M65.708 61.709L63.9092 68.4548H70.4197L73.4184 61.709H65.708Z" stroke="white" stroke-opacity="0.5" stroke-miterlimit="10"/>
<path d="M84.3491 54.9635H92.9796L95.8693 48.2188H86.5974L84.3491 54.9635Z" stroke="white" stroke-opacity="0.5" stroke-miterlimit="10"/>
<path d="M34.8682 61.709L37.8669 68.4548H44.3774L42.5786 61.709H34.8682Z" stroke="white" stroke-opacity="0.5" stroke-miterlimit="10"/>
<path d="M21.6874 48.2188H12.4155L15.3052 54.9635H23.9357L21.6874 48.2188Z" stroke="white" stroke-opacity="0.5" stroke-miterlimit="10"/>
<path d="M19.4482 61.709L24.8446 68.4548H31.3551L27.1586 61.709H19.4482Z" stroke="white" stroke-opacity="0.5" stroke-miterlimit="10"/>
<path d="M86.5974 27.9816H95.8693L92.9796 21.2368H84.3491L86.5974 27.9816Z" stroke="white" stroke-opacity="0.5" stroke-miterlimit="10"/>
<path d="M78.234 34.7266H68.5977V41.4725H78.234V34.7266Z" stroke="white" stroke-opacity="0.5" stroke-miterlimit="10"/>
<path d="M31.3551 7.74512H24.8446L19.4482 14.4909H27.1586L31.3551 7.74512Z" stroke="white" stroke-opacity="0.5" stroke-miterlimit="10"/>
<path d="M23.9357 21.2368H15.3052L12.4155 27.9816H21.6874L23.9357 21.2368Z" stroke="white" stroke-opacity="0.5" stroke-miterlimit="10"/>
<path d="M88.838 14.4909L83.4417 7.74512H76.9312L81.1277 14.4909H88.838Z" stroke="white" stroke-opacity="0.5" stroke-miterlimit="10"/>
<path d="M12.4161 27.981H3.1433L1.14307 34.7268H10.7795L12.4161 27.981Z" stroke="white" stroke-opacity="0.5" stroke-miterlimit="10"/>
<path d="M73.4184 14.4909L70.4197 7.74512H63.9092L65.708 14.4909H73.4184Z" stroke="white" stroke-opacity="0.5" stroke-miterlimit="10"/>
<path d="M42.5786 14.4909L44.3774 7.74512H37.8669L34.8682 14.4909H42.5786Z" stroke="white" stroke-opacity="0.5" stroke-miterlimit="10"/>
<path d="M57.9981 14.4909L57.3981 7.74512H50.8876L50.2876 14.4909H57.9981Z" stroke="white" stroke-opacity="0.5" stroke-miterlimit="10"/>
<path d="M76.9312 68.4548H83.4417L88.838 61.709H81.1277L76.9312 68.4548Z" stroke="white" stroke-opacity="0.5" stroke-miterlimit="10"/>
<path d="M23.936 54.9634L27.1584 61.7093H34.8678L32.5665 54.9634H23.936Z" stroke="white" stroke-opacity="0.5" stroke-miterlimit="10"/>
<path d="M30.9603 27.981H21.6875L20.4155 34.7268H30.052L30.9603 27.981Z" stroke="white" stroke-opacity="0.5" stroke-miterlimit="10"/>
<path d="M30.052 41.4722H20.4155L21.6875 48.218H30.9603L30.052 41.4722Z" stroke="white" stroke-opacity="0.5" stroke-miterlimit="10"/>
<path d="M58.4581 54.9634L57.998 61.7093H65.7074L67.0886 54.9634H58.4581Z" stroke="white" stroke-opacity="0.5" stroke-miterlimit="10"/>
<path d="M41.1978 54.9634L42.579 61.7093H50.2883L49.8283 54.9634H41.1978Z" stroke="white" stroke-opacity="0.5" stroke-miterlimit="10"/>
<path d="M77.3253 27.9816L75.7194 21.2368H67.0889L68.0524 27.9816H77.3253Z" stroke="white" stroke-opacity="0.5" stroke-miterlimit="10"/>
<path d="M58.7793 27.9816L58.4581 21.2368H49.8276L49.5063 27.9816H58.7793Z" stroke="white" stroke-opacity="0.5" stroke-miterlimit="10"/>
<path d="M41.1974 21.2368H32.5669L30.9609 27.9816H40.2339L41.1974 21.2368Z" stroke="white" stroke-opacity="0.5" stroke-miterlimit="10"/>
<path d="M39.6891 34.7266H30.0527V41.4725H39.6891V34.7266Z" stroke="white" stroke-opacity="0.5" stroke-miterlimit="10"/>
<path d="M49.8283 21.2371L50.2883 14.4912H42.579L41.1978 21.2371H49.8283Z" stroke="white" stroke-opacity="0.5" stroke-miterlimit="10"/>
<path d="M67.0886 21.2371L65.7074 14.4912H57.998L58.4581 21.2371H67.0886Z" stroke="white" stroke-opacity="0.5" stroke-miterlimit="10"/>
<path d="M34.8678 14.4912H27.1584L23.936 21.2371H32.5665L34.8678 14.4912Z" stroke="white" stroke-opacity="0.5" stroke-miterlimit="10"/>
<path d="M78.2335 34.7268H87.87L86.598 27.981H77.3252L78.2335 34.7268Z" stroke="white" stroke-opacity="0.5" stroke-miterlimit="10"/>
<path d="M77.3252 48.218H86.598L87.87 41.4722H78.2335L77.3252 48.218Z" stroke="white" stroke-opacity="0.5" stroke-miterlimit="10"/>
<path d="M84.3502 21.2371L81.1279 14.4912H73.4185L75.7197 21.2371H84.3502Z" stroke="white" stroke-opacity="0.5" stroke-miterlimit="10"/>
<path d="M73.4185 61.7093H81.1279L84.3502 54.9634H75.7197L73.4185 61.7093Z" stroke="white" stroke-opacity="0.5" stroke-miterlimit="10"/>
</svg>
