<svg width="202" height="202" viewBox="0 0 202 202" fill="none" xmlns="http://www.w3.org/2000/svg">
<path opacity="0.5" fill-rule="evenodd" clip-rule="evenodd" d="M87.6008 0.504415C87.8745 0.46792 88.126 0.660229 88.1625 0.933949L94.7631 50.44C94.7996 50.7137 94.6073 50.9652 94.3336 51.0017C94.0598 51.0382 93.8084 50.8459 93.7719 50.5721L87.1713 1.06611C87.1348 0.792389 87.3271 0.54091 87.6008 0.504415ZM101 1.97757C101.276 1.97757 101.5 2.20143 101.5 2.47757V50.0717C101.5 50.3478 101.276 50.5717 101 50.5717C100.724 50.5717 100.5 50.3478 100.5 50.0717V2.47757C100.5 2.20143 100.724 1.97757 101 1.97757ZM122.905 3.4316C123.174 3.49209 123.343 3.75954 123.283 4.02898L112.654 51.377C112.593 51.6465 112.326 51.8158 112.057 51.7554C111.787 51.6949 111.618 51.4274 111.678 51.158L122.307 3.80994C122.368 3.54051 122.635 3.37112 122.905 3.4316ZM132.08 3.66386C132.343 3.74786 132.488 4.0292 132.404 4.29226L116.989 52.5682C116.905 52.8313 116.623 52.9764 116.36 52.8924C116.097 52.8084 115.952 52.5271 116.036 52.264L131.451 3.98808C131.535 3.72502 131.817 3.57986 132.08 3.66386ZM135.452 7.53089C135.711 7.6264 135.844 7.91386 135.748 8.17296L119.112 53.305C119.016 53.5641 118.729 53.6967 118.47 53.6012C118.211 53.5057 118.078 53.2182 118.173 52.9591L134.81 7.8271C134.905 7.568 135.193 7.43538 135.452 7.53089ZM146.968 13.8014C147.212 13.9301 147.306 14.2326 147.177 14.4768L125.26 56.0528C125.132 56.2971 124.829 56.3907 124.585 56.2619C124.341 56.1332 124.247 55.8308 124.376 55.5865L146.292 14.0105C146.421 13.7662 146.723 13.6726 146.968 13.8014ZM158.005 20.6063C158.23 20.766 158.284 21.0781 158.124 21.3034L130.99 59.5714C130.83 59.7966 130.518 59.8497 130.293 59.69C130.068 59.5303 130.015 59.2182 130.174 58.993L157.308 20.725C157.468 20.4997 157.78 20.4466 158.005 20.6063ZM154.555 32.0793C154.774 32.2488 154.813 32.5629 154.644 32.7809L132.792 60.903C132.622 61.1211 132.308 61.1605 132.09 60.991C131.872 60.8216 131.833 60.5075 132.002 60.2894L153.854 32.1674C154.023 31.9493 154.337 31.9099 154.555 32.0793ZM165.104 37.6985C165.298 37.895 165.296 38.2116 165.099 38.4056L137.818 65.3456C137.621 65.5397 137.305 65.5377 137.111 65.3412C136.917 65.1447 136.919 64.8281 137.115 64.6341L164.397 37.6941C164.593 37.5 164.91 37.502 165.104 37.6985ZM168.493 39.9282C168.678 40.133 168.663 40.4492 168.458 40.6345L139.359 66.9643C139.155 67.1496 138.839 67.1338 138.653 66.9291C138.468 66.7243 138.484 66.4081 138.689 66.2228L167.787 39.893C167.992 39.7077 168.308 39.7235 168.493 39.9282ZM9.43995 100.501C9.1638 100.501 8.93995 100.724 8.93995 101.001C8.93995 101.277 9.1638 101.501 9.43995 101.501H49.4265C49.7027 101.501 49.9265 101.277 49.9265 101.001C49.9265 100.724 49.7027 100.501 49.4265 100.501H9.43995ZM152.574 100.501C152.298 100.501 152.074 100.724 152.074 101.001C152.074 101.277 152.298 101.501 152.574 101.501H192.561C192.837 101.501 193.061 101.277 193.061 101.001C193.061 100.724 192.837 100.501 192.561 100.501H152.574ZM49.9765 103.201C49.9884 103.477 49.7744 103.71 49.4985 103.722L1.02154 105.812C0.745653 105.823 0.512362 105.609 0.500468 105.334C0.488575 105.058 0.702583 104.824 0.978469 104.813L49.4554 102.723C49.7313 102.711 49.9646 102.925 49.9765 103.201ZM49.6657 105.937C49.9408 105.913 50.1445 105.671 50.1207 105.395C50.097 105.12 49.8547 104.917 49.5796 104.94L5.19584 108.776C4.92073 108.8 4.71698 109.042 4.74075 109.317C4.76453 109.593 5.00683 109.796 5.28195 109.773L49.6657 105.937ZM50.3614 107.584C50.397 107.857 50.2039 108.108 49.9301 108.144L2.14784 114.356C1.874 114.391 1.62315 114.198 1.58755 113.924C1.55195 113.651 1.74508 113.4 2.01892 113.364L49.8011 107.152C50.075 107.117 50.3258 107.31 50.3614 107.584ZM50.2916 110.337C50.5636 110.289 50.7458 110.031 50.6984 109.758C50.651 109.486 50.3921 109.304 50.1201 109.352L13.7183 115.69C13.4463 115.737 13.2641 115.996 13.3115 116.268C13.3589 116.54 13.6178 116.722 13.8898 116.675L50.2916 110.337ZM51.13 111.917C51.189 112.187 51.0182 112.453 50.7485 112.512L5.73292 122.368C5.46317 122.427 5.19661 122.257 5.13755 121.987C5.07849 121.717 5.24929 121.451 5.51904 121.392L50.5346 111.536C50.8043 111.476 51.0709 111.647 51.13 111.917ZM51.3021 114.667C51.569 114.597 51.7281 114.323 51.6575 114.056C51.5869 113.789 51.3132 113.63 51.0462 113.701L8.0701 125.073C7.80314 125.143 7.644 125.417 7.71464 125.684C7.78528 125.951 8.05895 126.11 8.32591 126.04L51.3021 114.667ZM52.2794 116.169C52.3614 116.432 52.2143 116.713 51.9506 116.795L21.2341 126.359C20.9704 126.441 20.6902 126.294 20.6081 126.03C20.526 125.766 20.6732 125.486 20.9368 125.404L51.6533 115.84C51.917 115.758 52.1973 115.905 52.2794 116.169ZM52.6942 118.893C52.9541 118.8 53.089 118.513 52.9956 118.253C52.9022 117.993 52.6158 117.858 52.356 117.952L16.7603 130.746C16.5005 130.839 16.3655 131.126 16.4589 131.385C16.5523 131.645 16.8387 131.78 17.0986 131.687L52.6942 118.893ZM53.8022 120.305C53.9067 120.56 53.7843 120.852 53.5287 120.957L8.108 139.535C7.85241 139.64 7.56046 139.517 7.45592 139.262C7.35138 139.006 7.47383 138.714 7.72942 138.61L53.1501 120.031C53.4057 119.927 53.6977 120.049 53.8022 120.305ZM54.4557 122.982C54.7065 122.867 54.8162 122.57 54.7007 122.319C54.5853 122.068 54.2883 121.958 54.0375 122.074L11.112 141.84C10.8612 141.955 10.7515 142.252 10.867 142.503C10.9825 142.754 11.2795 142.864 11.5303 142.748L54.4557 122.982ZM55.6879 124.293C55.8141 124.539 55.7174 124.84 55.4718 124.967L14.1363 146.215C13.8907 146.341 13.5893 146.244 13.463 145.998C13.3368 145.753 13.4335 145.451 13.6791 145.325L55.0146 124.077C55.2602 123.951 55.5616 124.048 55.6879 124.293ZM56.5742 126.902C56.8141 126.765 56.8977 126.46 56.7609 126.22C56.6242 125.98 56.3188 125.897 56.0789 126.033L17.7328 147.898C17.4929 148.034 17.4093 148.34 17.5461 148.58C17.6829 148.819 17.9882 148.903 18.2281 148.766L56.5742 126.902ZM57.9206 128.101C58.0676 128.335 57.9974 128.643 57.7636 128.79L19.2312 153.03C18.9975 153.178 18.6888 153.107 18.5417 152.873C18.3947 152.64 18.465 152.331 18.6987 152.184L57.2311 127.944C57.4649 127.797 57.7736 127.867 57.9206 128.101ZM59.0335 130.626C59.2607 130.469 59.3175 130.157 59.1604 129.93C59.0034 129.703 58.6919 129.646 58.4648 129.803L18.3262 157.557C18.0991 157.714 18.0423 158.026 18.1993 158.253C18.3564 158.48 18.6678 158.537 18.895 158.38L59.0335 130.626ZM60.4802 131.702C60.6469 131.922 60.6037 132.236 60.3836 132.402L31.2185 154.502C30.9984 154.669 30.6848 154.626 30.518 154.406C30.3512 154.186 30.3944 153.872 30.6145 153.705L59.7797 131.605C59.9998 131.439 60.3134 131.482 60.4802 131.702ZM61.8105 134.121C62.0232 133.945 62.0527 133.629 61.8765 133.417C61.7003 133.204 61.3851 133.175 61.1725 133.351L37.018 153.367C36.8054 153.543 36.7759 153.858 36.952 154.071C37.1282 154.284 37.4434 154.313 37.6561 154.137L61.8105 134.121ZM63.3112 135.777C63.516 135.591 63.5318 135.275 63.3465 135.07C63.1612 134.866 62.845 134.85 62.6403 135.035L33.542 161.365C33.3372 161.55 33.3214 161.866 33.5067 162.071C33.692 162.276 34.0082 162.292 34.2129 162.106L63.3112 135.777ZM64.8846 137.366C65.0811 137.172 65.0831 136.855 64.8891 136.659C64.6951 136.462 64.3785 136.46 64.182 136.655L36.9004 163.595C36.7039 163.789 36.7019 164.105 36.8959 164.302C37.09 164.498 37.4065 164.5 37.603 164.306L64.8846 137.366ZM158.834 38.6755C159.036 38.8633 159.048 39.1797 158.86 39.3821L136.209 63.7921C136.021 63.9945 135.704 64.0063 135.502 63.8185C135.3 63.6306 135.288 63.3143 135.476 63.1119L158.127 38.7019C158.315 38.4995 158.631 38.4877 158.834 38.6755ZM66.5243 138.888C66.7121 138.686 66.7003 138.369 66.4979 138.181C66.2955 137.994 65.9791 138.005 65.7913 138.208L43.1396 162.618C42.9518 162.82 42.9636 163.137 43.166 163.324C43.3684 163.512 43.6848 163.5 43.8726 163.298L66.5243 138.888ZM154.743 37.7533C154.953 37.9321 154.979 38.2476 154.8 38.4581L134.532 62.3121C134.353 62.5226 134.038 62.5482 133.827 62.3694C133.617 62.1906 133.591 61.8751 133.77 61.6647L154.038 37.8106C154.217 37.6001 154.532 37.5745 154.743 37.7533ZM68.2298 140.335C68.4086 140.125 68.383 139.81 68.1725 139.631C67.9621 139.452 67.6465 139.478 67.4677 139.688L47.2 163.542C47.0212 163.753 47.0469 164.068 47.2573 164.247C47.4678 164.426 47.7833 164.4 47.9621 164.19L68.2298 140.335ZM69.9978 141.711C70.1672 141.493 70.1278 141.178 69.9097 141.009C69.6917 140.84 69.3776 140.879 69.2081 141.097L47.3565 169.219C47.1871 169.437 47.2265 169.751 47.4446 169.921C47.6626 170.09 47.9767 170.051 48.1462 169.833L69.9978 141.711ZM71.8253 143.007C71.9851 142.782 71.9319 142.47 71.7067 142.31C71.4814 142.151 71.1693 142.204 71.0096 142.429L43.8759 180.697C43.7162 180.922 43.7694 181.234 43.9946 181.394C44.2199 181.554 44.532 181.501 44.6917 181.275L71.8253 143.007ZM152.164 21.6941C152.396 21.8438 152.463 22.1533 152.313 22.3853L129.133 58.3152C128.983 58.5473 128.674 58.614 128.442 58.4643C128.21 58.3146 128.143 58.0051 128.293 57.7731L151.473 21.8432C151.623 21.6112 151.932 21.5444 152.164 21.6941ZM73.7074 144.227C73.8571 143.995 73.7903 143.686 73.5583 143.536C73.3262 143.386 73.0168 143.453 72.8671 143.685L49.6869 179.615C49.5372 179.847 49.604 180.156 49.836 180.306C50.068 180.456 50.3775 180.389 50.5272 180.157L73.7074 144.227ZM142.918 29.3042C143.157 29.4436 143.237 29.7499 143.097 29.9882L127.221 57.1423C127.081 57.3807 126.775 57.461 126.537 57.3216C126.298 57.1822 126.218 56.876 126.357 56.6376L142.234 29.4835C142.374 29.2451 142.68 29.1649 142.918 29.3042ZM75.6428 145.363C75.7822 145.124 75.7019 144.818 75.4635 144.679C75.2251 144.539 74.9189 144.62 74.7795 144.858L58.9027 172.012C58.7633 172.25 58.8436 172.557 59.082 172.696C59.3204 172.835 59.6266 172.755 59.766 172.517L75.6428 145.363ZM77.6241 146.413C77.7528 146.169 77.6592 145.867 77.4149 145.738C77.1706 145.609 76.8682 145.703 76.7395 145.947L54.8231 187.523C54.6943 187.767 54.7879 188.07 55.0322 188.198C55.2765 188.327 55.5789 188.234 55.7077 187.989L77.6241 146.413ZM136.193 26.4703C136.443 26.5882 136.55 26.8862 136.432 27.1359L123.253 55.0478C123.135 55.2975 122.837 55.4043 122.587 55.2864C122.338 55.1685 122.231 54.8705 122.349 54.6208L135.528 26.7089C135.646 26.4592 135.944 26.3524 136.193 26.4703ZM79.6513 147.38C79.7691 147.13 79.6623 146.832 79.4126 146.714C79.1629 146.596 78.8649 146.703 78.747 146.953L65.568 174.865C65.4501 175.115 65.557 175.413 65.8067 175.531C66.0564 175.648 66.3544 175.542 66.4723 175.292L79.6513 147.38ZM134.431 21.3007C134.686 21.4075 134.806 21.7005 134.699 21.9552L121.202 54.1313C121.095 54.386 120.802 54.5058 120.548 54.399C120.293 54.2922 120.173 53.9992 120.28 53.7445L133.777 21.5683C133.884 21.3137 134.177 21.1939 134.431 21.3007ZM81.7198 148.255C81.8267 148.001 81.7068 147.708 81.4522 147.601C81.1975 147.494 80.9045 147.614 80.7977 147.869L67.3008 180.045C67.194 180.299 67.3138 180.592 67.5684 180.699C67.8231 180.806 68.1161 180.686 68.2229 180.432L81.7198 148.255ZM83.8265 149.041C83.922 148.782 83.7894 148.494 83.5303 148.399C83.2712 148.303 82.9838 148.436 82.8882 148.695L66.2519 193.827C66.1564 194.086 66.289 194.373 66.5481 194.469C66.8072 194.564 67.0947 194.432 67.1902 194.173L83.8265 149.041ZM85.9641 149.736C86.0481 149.473 85.903 149.191 85.6399 149.107C85.3769 149.023 85.0955 149.168 85.0115 149.431L69.5965 197.707C69.5125 197.97 69.6576 198.252 69.9207 198.336C70.1837 198.42 70.4651 198.275 70.5491 198.012L85.9641 149.736ZM123.187 19.2318C123.454 19.3041 123.611 19.5788 123.539 19.8453L114.834 51.9273C114.761 52.1938 114.487 52.3513 114.22 52.279C113.954 52.2066 113.796 51.932 113.869 51.6655L122.574 19.5835C122.646 19.3169 122.92 19.1595 123.187 19.2318ZM88.1314 150.335C88.2037 150.068 88.0463 149.793 87.7798 149.721C87.5133 149.649 87.2386 149.806 87.1663 150.073L78.4613 182.155C78.389 182.421 78.5464 182.696 78.8129 182.768C79.0794 182.841 79.3541 182.683 79.4264 182.417L88.1314 150.335ZM90.3224 150.841C90.3829 150.572 90.2135 150.305 89.944 150.244C89.6746 150.184 89.4072 150.353 89.3467 150.622L78.7176 197.97C78.6571 198.24 78.8265 198.507 79.0959 198.568C79.3654 198.628 79.6328 198.459 79.6933 198.19L90.3224 150.841ZM117.317 9.61767C117.589 9.66621 117.77 9.92593 117.721 10.1978L110.45 50.9237C110.402 51.1956 110.142 51.3766 109.87 51.3281C109.598 51.2795 109.417 51.0198 109.466 50.748L116.737 10.022C116.785 9.75017 117.045 9.56914 117.317 9.61767ZM92.5342 151.252C92.5828 150.98 92.4017 150.72 92.1299 150.672C91.858 150.623 91.5983 150.804 91.5498 151.076L84.2788 191.802C84.2303 192.074 84.4113 192.334 84.6831 192.382C84.955 192.431 85.2147 192.25 85.2632 191.978L92.5342 151.252ZM113.988 3.57668C114.262 3.61317 114.454 3.86465 114.417 4.13837L108.228 50.5663C108.191 50.84 107.94 51.0323 107.666 50.9958C107.393 50.9593 107.2 50.7079 107.237 50.4341L113.426 4.00622C113.463 3.7325 113.714 3.54019 113.988 3.57668ZM94.763 151.566C94.7995 151.292 94.6072 151.041 94.3335 151.004C94.0598 150.968 93.8083 151.16 93.7718 151.434L87.5824 197.862C87.5459 198.136 87.7382 198.387 88.0119 198.424C88.2857 198.46 88.5371 198.268 88.5736 197.994L94.763 151.566ZM108.258 19.0679C108.534 19.0923 108.737 19.335 108.712 19.61L105.994 50.3059C105.97 50.581 105.727 50.7842 105.452 50.7599C105.177 50.7355 104.974 50.4928 104.998 50.2177L107.716 19.5218C107.741 19.2468 107.983 19.0435 108.258 19.0679ZM97.0018 151.782C97.0262 151.507 96.823 151.265 96.5479 151.24C96.2728 151.216 96.0301 151.419 96.0057 151.694L93.2877 182.39C93.2634 182.665 93.4666 182.908 93.7417 182.932C94.0167 182.957 94.2595 182.753 94.2838 182.478L97.0018 151.782ZM104.801 15.0249C105.077 15.0371 105.291 15.2706 105.279 15.5465L103.75 50.1405C103.737 50.4163 103.504 50.6301 103.228 50.6179C102.952 50.6057 102.738 50.3722 102.751 50.0963L104.28 15.5024C104.292 15.2265 104.526 15.0127 104.801 15.0249ZM99.2495 151.904C99.2617 151.628 99.048 151.395 98.7721 151.382C98.4962 151.37 98.2627 151.584 98.2505 151.86L96.7213 186.454C96.7091 186.73 96.9229 186.963 97.1988 186.975C97.4746 186.988 97.7082 186.774 97.7203 186.498L99.2495 151.904ZM101.5 151.928C101.5 151.652 101.276 151.428 101 151.428C100.724 151.428 100.5 151.652 100.5 151.928V199.522C100.5 199.799 100.724 200.022 101 200.022C101.276 200.022 101.5 199.799 101.5 199.522V151.928ZM96.6497 2.60452C96.9256 2.59233 97.1591 2.80608 97.1713 3.08196L99.2493 50.1001C99.2615 50.376 99.0478 50.6095 98.7719 50.6217C98.496 50.6339 98.2625 50.4201 98.2503 50.1443L96.1722 3.12611C96.1601 2.85024 96.3738 2.61671 96.6497 2.60452ZM103.75 151.856C103.737 151.58 103.504 151.366 103.228 151.378C102.952 151.391 102.738 151.624 102.751 151.9L104.829 198.918C104.841 199.194 105.074 199.408 105.35 199.396C105.626 199.383 105.84 199.15 105.828 198.874L103.75 151.856ZM149.723 116.169C149.805 115.905 150.085 115.758 150.349 115.84L197.957 130.664C198.22 130.746 198.368 131.026 198.286 131.29C198.203 131.554 197.923 131.701 197.659 131.619L150.051 116.795C149.788 116.713 149.641 116.432 149.723 116.169ZM201.022 97.1876C201.297 97.1757 201.511 96.9424 201.5 96.6665C201.488 96.3906 201.254 96.1766 200.978 96.1885L152.502 98.2783C152.226 98.2902 152.012 98.5235 152.024 98.7994C152.035 99.0753 152.269 99.2893 152.545 99.2774L201.022 97.1876ZM93.6647 18.208C93.9398 18.1837 94.1825 18.3869 94.2069 18.6619L97.0039 50.2219C97.0283 50.497 96.8251 50.7397 96.55 50.7641C96.275 50.7885 96.0322 50.5852 96.0079 50.3102L93.2108 18.7502C93.1864 18.4752 93.3897 18.2324 93.6647 18.208ZM105.992 151.69C105.968 151.415 105.725 151.212 105.45 151.236C105.175 151.261 104.972 151.503 104.996 151.779L107.793 183.339C107.818 183.614 108.06 183.817 108.335 183.792C108.611 183.768 108.814 183.525 108.789 183.25L105.992 151.69ZM150.862 111.923C150.921 111.653 151.188 111.482 151.458 111.541L198.199 121.763C198.468 121.822 198.639 122.089 198.58 122.359C198.521 122.628 198.255 122.799 197.985 122.74L151.244 112.518C150.974 112.459 150.803 112.193 150.862 111.923ZM196.814 93.2321C197.089 93.2083 197.293 92.9661 197.269 92.6909C197.246 92.4158 197.003 92.212 196.728 92.2358L152.31 96.0678C152.035 96.0915 151.831 96.3338 151.855 96.6089C151.879 96.884 152.121 97.0878 152.396 97.0641L196.814 93.2321ZM108.228 151.428C108.191 151.154 107.94 150.962 107.666 150.999C107.393 151.035 107.2 151.287 107.237 151.56L113.837 201.066C113.874 201.34 114.125 201.532 114.399 201.496C114.673 201.459 114.865 201.208 114.829 200.934L108.228 151.428ZM200.412 88.0752C200.448 88.3491 200.255 88.5999 199.981 88.6355L152.199 94.8474C151.925 94.883 151.674 94.6899 151.639 94.4161C151.603 94.1422 151.796 93.8914 152.07 93.8558L199.852 87.6439C200.126 87.6083 200.377 87.8014 200.412 88.0752ZM151.886 109.354C151.614 109.306 151.355 109.488 151.307 109.76C151.26 110.033 151.442 110.291 151.714 110.339L188.138 116.681C188.41 116.728 188.669 116.546 188.717 116.274C188.764 116.002 188.582 115.743 188.31 115.696L151.886 109.354ZM85.6997 15.3203C85.9715 15.2718 86.2313 15.4528 86.2798 15.7246L92.5361 50.7547C92.5846 51.0265 92.4036 51.2863 92.1318 51.3348C91.8599 51.3834 91.6002 51.2023 91.5517 50.9305L85.2954 15.9004C85.2468 15.6286 85.4279 15.3689 85.6997 15.3203ZM110.448 151.07C110.4 150.798 110.14 150.617 109.868 150.666C109.596 150.715 109.415 150.974 109.464 151.246L115.72 186.276C115.769 186.548 116.029 186.729 116.3 186.681C116.572 186.632 116.753 186.372 116.705 186.1L110.448 151.07ZM188.689 85.7321C188.736 86.0042 188.554 86.2631 188.282 86.3105L151.88 92.6486C151.608 92.6959 151.349 92.5138 151.302 92.2418C151.254 91.9697 151.436 91.7108 151.708 91.6634L188.11 85.3253C188.382 85.2779 188.641 85.4601 188.689 85.7321ZM152.205 107.152C151.931 107.117 151.68 107.31 151.644 107.584C151.609 107.857 151.802 108.108 152.076 108.144L191.525 113.274C191.799 113.309 192.05 113.116 192.086 112.842C192.121 112.568 191.928 112.318 191.654 112.282L152.205 107.152ZM81.1473 12.5766C81.4167 12.5161 81.6842 12.6855 81.7447 12.9549L90.3241 51.1629C90.3846 51.4324 90.2152 51.6998 89.9458 51.7603C89.6763 51.8208 89.4089 51.6515 89.3484 51.382L80.769 13.174C80.7085 12.9046 80.8779 12.6371 81.1473 12.5766ZM112.652 150.619C112.591 150.349 112.324 150.18 112.055 150.24C111.785 150.301 111.616 150.568 111.676 150.838L120.256 189.046C120.316 189.315 120.584 189.484 120.853 189.424C121.122 189.363 121.292 189.096 121.231 188.827L112.652 150.619ZM196.863 80.0132C196.922 80.283 196.751 80.5495 196.481 80.6086L151.466 90.4646C151.196 90.5237 150.929 90.3529 150.87 90.0831C150.811 89.8134 150.982 89.5468 151.252 89.4878L196.267 79.6317C196.537 79.5727 196.803 79.7435 196.863 80.0132ZM152.424 104.942C152.149 104.919 151.907 105.122 151.883 105.397C151.859 105.673 152.063 105.915 152.338 105.939L191.462 109.318C191.737 109.342 191.979 109.138 192.003 108.863C192.027 108.588 191.823 108.346 191.548 108.322L152.424 104.942ZM77.9155 15.9271C78.182 15.8548 78.4566 16.0123 78.5289 16.2788L88.1312 51.6668C88.2035 51.9333 88.0461 52.208 87.7796 52.2803C87.5131 52.3526 87.2384 52.1952 87.1661 51.9287L77.5638 16.5406C77.4915 16.2741 77.649 15.9995 77.9155 15.9271ZM114.834 150.071C114.761 149.805 114.487 149.647 114.22 149.72C113.954 149.792 113.796 150.067 113.869 150.333L123.471 185.721C123.543 185.988 123.818 186.145 124.084 186.073C124.351 186 124.508 185.726 124.436 185.459L114.834 150.071ZM194.285 76.3165C194.356 76.5834 194.197 76.8571 193.93 76.9277L150.954 88.2998C150.687 88.3704 150.413 88.2113 150.342 87.9443C150.272 87.6774 150.431 87.4037 150.698 87.3331L193.674 75.961C193.941 75.8904 194.215 76.0495 194.285 76.3165ZM152.548 102.723C152.272 102.711 152.039 102.925 152.027 103.201C152.015 103.477 152.229 103.71 152.505 103.722L190.77 105.372C191.046 105.384 191.279 105.17 191.291 104.894C191.303 104.618 191.089 104.385 190.813 104.373L152.548 102.723ZM74.6806 18.5696C74.9436 18.4856 75.225 18.6308 75.309 18.8938L85.9644 52.2657C86.0484 52.5288 85.9033 52.8101 85.6402 52.8941C85.3772 52.9781 85.0958 52.8329 85.0118 52.5699L74.3563 19.198C74.2723 18.935 74.4175 18.6536 74.6806 18.5696ZM116.989 149.43C116.905 149.167 116.623 149.022 116.36 149.106C116.097 149.19 115.952 149.472 116.036 149.735L126.692 183.107C126.776 183.37 127.057 183.515 127.32 183.431C127.583 183.347 127.728 183.065 127.644 182.802L116.989 149.43ZM67.605 10.3966C67.8641 10.3011 68.1516 10.4337 68.2471 10.6928L83.8261 52.9588C83.9216 53.2179 83.789 53.5054 83.5299 53.6009C83.2708 53.6964 82.9834 53.5638 82.8878 53.3047L67.3088 11.0387C67.2133 10.7796 67.3459 10.4921 67.605 10.3966ZM119.112 148.695C119.016 148.436 118.729 148.303 118.47 148.399C118.211 148.494 118.078 148.782 118.173 149.041L133.752 191.307C133.848 191.566 134.135 191.698 134.395 191.603C134.654 191.507 134.786 191.22 134.691 190.961L119.112 148.695ZM181.404 75.9735C181.486 76.2371 181.339 76.5174 181.075 76.5995L150.336 86.1694C150.073 86.2515 149.792 86.1043 149.71 85.8407C149.628 85.577 149.775 85.2967 150.039 85.2146L180.778 75.6447C181.042 75.5626 181.322 75.7098 181.404 75.9735ZM164.978 48.633C165.191 48.4568 165.22 48.1416 165.044 47.929C164.868 47.7164 164.553 47.6869 164.34 47.8631L140.177 67.8891C139.965 68.0653 139.935 68.3805 140.112 68.5931C140.288 68.8057 140.603 68.8352 140.816 68.659L164.978 48.633ZM185.543 70.6088C185.637 70.8686 185.502 71.155 185.242 71.2484L149.618 84.0505C149.358 84.1439 149.072 84.009 148.978 83.7491C148.885 83.4892 149.02 83.2029 149.28 83.1095L184.904 70.3073C185.163 70.2139 185.45 70.3489 185.543 70.6088ZM64.3931 12.4346C64.2863 12.1799 63.9933 12.0601 63.7386 12.1669C63.484 12.2737 63.3641 12.5667 63.4709 12.8214L80.7978 54.1294C80.9046 54.384 81.1977 54.5039 81.4523 54.397C81.707 54.2902 81.8268 53.9972 81.72 53.7426L64.3931 12.4346ZM120.548 147.603C120.802 147.496 121.095 147.616 121.202 147.871L138.529 189.179C138.636 189.433 138.516 189.726 138.261 189.833C138.007 189.94 137.714 189.82 137.607 189.565L120.28 148.257C120.173 148.003 120.293 147.71 120.548 147.603ZM194.271 63.391C194.526 63.2865 194.649 62.9946 194.544 62.739C194.44 62.4834 194.148 62.3609 193.892 62.4655L148.471 81.0436C148.216 81.1481 148.093 81.4401 148.198 81.6957C148.303 81.9512 148.594 82.0737 148.85 81.9692L194.271 63.391ZM61.8226 18.0362C62.0723 17.9183 62.3703 18.0251 62.4883 18.2748L79.6511 54.6187C79.769 54.8684 79.6622 55.1665 79.4125 55.2844C79.1628 55.4023 78.8648 55.2955 78.7468 55.0458L61.584 18.7018C61.4661 18.4521 61.5729 18.1541 61.8226 18.0362ZM123.253 146.954C123.135 146.704 122.837 146.597 122.587 146.715C122.338 146.833 122.231 147.131 122.349 147.381L139.512 183.725C139.629 183.975 139.927 184.081 140.177 183.964C140.427 183.846 140.534 183.548 140.416 183.298L123.253 146.954ZM191.133 59.497C191.248 59.7478 191.139 60.0448 190.888 60.1602L147.962 79.9263C147.711 80.0418 147.415 79.9321 147.299 79.6812C147.184 79.4304 147.293 79.1334 147.544 79.0179L190.469 59.2519C190.72 59.1364 191.017 59.2461 191.133 59.497ZM62.3931 26.6951C62.2643 26.4508 61.9619 26.3572 61.7176 26.486C61.4734 26.6147 61.3797 26.9172 61.5085 27.1614L76.7391 56.0495C76.8679 56.2938 77.1704 56.3874 77.4146 56.2586C77.6589 56.1298 77.7525 55.8274 77.6237 55.5831L62.3931 26.6951ZM124.585 145.742C124.829 145.613 125.132 145.707 125.26 145.951L140.491 174.839C140.62 175.083 140.526 175.386 140.282 175.514C140.038 175.643 139.735 175.55 139.606 175.305L124.376 146.417C124.247 146.173 124.341 145.871 124.585 145.742ZM188.321 56.6747C188.567 56.5485 188.663 56.247 188.537 56.0014C188.411 55.7558 188.11 55.6591 187.864 55.7853L146.528 77.0332C146.283 77.1594 146.186 77.4608 146.312 77.7064C146.439 77.952 146.74 78.0488 146.986 77.9225L188.321 56.6747ZM58.539 28.3785C58.7774 28.2391 59.0836 28.3193 59.223 28.5577L75.6406 56.6337C75.78 56.872 75.6997 57.1783 75.4613 57.3177C75.223 57.4571 74.9167 57.3768 74.7773 57.1385L58.3598 29.0625C58.2204 28.8241 58.3006 28.5179 58.539 28.3785ZM127.223 144.862C127.083 144.624 126.777 144.543 126.539 144.683C126.3 144.822 126.22 145.128 126.359 145.367L142.777 173.443C142.916 173.681 143.223 173.761 143.461 173.622C143.699 173.482 143.78 173.176 143.64 172.938L127.223 144.862ZM184.454 53.4203C184.59 53.6602 184.507 53.9656 184.267 54.1024L145.921 75.9664C145.681 76.1032 145.376 76.0196 145.239 75.7797C145.102 75.5398 145.186 75.2345 145.425 75.0977L183.772 53.2336C184.011 53.0969 184.317 53.1805 184.454 53.4203ZM46.6342 15.8071C46.4845 15.5751 46.175 15.5083 45.9429 15.658C45.7109 15.8077 45.6441 16.1172 45.7938 16.3492L72.8648 58.3132C73.0145 58.5453 73.3239 58.6121 73.556 58.4624C73.788 58.3127 73.8548 58.0032 73.7051 57.7712L46.6342 15.8071ZM128.444 143.538C128.676 143.388 128.986 143.455 129.135 143.687L156.206 185.651C156.356 185.883 156.289 186.193 156.057 186.342C155.825 186.492 155.516 186.425 155.366 186.193L128.295 144.229C128.145 143.997 128.212 143.688 128.444 143.538ZM183.301 49.8153C183.535 49.6683 183.605 49.3596 183.458 49.1259C183.311 48.8921 183.002 48.8219 182.769 48.9689L144.236 73.2089C144.003 73.356 143.932 73.6647 144.079 73.8984C144.226 74.1321 144.535 74.2024 144.769 74.0554L183.301 49.8153ZM52.886 33.1459C53.1112 32.9861 53.4233 33.0393 53.583 33.2645L71.8234 58.9885C71.9832 59.2138 71.93 59.5259 71.7048 59.6856C71.4795 59.8454 71.1674 59.7922 71.0077 59.567L52.7673 33.843C52.6076 33.6177 52.6607 33.3056 52.886 33.1459ZM130.992 142.433C130.832 142.208 130.52 142.155 130.295 142.314C130.07 142.474 130.017 142.786 130.176 143.011L148.417 168.735C148.576 168.961 148.888 169.014 149.114 168.854C149.339 168.694 149.392 168.382 149.232 168.157L130.992 142.433ZM183.801 43.7474C183.958 43.9745 183.901 44.286 183.674 44.443L143.535 72.1969C143.308 72.354 142.997 72.2972 142.839 72.07C142.682 71.8429 142.739 71.5315 142.966 71.3744L183.105 43.6205C183.332 43.4635 183.644 43.5203 183.801 43.7474ZM45.1444 28.305C44.975 28.087 44.6609 28.0476 44.4428 28.217C44.2248 28.3865 44.1854 28.7006 44.3548 28.9186L69.208 60.9007C69.3774 61.1187 69.6915 61.1581 69.9096 60.9887C70.1276 60.8192 70.167 60.5051 69.9976 60.2871L45.1444 28.305ZM132.09 141.011C132.308 140.842 132.622 140.881 132.792 141.099L157.645 173.081C157.814 173.299 157.775 173.613 157.557 173.783C157.339 173.952 157.025 173.913 156.855 173.695L132.002 141.713C131.833 141.495 131.872 141.18 132.09 141.011ZM171.385 48.2946C171.606 48.1278 171.649 47.8142 171.482 47.5941C171.315 47.374 171.002 47.3307 170.782 47.4975L141.616 69.5953C141.396 69.7621 141.353 70.0757 141.52 70.2958C141.687 70.5159 142 70.5592 142.22 70.3924L171.385 48.2946ZM39.0083 28.0448C39.2187 27.866 39.5342 27.8916 39.7131 28.102L68.23 61.662C68.4089 61.8724 68.3832 62.188 68.1728 62.3668C67.9624 62.5456 67.6468 62.52 67.468 62.3095L38.951 28.7496C38.7722 28.5391 38.7978 28.2236 39.0083 28.0448ZM134.532 139.69C134.353 139.48 134.038 139.454 133.827 139.633C133.617 139.812 133.591 140.128 133.77 140.338L162.287 173.898C162.466 174.108 162.782 174.134 162.992 173.955C163.202 173.776 163.228 173.461 163.049 173.25L134.532 139.69ZM150.345 114.056C150.415 113.789 150.689 113.63 150.956 113.701L197.015 125.889C197.282 125.959 197.441 126.233 197.37 126.5C197.299 126.767 197.026 126.926 196.759 126.856L150.7 114.667C150.433 114.597 150.274 114.323 150.345 114.056ZM34.4568 28.5559C34.269 28.3535 33.9526 28.3417 33.7502 28.5295C33.5478 28.7174 33.536 29.0337 33.7238 29.2361L65.7913 63.792C65.9792 63.9944 66.2955 64.0062 66.4979 63.8184C66.7004 63.6305 66.7122 63.3142 66.5243 63.1118L34.4568 28.5559ZM135.502 138.181C135.704 137.994 136.021 138.005 136.209 138.208L168.276 172.764C168.464 172.966 168.452 173.282 168.25 173.47C168.047 173.658 167.731 173.646 167.543 173.444L135.476 138.888C135.288 138.686 135.3 138.369 135.502 138.181ZM29.4064 29.6003C29.2099 29.4063 28.8933 29.4083 28.6993 29.6048C28.5053 29.8013 28.5072 30.1178 28.7037 30.3119L64.182 65.3458C64.3785 65.5399 64.6951 65.5379 64.8891 65.3414C65.0831 65.1449 65.0811 64.8283 64.8846 64.6343L29.4064 29.6003ZM137.111 136.659C137.305 136.462 137.621 136.46 137.818 136.655L173.296 171.688C173.492 171.883 173.494 172.199 173.3 172.396C173.106 172.592 172.79 172.594 172.593 172.4L137.115 137.366C136.919 137.172 136.917 136.855 137.111 136.659ZM27.7523 34.0468C27.5476 33.8615 27.2314 33.8773 27.0461 34.082C26.8608 34.2868 26.8766 34.603 27.0814 34.7883L62.6406 66.9642C62.8453 67.1495 63.1615 67.1337 63.3468 66.929C63.5321 66.7242 63.5163 66.408 63.3115 66.2227L27.7523 34.0468ZM138.653 135.07C138.839 134.866 139.155 134.85 139.359 135.035L174.919 167.211C175.123 167.396 175.139 167.712 174.954 167.917C174.769 168.122 174.452 168.138 174.248 167.953L138.689 135.777C138.484 135.591 138.468 135.275 138.653 135.07ZM32.8946 43.9192C32.6819 43.743 32.3667 43.7726 32.1906 43.9852C32.0144 44.1979 32.0439 44.5131 32.2566 44.6892L61.1746 68.6494C61.3872 68.8256 61.7024 68.796 61.8786 68.5834C62.0548 68.3707 62.0252 68.0555 61.8126 67.8794L32.8946 43.9192ZM140.122 133.417C140.298 133.204 140.613 133.175 140.826 133.351L169.744 157.311C169.956 157.487 169.986 157.802 169.81 158.015C169.633 158.228 169.318 158.257 169.106 158.081L140.188 134.121C139.975 133.945 139.945 133.63 140.122 133.417ZM35.5874 50.8076C35.3673 50.6408 35.0537 50.684 34.8869 50.9041C34.7201 51.1242 34.7633 51.4378 34.9834 51.6046L59.7819 70.3966C60.002 70.5634 60.3156 70.5201 60.4824 70.3001C60.6492 70.08 60.6059 69.7663 60.3858 69.5996L35.5874 50.8076ZM141.518 131.7C141.685 131.48 141.998 131.437 142.218 131.603L167.017 150.395C167.237 150.562 167.28 150.876 167.113 151.096C166.947 151.316 166.633 151.359 166.413 151.192L141.614 132.4C141.394 132.234 141.351 131.92 141.518 131.7ZM18.6801 43.4726C18.453 43.3155 18.1415 43.3723 17.9845 43.5995C17.8274 43.8266 17.8843 44.138 18.1114 44.2951L58.4687 72.1992C58.6959 72.3562 59.0073 72.2994 59.1643 72.0723C59.3214 71.8451 59.2646 71.5337 59.0374 71.3766L18.6801 43.4726ZM142.836 129.928C142.993 129.7 143.304 129.644 143.531 129.801L183.889 157.705C184.116 157.862 184.173 158.173 184.016 158.4C183.859 158.628 183.547 158.684 183.32 158.527L142.963 130.623C142.736 130.466 142.679 130.155 142.836 129.928ZM21.8763 50.633C21.6426 50.4859 21.3339 50.5562 21.1869 50.7899C21.0398 51.0237 21.1101 51.3324 21.3439 51.4794L57.2352 74.0573C57.469 74.2044 57.7776 74.1341 57.9247 73.9003C58.0717 73.6666 58.0014 73.3579 57.7677 73.2109L21.8763 50.633ZM144.075 128.1C144.222 127.866 144.531 127.795 144.765 127.943L180.656 150.52C180.89 150.667 180.96 150.976 180.813 151.21C180.666 151.444 180.357 151.514 180.124 151.367L144.232 128.789C143.999 128.642 143.928 128.333 144.075 128.1ZM24.7823 56.9714C24.5424 56.8347 24.2371 56.9183 24.1003 57.1581C23.9635 57.398 24.0471 57.7034 24.287 57.8402L56.0832 75.9681C56.3231 76.1049 56.6284 76.0213 56.7652 75.7814C56.9019 75.5415 56.8183 75.2361 56.5784 75.0993L24.7823 56.9714ZM145.235 126.219C145.372 125.979 145.677 125.895 145.917 126.032L177.713 144.16C177.953 144.297 178.036 144.602 177.9 144.842C177.763 145.082 177.458 145.165 177.218 145.029L145.422 126.901C145.182 126.764 145.098 126.459 145.235 126.219ZM16.182 56.8376C15.9364 56.7113 15.6349 56.8081 15.5087 57.0537C15.3824 57.2993 15.4792 57.6007 15.7248 57.7269L55.0188 77.925C55.2644 78.0512 55.5658 77.9545 55.6921 77.7089C55.8183 77.4633 55.7216 77.1618 55.476 77.0356L16.182 56.8376ZM146.308 124.291C146.434 124.046 146.736 123.949 146.981 124.075L186.275 144.273C186.521 144.4 186.618 144.701 186.492 144.947C186.365 145.192 186.064 145.289 185.818 145.163L146.524 124.965C146.279 124.839 146.182 124.537 146.308 124.291ZM22.6538 64.3735C22.403 64.258 22.106 64.3677 21.9905 64.6186C21.875 64.8694 21.9848 65.1664 22.2356 65.2818L54.0418 79.926C54.2926 80.0415 54.5896 79.9317 54.7051 79.6809C54.8206 79.4301 54.7109 79.1331 54.46 79.0176L22.6538 64.3735ZM147.295 122.317C147.411 122.066 147.708 121.956 147.959 122.072L179.765 136.718C180.016 136.833 180.125 137.13 180.01 137.381C179.894 137.632 179.597 137.742 179.347 137.626L147.54 122.98C147.289 122.865 147.18 122.568 147.295 122.317ZM11.0446 63.6652C10.7891 63.5606 10.4971 63.6831 10.3926 63.9387C10.288 64.1943 10.4105 64.4862 10.6661 64.5907L53.152 81.9689C53.4076 82.0734 53.6995 81.951 53.8041 81.6954C53.9086 81.4398 53.7862 81.1478 53.5306 81.0433L11.0446 63.6652ZM148.196 120.305C148.301 120.049 148.592 119.927 148.848 120.031L191.334 137.41C191.59 137.514 191.712 137.806 191.607 138.062C191.503 138.317 191.211 138.44 190.955 138.335L148.469 120.957C148.214 120.852 148.091 120.56 148.196 120.305ZM15.7941 69.8454C15.5342 69.752 15.2479 69.887 15.1545 70.1468C15.0611 70.4067 15.196 70.6931 15.4559 70.7865L52.3559 84.0484C52.6157 84.1418 52.9021 84.0068 52.9955 83.747C53.0889 83.4871 52.954 83.2007 52.6941 83.1073L15.7941 69.8454ZM149.004 118.253C149.097 117.993 149.384 117.858 149.644 117.952L186.544 131.214C186.804 131.307 186.939 131.594 186.845 131.853C186.752 132.113 186.465 132.248 186.205 132.155L149.305 118.893C149.046 118.8 148.911 118.513 149.004 118.253ZM4.34043 70.3805C4.07677 70.2985 3.79648 70.4456 3.71438 70.7093C3.63229 70.9729 3.77947 71.2532 4.04313 71.3353L51.6512 86.1594C51.9148 86.2414 52.1951 86.0943 52.2772 85.8306C52.3593 85.567 52.2121 85.2867 51.9485 85.2046L4.34043 70.3805ZM4.63017 75.4996C4.70081 75.2326 4.97448 75.0735 5.24144 75.1441L51.3001 87.3322C51.5671 87.4028 51.7262 87.6765 51.6556 87.9435C51.5849 88.2104 51.3113 88.3696 51.0443 88.2989L4.98562 76.1108C4.71867 76.0402 4.55953 75.7665 4.63017 75.4996ZM4.00926 79.2557C3.73951 79.1967 3.47296 79.3675 3.41391 79.6373C3.35486 79.907 3.52568 80.1736 3.79543 80.2326L50.5306 90.4627C50.8003 90.5217 51.0669 90.3509 51.1259 90.0812C51.185 89.8114 51.0141 89.5449 50.7444 89.4858L4.00926 79.2557ZM13.2833 85.7263C13.3307 85.4542 13.5896 85.2721 13.8617 85.3195L50.2857 91.6614C50.5578 91.7088 50.7399 91.9678 50.6926 92.2398C50.6452 92.5118 50.3863 92.694 50.1142 92.6466L13.6901 86.3046C13.4181 86.2573 13.2359 85.9983 13.2833 85.7263ZM10.4745 88.7259C10.2007 88.6903 9.94982 88.8834 9.91421 89.1572C9.8786 89.4311 10.0717 89.6819 10.3456 89.7175L49.7954 94.8474C50.0693 94.883 50.3201 94.6899 50.3557 94.4161C50.3913 94.1422 50.1982 93.8914 49.9244 93.8558L10.4745 88.7259ZM9.99673 93.1372C10.0205 92.8621 10.2628 92.6583 10.5379 92.6821L49.6617 96.0619C49.9368 96.0857 50.1406 96.328 50.1168 96.6031C50.0931 96.8782 49.8508 97.082 49.5756 97.0582L10.4518 93.6784C10.1767 93.6546 9.97297 93.4123 9.99673 93.1372ZM11.2294 96.6284C10.9535 96.6165 10.7203 96.8305 10.7084 97.1064C10.6965 97.3823 10.9105 97.6156 11.1864 97.6275L49.4514 99.2775C49.7273 99.2894 49.9605 99.0754 49.9724 98.7995C49.9843 98.5236 49.7703 98.2903 49.4944 98.2784L11.2294 96.6284Z" fill="#03001B"/>
</svg>
