<svg width="63" height="62" viewBox="0 0 63 62" fill="none" xmlns="http://www.w3.org/2000/svg">
<path opacity="0.7" d="M2.39725 30.9245L1.89727 30.9284L1.89727 30.9285L2.39725 30.9245ZM1.12844 24.6875L1.6071 24.832L1.6071 24.832L1.12844 24.6875ZM6.97278 19.1508L6.56566 18.8605L6.56562 18.8606L6.97278 19.1508ZM8.11831 14.1371L8.59933 14.2736L8.59934 14.2736L8.11831 14.1371ZM12.8973 9.76511L12.6659 9.32188L12.6658 9.32193L12.8973 9.76511ZM19.6005 6.14839L19.8918 6.55481L19.8918 6.5548L19.6005 6.14839ZM23.0335 3.29833L23.3169 3.7103L23.317 3.71024L23.0335 3.29833ZM32.7257 1.00006L32.7247 1.50006L32.7248 1.50006L32.7257 1.00006ZM46.6115 3.46233L46.4636 3.93998L46.4637 3.94L46.6115 3.46233ZM55.2161 9.76511L54.7182 9.81084L54.7182 9.81089L55.2161 9.76511ZM57.7352 14.1946L57.396 14.562L57.3961 14.562L57.7352 14.1946ZM61.9175 19.2771L62.4108 19.3587L62.4108 19.3587L61.9175 19.2771ZM56.7758 24.8946L56.2865 24.9977L56.2865 24.9978L56.7758 24.8946ZM62.2479 30.9251L61.7479 30.9325L61.7479 30.9326L62.2479 30.9251ZM61.8199 36.9556L61.3277 36.868L61.3277 36.868L61.8199 36.9556ZM60.9402 42.5731L60.4704 42.4019L60.4704 42.4019L60.9402 42.5731ZM53.5918 47.6556L53.3446 47.2209L53.3445 47.221L53.5918 47.6556ZM50.9554 49.8532L50.4956 49.6568L50.4955 49.6569L50.9554 49.8532ZM50.8626 52.085L51.36 52.0342L51.36 52.0338L50.8626 52.085ZM49.4603 55.5845L49.1569 55.1871L49.1569 55.1871L49.4603 55.5845ZM44.4048 58.3879L44.6038 58.8466L44.6039 58.8465L44.4048 58.3879ZM32.5018 60.8501L32.5026 61.3501H32.5026L32.5018 60.8501ZM11.6255 52.085L12.0015 51.7554H12.0015L11.6255 52.085ZM5.93858 42.8275L6.39617 42.6259L6.39614 42.6259L5.93858 42.8275ZM4.13829 37.2333L3.65227 37.3507L3.65229 37.3508L4.13829 37.2333ZM37.127 21.9468L36.8431 21.5352L36.8431 21.5352L37.127 21.9468ZM34.891 25.56L35.3395 25.3389L35.3394 25.3387L34.891 25.56ZM37.6513 28.2921L37.3364 28.6805L37.3365 28.6805L37.6513 28.2921ZM41.3003 30.9243L41.2959 31.4243L41.2959 31.4243L41.3003 30.9243ZM41.7654 28.2909L41.3425 28.5576L41.3425 28.5577L41.7654 28.2909ZM39.9561 25.2876L39.4603 25.3519L39.4603 25.3519L39.9561 25.2876ZM42.89 21.9474L43.1635 22.3659L43.1636 22.3659L42.89 21.9474ZM46.3499 18.5826L46.8498 18.5892V18.5892L46.3499 18.5826ZM44.6873 15.6027L44.3039 15.9237L44.3041 15.9239L44.6873 15.6027ZM41.5248 12.9705L41.5219 13.4705H41.5221L41.5248 12.9705ZM40.4583 15.6039L39.9643 15.6813L39.9643 15.6814L40.4583 15.6039ZM40.8138 18.3037L41.3098 18.3665L41.3099 18.3659L40.8138 18.3037ZM19.8746 21.9468L19.5506 21.5659L19.5506 21.566L19.8746 21.9468ZM18.0588 25.4414L18.5354 25.2903L18.5353 25.2902L18.0588 25.4414ZM20.2068 28.2951L20.567 27.9483L20.5669 27.9483L20.2068 28.2951ZM23.3447 30.9243L23.351 30.4243L23.3507 30.4243L23.3447 30.9243ZM24.3257 28.2951L23.8546 28.4629L23.8546 28.4629L24.3257 28.2951ZM23.2268 25.4414L22.7284 25.4816L22.7284 25.4818L23.2268 25.4414ZM25.637 21.9468L25.3258 21.5554L25.3258 21.5555L25.637 21.9468ZM28.3727 18.4522L27.8757 18.5065L27.8757 18.5066L28.3727 18.4522ZM26.731 15.5985L27.1151 15.2784L27.1151 15.2784L26.731 15.5985ZM23.5692 12.9693L23.5677 13.4693H23.5679L23.5692 12.9693ZM22.499 15.5985L22.9929 15.5207L22.9929 15.5206L22.499 15.5985ZM22.8635 18.1367L22.3641 18.1121L22.3641 18.1124L22.8635 18.1367ZM17.4025 43.4586L17.8319 43.2025L17.8319 43.2025L17.4025 43.4586ZM20.1394 48.0719L19.7417 48.3749L19.7418 48.3749L20.1394 48.0719ZM30.6521 52.3703L30.6509 51.8703H30.6508L30.6521 52.3703ZM40.99 48.0737L41.2158 48.5198L41.2159 48.5197L40.99 48.0737ZM48.4838 43.3276L48.9223 43.5679L48.9223 43.5679L48.4838 43.3276ZM49.496 39.7733L49.0008 39.7045L49.496 39.7733ZM15.6636 39.6953L15.1887 39.8516L15.6636 39.6953ZM2.89724 30.9206C2.88826 29.7727 2.36117 28.6193 1.98878 27.6349C1.5943 26.5922 1.34648 25.6953 1.6071 24.832L0.649773 24.543C0.28197 25.7613 0.660472 26.9499 1.05347 27.9888C1.46856 29.086 1.89009 30.0103 1.89727 30.9284L2.89724 30.9206ZM1.6071 24.832C1.9377 23.7369 2.88215 22.9578 4.06793 22.1491C4.63743 21.7607 5.27611 21.3556 5.84382 20.9314C6.41822 20.5021 6.96679 20.0207 7.37995 19.441L6.56562 18.8606C6.23934 19.3184 5.78437 19.7274 5.24522 20.1303C4.69938 20.5382 4.11451 20.9069 3.50451 21.3229C2.33131 22.123 1.09303 23.0747 0.649772 24.543L1.6071 24.832ZM7.3799 19.4411C7.98914 18.5866 8.16767 17.6468 8.26388 16.7665C8.36389 15.8516 8.3767 15.0583 8.59933 14.2736L7.6373 14.0007C7.38412 14.893 7.35713 15.859 7.2698 16.6579C7.17869 17.4914 7.02235 18.22 6.56566 18.8605L7.3799 19.4411ZM8.59934 14.2736C8.88464 13.2677 9.51005 12.5121 10.3256 11.8738C11.1516 11.2272 12.1385 10.7256 13.1288 10.2083L12.6658 9.32193C11.7027 9.82505 10.623 10.3711 9.70924 11.0863C8.78512 11.8097 7.99777 12.7298 7.63729 14.0007L8.59934 14.2736ZM13.1287 10.2083C15.3069 9.0712 17.7932 8.05868 19.8918 6.55481L19.3093 5.74197C17.2854 7.1923 14.9634 8.12248 12.6659 9.32188L13.1287 10.2083ZM19.8918 6.5548C20.5252 6.10089 21.0978 5.57938 21.6456 5.08587C22.201 4.58555 22.7333 4.11167 23.3169 3.7103L22.7502 2.88636C22.1051 3.33007 21.5271 3.84671 20.9763 4.34289C20.418 4.8459 19.8885 5.32688 19.3093 5.74199L19.8918 6.5548ZM23.317 3.71024C25.9421 1.90393 29.4894 1.49412 32.7247 1.50006L32.7266 0.500066C29.4514 0.494044 25.6396 0.898232 22.7501 2.88642L23.317 3.71024ZM32.7248 1.50006C37.3592 1.50832 42.0037 2.55977 46.4636 3.93998L46.7593 2.98468C42.2573 1.59144 37.5041 0.508572 32.7265 0.500065L32.7248 1.50006ZM46.4637 3.94C48.2078 4.47948 50.1912 4.9919 51.8097 5.88166C53.4051 6.7587 54.5473 7.94967 54.7182 9.81084L55.714 9.71938C55.5013 7.40362 54.0487 5.97138 52.2914 5.00535C50.5573 4.05204 48.4302 3.50154 46.7592 2.98466L46.4637 3.94ZM54.7182 9.81089C54.8166 10.8812 55.1048 11.7277 55.573 12.4877C56.0349 13.2374 56.6602 13.8827 57.396 14.562L58.0743 13.8272C57.3547 13.1629 56.8122 12.5926 56.4244 11.9631C56.0429 11.3438 55.7993 10.6475 55.714 9.71933L54.7182 9.81089ZM57.3961 14.562C57.7034 14.8457 58.1504 15.1975 58.6097 15.5691C59.079 15.949 59.5802 16.3644 60.0329 16.7999C60.4882 17.2379 60.8754 17.6783 61.129 18.1031C61.384 18.5302 61.4745 18.8913 61.4242 19.1954L62.4108 19.3587C62.5149 18.7294 62.3056 18.1231 61.9876 17.5905C61.6683 17.0556 61.2093 16.544 60.7262 16.0792C60.2406 15.6121 59.7112 15.1742 59.2388 14.7918C58.7562 14.4012 58.3502 14.0819 58.0743 13.8272L57.3961 14.562ZM61.4242 19.1954C61.3561 19.607 61.0679 19.9891 60.5591 20.3903C60.0488 20.7928 59.4083 21.1464 58.7332 21.5457C58.0851 21.9291 57.3988 22.3585 56.9167 22.8872C56.4135 23.4392 56.1043 24.1332 56.2865 24.9977L57.265 24.7915C57.1656 24.3199 57.3092 23.9411 57.6557 23.561C58.0234 23.1577 58.5838 22.7959 59.2423 22.4064C59.8739 22.0329 60.5998 21.6318 61.1784 21.1755C61.7586 20.7179 62.282 20.1369 62.4108 19.3587L61.4242 19.1954ZM56.2865 24.9978C56.4563 25.8031 56.9522 26.4225 57.5289 26.9289C58.0999 27.4303 58.8023 27.864 59.4342 28.2694C60.0862 28.6878 60.6679 29.0788 61.0928 29.521C61.5068 29.9518 61.74 30.3986 61.7479 30.9325L62.7478 30.9177C62.7351 30.0556 62.3433 29.3791 61.8139 28.8282C61.2955 28.2886 60.6157 27.8394 59.9742 27.4277C59.3125 27.0031 58.6892 26.6169 58.1887 26.1775C57.6939 25.743 57.3723 25.3004 57.265 24.7914L56.2865 24.9978ZM61.7479 30.9326C61.7775 32.9111 61.6766 34.907 61.3277 36.868L62.3122 37.0431C62.6755 35.0013 62.7781 32.9383 62.7478 30.9176L61.7479 30.9326ZM61.3277 36.868C61.1597 37.8127 61.0974 38.8153 61.0021 39.7393C60.9047 40.6831 60.7713 41.5764 60.4704 42.4019L61.4099 42.7443C61.7548 41.7982 61.8976 40.8035 61.9968 39.8419C62.0981 38.8604 62.1528 37.9399 62.3122 37.0431L61.3277 36.868ZM60.4704 42.4019C60.0378 43.5889 58.9279 44.4541 57.5263 45.2061C56.8335 45.5778 56.0978 45.9076 55.3743 46.2335C54.6592 46.5557 53.9496 46.8768 53.3446 47.2209L53.839 48.0902C54.3957 47.7735 55.0606 47.4716 55.785 47.1453C56.5011 46.8227 57.27 46.4784 57.999 46.0873C59.441 45.3137 60.8436 44.2984 61.4099 42.7443L60.4704 42.4019ZM53.3445 47.221C52.9021 47.4727 52.3177 47.7816 51.8007 48.1563C51.2819 48.5321 50.7697 49.0152 50.4956 49.6568L51.4152 50.0497C51.5858 49.6504 51.9299 49.2975 52.3874 48.966C52.8465 48.6334 53.3579 48.3639 53.839 48.0901L53.3445 47.221ZM50.4955 49.6569C50.1219 50.5319 50.2942 51.4457 50.3652 52.1362L51.36 52.0338C51.2754 51.2125 51.1688 50.6266 51.4152 50.0496L50.4955 49.6569ZM50.3652 52.1359C50.4376 52.8437 50.3927 53.3975 50.2145 53.868C50.0388 54.3323 49.7165 54.7599 49.1569 55.1871L49.7637 55.9819C50.4389 55.4665 50.8946 54.8961 51.1498 54.2221C51.4025 53.5545 51.4414 52.8298 51.36 52.0342L50.3652 52.1359ZM49.1569 55.1871C47.6938 56.3044 45.9319 57.18 44.2057 57.9292L44.6039 58.8465C46.3526 58.0875 48.2032 57.1736 49.7638 55.9819L49.1569 55.1871ZM44.2057 57.9292C40.5226 59.5275 36.5126 60.3436 32.501 60.3501L32.5026 61.3501C36.6474 61.3434 40.7926 60.5005 44.6038 58.8466L44.2057 57.9292ZM32.501 60.3501C25.0262 60.3619 16.9765 57.4296 12.0015 51.7554L11.2496 52.4147C16.4526 58.349 24.8019 61.3622 32.5026 61.3501L32.501 60.3501ZM12.0015 51.7554C9.6643 49.0898 7.83364 45.8899 6.39617 42.6259L5.48099 43.029C6.94505 46.3533 8.82508 49.6495 11.2496 52.4147L12.0015 51.7554ZM6.39614 42.6259C5.61674 40.8568 5.08449 39.019 4.62428 37.1158L3.65229 37.3508C4.11856 39.2791 4.66721 41.1819 5.48102 43.029L6.39614 42.6259ZM4.6243 37.1159C4.36362 36.037 3.91336 34.9529 3.55611 33.9452C3.18987 32.9123 2.90522 31.9231 2.89724 30.9205L1.89727 30.9285C1.90664 32.1056 2.23994 33.2255 2.6136 34.2794C2.99624 35.3586 3.40782 36.339 3.65227 37.3507L4.6243 37.1159ZM36.8431 21.5352C36.2652 21.9339 35.4183 22.4569 34.8545 23.1008C34.5638 23.4328 34.3187 23.827 34.2216 24.2904C34.1225 24.7636 34.1873 25.2638 34.4426 25.7812L35.3394 25.3387C35.1725 25.0006 35.1518 24.7275 35.2004 24.4955C35.251 24.2537 35.3868 24.0108 35.6068 23.7596C36.0644 23.237 36.7577 22.809 37.4109 22.3584L36.8431 21.5352ZM34.4425 25.781C34.759 26.423 35.2732 26.9688 35.796 27.4341C36.3109 27.8925 36.9001 28.3268 37.3364 28.6805L37.9661 27.9037C37.4736 27.5044 36.9568 27.1287 36.4609 26.6872C35.9727 26.2527 35.5712 25.809 35.3395 25.3389L34.4425 25.781ZM37.3365 28.6805C37.5338 28.8405 37.7785 29.0753 38.0729 29.3595C38.3602 29.6368 38.6859 29.952 39.0239 30.2462C39.3609 30.5394 39.725 30.8251 40.0946 31.04C40.4584 31.2516 40.8708 31.4205 41.2959 31.4243L41.3048 30.4243C41.1293 30.4228 40.8942 30.3482 40.5973 30.1756C40.3063 30.0063 39.9966 29.767 39.6804 29.4918C39.3652 29.2176 39.0584 28.9209 38.7674 28.64C38.4837 28.3662 38.2045 28.0968 37.9661 27.9036L37.3365 28.6805ZM41.2959 31.4243C41.7776 31.4285 42.1866 31.2784 42.4598 30.9486C42.7183 30.6364 42.7865 30.2441 42.7813 29.9017C42.7711 29.2241 42.4717 28.4735 42.1883 28.0241L41.3425 28.5577C41.5582 28.8996 41.7747 29.4723 41.7814 29.9168C41.7847 30.1355 41.7365 30.2541 41.6896 30.3107C41.6572 30.3498 41.5715 30.4267 41.3047 30.4243L41.2959 31.4243ZM42.1883 28.0242C42.0301 27.7733 41.8405 27.5244 41.6546 27.2865C41.4637 27.0424 41.2783 26.8118 41.1037 26.5722C40.7507 26.0879 40.5074 25.6507 40.452 25.2234L39.4603 25.3519C39.5497 26.042 39.9237 26.651 40.2955 27.1612C40.4833 27.4189 40.6871 27.6726 40.8667 27.9024C41.0512 28.1384 41.2134 28.353 41.3425 28.5576L42.1883 28.0242ZM40.452 25.2234C40.3801 24.6683 40.6769 24.1686 41.254 23.6637C41.8386 23.1523 42.5569 22.7624 43.1635 22.3659L42.6164 21.5289C42.1032 21.8643 41.2501 22.3384 40.5956 22.911C39.9335 23.4902 39.3233 24.2946 39.4603 25.3519L40.452 25.2234ZM43.1636 22.3659C43.6322 22.0594 44.5741 21.5513 45.3165 20.9806C46.0553 20.4126 46.8363 19.6162 46.8498 18.5892L45.8499 18.5761C45.8431 19.0968 45.4268 19.6344 44.7071 20.1878C43.991 20.7383 43.213 21.1387 42.6163 21.5289L43.1636 22.3659ZM46.8498 18.5892C46.8588 17.9103 46.5263 17.2432 46.1728 16.701C45.8119 16.1475 45.369 15.6376 45.0704 15.2815L44.3041 15.9239C44.6196 16.3003 45.0149 16.7561 45.3352 17.2473C45.6629 17.7499 45.8548 18.2064 45.8499 18.5761L46.8498 18.5892ZM45.0706 15.2817C44.7443 14.8921 44.2202 14.1916 43.649 13.6195C43.3584 13.3284 43.0353 13.0485 42.6901 12.8387C42.3463 12.6297 41.952 12.4728 41.5275 12.4705L41.5221 13.4705C41.703 13.4714 41.9183 13.5398 42.1707 13.6932C42.4216 13.8458 42.6811 14.0654 42.9414 14.3261C43.4722 14.8577 43.924 15.47 44.3039 15.9237L45.0706 15.2817ZM41.5276 12.4705C41.0801 12.4679 40.7124 12.6281 40.4426 12.9109C40.1872 13.1785 40.0512 13.5222 39.9775 13.8457C39.8311 14.4878 39.8923 15.2222 39.9643 15.6813L40.9522 15.5264C40.8872 15.1117 40.8481 14.5258 40.9525 14.0679C41.0041 13.8413 41.0813 13.6901 41.1661 13.6012C41.2365 13.5274 41.336 13.4694 41.5219 13.4705L41.5276 12.4705ZM39.9643 15.6814C40.0328 16.1178 40.1646 16.6466 40.239 17.0391C40.3214 17.4737 40.3645 17.8679 40.3177 18.2415L41.3099 18.3659C41.3761 17.8376 41.3106 17.3224 41.2215 16.8528C41.1245 16.3411 41.022 15.9709 40.9522 15.5264L39.9643 15.6814ZM40.3177 18.2409C40.2339 18.9031 39.756 19.4926 39.0444 20.0588C38.696 20.336 38.3123 20.5915 37.929 20.8362C37.5549 21.075 37.1643 21.3137 36.8431 21.5352L37.4109 22.3584C37.7127 22.1502 38.0672 21.9344 38.4671 21.6791C38.8577 21.4297 39.2768 21.1517 39.667 20.8413C40.4327 20.2321 41.1752 19.4299 41.3098 18.3665L40.3177 18.2409ZM19.5506 21.566C19.0199 22.0175 18.3786 22.5434 17.9527 23.1713C17.5042 23.8325 17.2767 24.63 17.5822 25.5926L18.5353 25.2902C18.3392 24.6721 18.4702 24.1898 18.7803 23.7326C19.1131 23.242 19.6305 22.8109 20.1986 22.3276L19.5506 21.566ZM17.5821 25.5925C17.7858 26.2349 18.1745 26.8044 18.5883 27.3C18.9992 27.7922 19.4724 28.2534 19.8466 28.6419L20.5669 27.9483C20.1619 27.5277 19.7365 27.115 19.3559 26.6591C18.9782 26.2067 18.6824 25.7539 18.5354 25.2903L17.5821 25.5925ZM19.8466 28.6419C20.0216 28.8237 20.2266 29.069 20.4726 29.3588C20.7123 29.6413 20.9829 29.9562 21.2695 30.2488C21.5547 30.5401 21.8699 30.8242 22.2039 31.0388C22.5352 31.2516 22.9209 31.4193 23.3387 31.4243L23.3507 30.4243C23.1919 30.4224 22.9914 30.3561 22.7444 30.1974C22.5 30.0404 22.2446 29.8153 21.984 29.5492C21.7247 29.2844 21.4743 28.9937 21.235 28.7117C21.0019 28.4371 20.7699 28.1591 20.567 27.9483L19.8466 28.6419ZM23.3384 31.4243C23.7882 31.4299 24.1681 31.2871 24.4537 31.0154C24.7287 30.7537 24.8766 30.4106 24.9504 30.0778C25.0958 29.4226 24.9876 28.6635 24.7967 28.1273L23.8546 28.4629C23.9994 28.8694 24.0691 29.4333 23.9741 29.8612C23.9278 30.07 23.851 30.2085 23.7644 30.2909C23.6883 30.3633 23.5694 30.4271 23.351 30.4243L23.3384 31.4243ZM24.7967 28.1274C24.6189 27.6281 24.3379 27.113 24.1338 26.6824C23.9163 26.2236 23.7585 25.8123 23.7252 25.401L22.7284 25.4818C22.7771 26.082 23.002 26.6295 23.2302 27.1107C23.4716 27.6201 23.6991 28.0261 23.8546 28.4629L24.7967 28.1274ZM23.7252 25.4012C23.6729 24.7534 23.9143 24.2338 24.3331 23.7456C24.7693 23.2372 25.3504 22.8135 25.9482 22.3381L25.3258 21.5555C24.7804 21.9892 24.0903 22.4928 23.5741 23.0945C23.0406 23.7164 22.6484 24.4896 22.7284 25.4816L23.7252 25.4012ZM25.9481 22.3382C26.4153 21.9667 27.2085 21.4325 27.81 20.8318C28.4207 20.2219 28.9805 19.4097 28.8697 18.3978L27.8757 18.5066C27.9361 19.0591 27.6449 19.5834 27.1033 20.1242C26.5525 20.6743 25.8922 21.1051 25.3258 21.5554L25.9481 22.3382ZM28.8698 18.3978C28.7992 17.7526 28.5068 17.1595 28.1739 16.6485C27.8407 16.1371 27.4374 15.6651 27.1151 15.2784L26.3469 15.9186C26.683 16.3219 27.0421 16.7432 27.336 17.1943C27.6302 17.6459 27.8295 18.0847 27.8757 18.5065L28.8698 18.3978ZM27.1151 15.2784C26.7879 14.8857 26.2642 14.1872 25.6908 13.6146C25.3997 13.3237 25.0762 13.0443 24.7313 12.8351C24.3879 12.6268 23.9938 12.4703 23.5704 12.4693L23.5679 13.4693C23.7463 13.4697 23.9604 13.5371 24.2127 13.6901C24.4635 13.8422 24.7233 14.0615 24.9842 14.3221C25.5149 14.8521 25.9703 15.4668 26.3469 15.9186L27.1151 15.2784ZM23.5706 12.4693C23.1271 12.468 22.7623 12.6276 22.4937 12.9073C22.2391 13.1725 22.1013 13.513 22.0256 13.835C21.8752 14.4742 21.9311 15.2071 22.0051 15.6764L22.9929 15.5206C22.9269 15.1017 22.8921 14.5182 22.999 14.064C23.0519 13.8392 23.1297 13.6888 23.2149 13.6C23.2861 13.5259 23.3855 13.4688 23.5677 13.4693L23.5706 12.4693ZM22.0051 15.6763C22.0721 16.1013 22.1836 16.5725 22.2558 16.9535C22.333 17.361 22.3825 17.7395 22.3641 18.1121L23.3629 18.1613C23.387 17.6716 23.3207 17.2025 23.2383 16.7674C23.1508 16.3056 23.0588 15.9389 22.9929 15.5207L22.0051 15.6763ZM22.3641 18.1124C22.3299 18.8146 21.9727 19.403 21.4271 19.9671C20.8606 20.5528 20.1987 21.0147 19.5506 21.5659L20.1986 22.3276C20.7487 21.8597 21.5388 21.29 22.1459 20.6623C22.774 20.0129 23.3121 19.2059 23.3629 18.161L22.3641 18.1124ZM15.1887 39.8516C15.6342 41.2055 16.2489 42.5006 16.9731 43.7148L17.8319 43.2025C17.14 42.0425 16.5582 40.814 16.1386 39.539L15.1887 39.8516ZM16.9731 43.7147C17.4189 44.4622 17.824 45.2431 18.2716 46.0494C18.7129 46.8443 19.1858 47.6453 19.7417 48.3749L20.5372 47.7688C20.026 47.098 19.5811 46.3479 19.146 45.5641C18.7172 44.7918 18.2875 43.9663 17.8319 43.2025L16.9731 43.7147ZM19.7418 48.3749C22.2111 51.6154 26.9009 52.8801 30.6534 52.8703L30.6508 51.8703C27.0394 51.8797 22.7325 50.6498 20.5371 47.7688L19.7418 48.3749ZM30.6533 52.8703C32.8335 52.865 34.6183 52.2009 36.2845 51.3301C37.1133 50.897 37.9211 50.408 38.7276 49.925C39.5388 49.4391 40.3526 48.9567 41.2158 48.5198L40.7642 47.6276C39.8657 48.0824 39.0242 48.5817 38.2138 49.0671C37.3988 49.5552 36.6188 50.0271 35.8213 50.4439C34.2348 51.273 32.6124 51.8655 30.6509 51.8703L30.6533 52.8703ZM41.2159 48.5197C41.7856 48.2313 42.4472 47.9457 43.161 47.6333C43.8684 47.3236 44.6202 46.9904 45.3433 46.6153C46.7744 45.8731 48.1779 44.9258 48.9223 43.5679L48.0454 43.0872C47.4515 44.1706 46.2788 45.0036 44.8829 45.7277C44.1924 46.0858 43.468 46.4072 42.76 46.7172C42.0583 47.0243 41.3651 47.3233 40.7641 47.6276L41.2159 48.5197ZM48.9223 43.5679C49.5747 42.3776 49.8188 41.0832 49.9912 39.8421L49.0008 39.7045C48.831 40.9263 48.605 42.0663 48.0454 43.0873L48.9223 43.5679ZM47.4398 36.9084H17.4554V37.9084H47.4398V36.9084ZM49.9912 39.8421C50.2043 38.3092 48.9893 36.9084 47.4398 36.9084V37.9084C48.3804 37.9084 49.1305 38.7709 49.0008 39.7045L49.9912 39.8421ZM16.1386 39.539C15.8767 38.7431 16.502 37.9084 17.4554 37.9084V36.9084C15.9388 36.9084 14.6785 38.3012 15.1887 39.8516L16.1386 39.539Z" fill="#03001B"/>
</svg>
