<svg width="118" height="239" viewBox="0 0 118 239" fill="none" xmlns="http://www.w3.org/2000/svg">
<g opacity="0.15">
<path fill-rule="evenodd" clip-rule="evenodd" d="M58.5154 122C58.5505 154.288 84.7355 180.451 117.031 180.451C84.7138 180.451 58.5154 206.649 58.5154 238.967C58.5154 206.649 32.3172 180.451 0 180.451C32.2955 180.451 58.4803 154.287 58.5154 122ZM58.5155 148C58.535 165.941 73.0853 180.48 91.0313 180.48C73.0733 180.48 58.5155 195.038 58.5155 212.995C58.5155 195.038 43.9578 180.48 26 180.48C43.9458 180.48 58.496 165.941 58.5155 148Z" fill="white"/>
<path fill-rule="evenodd" clip-rule="evenodd" d="M58.5155 55.0312C58.544 81.2319 79.7926 102.463 106 102.463C79.775 102.463 58.5154 123.722 58.5154 149.947C58.5154 123.723 37.256 102.463 11.0312 102.463C37.2384 102.463 58.4869 81.2318 58.5155 55.0312ZM58.5155 76C58.5315 90.6306 70.3969 102.486 85.0312 102.486C70.387 102.486 58.5155 114.358 58.5155 129.002C58.5155 114.358 46.6441 102.486 32 102.486C46.6343 102.486 58.4996 90.6306 58.5155 76Z" fill="white"/>
<path fill-rule="evenodd" clip-rule="evenodd" d="M58.5155 0C58.5392 21.7865 76.208 39.4405 98 39.4405C76.1933 39.4405 58.5154 57.1184 58.5154 78.9251C58.5154 57.1185 40.8378 39.4407 19.0312 39.4405C40.8231 39.4403 58.4917 21.7864 58.5155 0ZM58.5156 19C58.5279 30.3028 67.6944 39.4616 79 39.4616C67.6868 39.4616 58.5155 48.6329 58.5155 59.9461C58.5155 48.6329 49.3444 39.4617 38.0312 39.4616C49.3368 39.4616 58.5033 30.3027 58.5156 19Z" fill="white"/>
</g>
</svg>
