<svg width="64" height="61" viewBox="0 0 64 61" fill="none" xmlns="http://www.w3.org/2000/svg">
<path opacity="0.15" fill-rule="evenodd" clip-rule="evenodd" d="M12.2772 0C14.6136 3.50318 16.0789 7.622 16.3692 12.0565C16.5991 15.3917 16.1356 18.683 15.0708 21.7536C14.8391 22.4226 14.5794 23.0788 14.293 23.7208C12.1513 28.5278 8.48311 32.6541 3.6804 35.3463C2.50916 36.0074 1.27915 36.5788 0 37.0508C2.14069 36.4696 4.3951 36.1591 6.72301 36.1591L6.75982 36.1591C20.6646 36.1591 31.9682 47.2543 32.0001 61L32.0007 60.9047C32.0801 47.989 42.1633 37.3833 55.012 36.2579C55.7316 36.1949 56.4599 36.1616 57.1956 36.1593L57.2771 36.1591C59.605 36.1591 61.8593 36.4696 64 37.0507C54.4072 33.5109 47.5777 24.3861 47.5777 13.6877C47.5777 8.6612 49.0853 3.98209 51.6787 0.066386C43.2779 10.3386 28.0834 12.4455 17.1572 4.59046C17.0554 4.51693 16.9543 4.4427 16.8537 4.36777C15.1485 3.1068 13.6102 1.6382 12.2772 0ZM20.9059 12.3438C22.2202 14.3143 23.0444 16.6311 23.2077 19.1256C23.337 21.0016 23.0763 22.853 22.4773 24.5802C22.347 24.9565 22.2009 25.3256 22.0398 25.6867C20.8351 28.3906 18.7717 30.7117 16.0702 32.2261C15.4114 32.5979 14.7195 32.9193 14 33.1848C15.2041 32.8579 16.4722 32.6833 17.7817 32.6833H17.8024C25.6238 32.6833 31.9821 38.9243 32.0001 46.6562L32.0004 46.6027C32.0451 39.3375 37.7168 33.3719 44.9443 32.7388C45.349 32.7034 45.7587 32.6846 46.1725 32.6833L46.2184 32.6833C47.5278 32.6833 48.7959 32.8579 50 33.1848C44.6041 31.1936 40.7625 26.0609 40.7625 20.0431C40.7625 17.2157 41.6105 14.5837 43.0693 12.3811C38.3438 18.1592 29.7969 19.3443 23.6509 14.9259C23.5937 14.8845 23.5368 14.8428 23.4802 14.8006C22.5211 14.0913 21.6557 13.2652 20.9059 12.3438Z" fill="white"/>
</svg>
