<svg width="239" height="118" viewBox="0 0 239 118" fill="none" xmlns="http://www.w3.org/2000/svg">
<g opacity="0.15">
<path fill-rule="evenodd" clip-rule="evenodd" d="M122 58.5158C154.288 58.4807 180.451 32.2957 180.451 -7.88776e-06C180.451 32.3174 206.649 58.5158 238.967 58.5158C206.649 58.5158 180.451 84.714 180.451 117.031C180.451 84.7357 154.287 58.5509 122 58.5158ZM148 58.5157C165.941 58.4962 180.48 43.9459 180.48 26C180.48 43.9579 195.038 58.5157 212.995 58.5157C195.038 58.5157 180.48 73.0734 180.48 91.0312C180.48 73.0855 165.941 58.5352 148 58.5157Z" fill="white"/>
<path fill-rule="evenodd" clip-rule="evenodd" d="M55.0312 58.5158C81.2319 58.4872 102.463 37.2386 102.463 11.0313C102.463 37.2563 123.722 58.5159 149.947 58.5159C123.723 58.5159 102.463 79.7752 102.463 106C102.463 79.7928 81.2318 58.5444 55.0312 58.5158ZM76 58.5157C90.6306 58.4998 102.486 46.6344 102.486 32C102.486 46.6443 114.358 58.5158 129.002 58.5158C114.358 58.5158 102.486 70.3871 102.486 85.0312C102.486 70.397 90.6306 58.5317 76 58.5157Z" fill="white"/>
<path fill-rule="evenodd" clip-rule="evenodd" d="M-2.55779e-06 58.5158C21.7865 58.492 39.4405 40.8233 39.4405 19.0313C39.4405 40.838 57.1184 58.5158 78.9251 58.5158C57.1185 58.5158 39.4407 76.1935 39.4405 98C39.4403 76.2081 21.7864 58.5395 -2.55779e-06 58.5158ZM19 58.5157C30.3028 58.5034 39.4616 49.3369 39.4616 38.0312C39.4616 49.3445 48.6329 58.5157 59.9461 58.5157C48.6329 58.5157 39.4617 67.6868 39.4616 79C39.4615 67.6944 30.3027 58.528 19 58.5157Z" fill="white"/>
</g>
</svg>
