<svg width="76" height="88" viewBox="0 0 76 88" fill="none" xmlns="http://www.w3.org/2000/svg">
<path d="M37.6902 0C16.8917 0 0 16.8917 0 37.6621C0 58.4325 16.8917 75.3523 37.6902 75.3523C40.1354 75.3523 42.5244 75.0993 44.8572 74.6496L46.6841 88H46.7684L51.5465 53.1485L52.6707 44.9697L53.4577 39.3766L47.0495 39.0393L40.2759 38.6739L40.2478 31.535L40.1635 16.1048L29.5113 28.0498L11.4392 48.2862C10.1182 45.0259 9.38742 41.4564 9.38742 37.7183C9.38742 22.1195 22.0913 9.38742 37.7183 9.38742C53.3452 9.38742 66.0492 22.0914 66.0492 37.7183C66.0492 45.2788 63.0699 52.1648 58.2076 57.252L55.7624 70.7991C67.4545 64.3909 75.4085 51.9681 75.4085 37.7183C75.3523 16.8917 58.4606 0 37.6902 0ZM29.9891 50.0006L33.9802 50.2255L41.5126 50.619L43.5362 65.3746C41.6531 65.7681 39.6576 65.993 37.6621 65.993C28.8087 65.993 22.8783 61.8052 22.8783 61.8052L29.9891 50.0006Z" fill="white"/>
</svg>
