<svg width="112" height="115" viewBox="0 0 112 115" fill="none" xmlns="http://www.w3.org/2000/svg">
<path opacity="0.15" d="M111.5 57.5378C111.5 88.7478 86.6435 114.033 56 114.033C25.3565 114.033 0.5 88.7478 0.5 57.5378C0.5 26.3278 25.3565 1.04224 56 1.04224C86.6435 1.04224 111.5 26.3278 111.5 57.5378Z" stroke="white"/>
<path opacity="0.2" d="M95.5 57.5378C95.5 79.7541 77.807 97.7489 56 97.7489C34.193 97.7489 16.5 79.7541 16.5 57.5378C16.5 35.3214 34.193 17.3267 56 17.3267C77.807 17.3267 95.5 35.3214 95.5 57.5378Z" stroke="white"/>
<path opacity="0.7" d="M56.0001 74C56.9818 74 57.7779 73.2038 57.7779 72.2221C57.7779 72.0525 57.7552 71.928 57.7261 71.7943C56.7292 67.4559 56.2087 63.0365 56.1646 58.6135C58.338 62.466 60.097 66.5536 61.4029 70.8093C61.4474 70.9495 61.4909 71.066 61.5718 71.2058C62.0627 72.0557 63.1504 72.3472 64.0003 71.8563C64.8502 71.3655 65.1417 70.2782 64.6508 69.4279C64.566 69.2811 64.4844 69.1844 64.392 69.0836C61.3593 65.8248 58.6987 62.2576 56.449 58.449C60.2576 60.6987 63.8247 63.3593 67.0836 66.3919C67.1924 66.4911 67.2884 66.5698 67.4282 66.6508C68.2784 67.1416 69.3658 66.8504 69.8566 66.0002C70.3475 65.15 70.0563 64.0627 69.2061 63.5718C69.0589 63.487 68.9402 63.4441 68.8093 63.4028C64.5539 62.0971 60.4665 60.3382 56.6142 58.165C61.037 58.2091 65.4561 58.7296 69.7943 59.7265C69.9379 59.7581 70.0605 59.7783 70.2221 59.7783C71.2038 59.7783 72 58.9821 72 58.0004C72 57.0187 71.2038 56.2225 70.2221 56.2225C70.0525 56.2225 69.928 56.2452 69.7943 56.2743C65.4563 57.2712 61.0372 57.7917 56.6146 57.8358C60.4669 55.6626 64.5542 53.9037 68.8097 52.5979C68.9499 52.5534 69.0664 52.5099 69.2062 52.4289C70.0561 51.9381 70.3476 50.8504 69.8567 50.0005C69.3659 49.1506 68.2785 48.8591 67.4283 49.35C67.2814 49.4348 67.1848 49.5164 67.084 49.6088C63.825 52.6416 60.2576 55.3023 56.4489 57.5521C58.6986 53.7434 61.3593 50.176 64.392 46.9171C64.4912 46.8086 64.5699 46.7126 64.6509 46.5728C65.1418 45.7226 64.8506 44.6352 64.0003 44.1444C63.1501 43.6535 62.0628 43.9447 61.5719 44.7949C61.4871 44.9421 61.4442 45.0608 61.403 45.1914C60.0971 49.4471 58.3381 53.5348 56.1646 57.3873C56.2086 52.964 56.7291 48.5443 57.7261 44.2057C57.7575 44.0623 57.7779 43.9395 57.7779 43.7779C57.7779 42.7961 56.9818 42 56.0001 42C55.0183 42 54.2222 42.7961 54.2222 43.7779C54.2222 43.9478 54.2446 44.0726 54.274 44.2057C55.2709 48.544 55.7914 52.9634 55.8355 57.3863C53.6623 53.5341 51.9034 49.4467 50.5977 45.1913C50.5535 45.0515 50.5097 44.9347 50.4287 44.7948C49.9378 43.9449 48.8502 43.6534 48.0003 44.1443C47.1504 44.6352 46.8589 45.7225 47.3497 46.5727C47.4345 46.7196 47.5168 46.8165 47.6086 46.917C50.6412 50.1758 53.3017 53.7429 55.5514 57.5514C51.7429 55.3017 48.1758 52.6412 44.917 49.6086C44.8088 49.5097 44.7125 49.4306 44.5727 49.3497C43.7225 48.8588 42.6351 49.15 42.1442 50.0002C41.6534 50.8505 41.9446 51.9378 42.7948 52.4287C42.942 52.5134 43.0613 52.5563 43.1913 52.5976C47.4469 53.9035 51.5345 55.6624 55.387 57.8358C50.9638 57.7918 46.5442 57.2713 42.2057 56.2743C42.0624 56.2427 41.9395 56.2225 41.7779 56.2225C40.7961 56.2225 40 57.0187 40 58.0004C40 58.9821 40.7961 59.7783 41.7779 59.7783C41.9478 59.7783 42.0726 59.7559 42.2057 59.7265C46.5443 58.7295 50.964 58.209 55.3873 58.165C51.5348 60.3383 47.4473 62.0973 43.1917 63.4031C43.0518 63.4473 42.935 63.4911 42.7952 63.5721C41.9453 64.063 41.6538 65.1506 42.1447 66.0005C42.6355 66.8504 43.7229 67.1419 44.5731 66.6511C44.72 66.5663 44.8169 66.484 44.9174 66.3922C48.176 63.3597 51.743 60.6993 55.5512 58.4497C53.3016 62.258 50.6412 65.825 47.6087 69.0837C47.5098 69.1919 47.4308 69.2882 47.3498 69.428C46.8589 70.2782 47.1501 71.3656 48.0004 71.8564C48.8506 72.3473 49.9379 72.0561 50.4288 71.2059C50.5136 71.0587 50.5568 70.9393 50.5977 70.8094C51.9035 66.5541 53.6623 62.4668 55.8355 58.6145C55.7913 63.0372 55.2709 67.4562 54.274 71.7943C54.2423 71.9379 54.2222 72.0605 54.2222 72.2221C54.2222 73.2038 55.0183 74 56.0001 74Z" fill="white"/>
</svg>
